<svg width="176" height="97" viewBox="0 0 176 97" fill="none" xmlns="http://www.w3.org/2000/svg">
<path d="M100.636 26.6022H74.4492V96.873H100.636V26.6022Z" fill="#8C6239"/>
<path d="M175.088 75.7686H0L34.2254 56.5716L64.8045 39.4192L74.4506 34.0141L87.5441 26.6685L100.638 34.0141L110.267 39.4192L140.863 56.5716L175.088 75.7686Z" fill="#153641"/>
<path d="M159.059 56.5715H16.0088L46.6045 39.4192L77.0676 22.333L87.5424 16.4594L98.0006 22.333L128.48 39.4192L159.059 56.5715Z" fill="#22556E"/>
<path d="M144.591 39.4191H30.4785L60.9582 22.333L87.5429 7.42406L114.128 22.333L144.591 39.4191Z" fill="#4799B7"/>
<path d="M126.228 22.3333H48.8604L87.5442 0.637253L126.228 22.3333Z" fill="#6DB3BF"/>
</svg>
