<svg width="208" height="113" viewBox="0 0 208 113" fill="none" xmlns="http://www.w3.org/2000/svg">
<path d="M119.433 29.6526H88.4199V112.873H119.433V29.6526Z" fill="#8C6239"/>
<path d="M207.605 87.8795H0.250977L40.7835 65.1447L76.9978 44.8315L88.4215 38.4303L103.928 29.731L119.434 38.4303L130.838 44.8315L167.072 65.1447L207.605 87.8795Z" fill="#153641"/>
<path d="M188.621 65.1449H19.209L55.4429 44.8316L91.5198 24.5968L103.925 17.6408L116.31 24.5968L152.407 44.8316L188.621 65.1449Z" fill="#22556E"/>
<path d="M171.487 44.8314H36.3457L72.4422 24.5966L103.926 6.94017L135.41 24.5966L171.487 44.8314Z" fill="#4799B7"/>
<path d="M149.855 26.3398H58.2295L104.042 0.645508L149.855 26.3398Z" fill="#6DB3BF"/>
</svg>
