<svg width="367" height="195" viewBox="0 0 367 195" fill="none" xmlns="http://www.w3.org/2000/svg">
<mask id="mask0_43_312" style="mask-type:luminance" maskUnits="userSpaceOnUse" x="0" y="0" width="367" height="195">
<path d="M0 0H366.835V194.823H0V0Z" fill="white"/>
</mask>
<g mask="url(#mask0_43_312)">
<path d="M362.042 101.105H362.024L362.112 31.994C362.112 18.3366 351.036 7.26368 337.373 7.26368H181.936L181.931 7.2688C176.957 2.74648 170.355 0 163.11 0H83.1292C67.6483 0 55.1014 12.5434 55.1014 28.0193V45.3033H54.1376C52.2986 45.3033 50.7599 46.5418 50.2686 48.2238H48.474C46.8142 48.2238 45.4717 49.5681 45.4717 51.2262V69.933C45.4717 71.5911 46.8159 72.9336 48.474 72.9336H50.2686C50.7616 74.6157 52.3004 75.8558 54.1376 75.8558H55.1014V78.3652C54.7398 78.3652 54.4464 78.6586 54.4464 79.0186H46.5225C34.1377 79.0186 24.102 89.0526 24.102 101.432V108.921C23.742 108.921 23.4486 109.213 23.4486 109.574V109.6C13.1143 109.882 4.4143 116.71 1.38635 126.103C0.642577 128.411 0.238281 130.874 0.238281 133.428V159.605C0.238281 164.342 4.08165 168.184 8.82062 168.184H20.61C22.4831 181.995 29.4278 191.995 38.8392 194.296C40.1919 194.623 41.5993 194.796 43.0493 194.796H52.8207C53.7998 194.796 54.7654 194.719 55.7019 194.56C65.7871 192.916 73.2982 182.636 75.2582 168.184H129.41C131.285 181.995 138.228 191.995 147.639 194.296C148.994 194.623 150.399 194.796 151.851 194.796H161.622C162.602 194.796 163.565 194.719 164.504 194.56C171.254 193.46 176.851 188.486 180.404 180.985C183.72 187.989 188.819 192.791 194.974 194.296C196.329 194.623 197.736 194.796 199.186 194.796H208.957C209.937 194.796 210.902 194.719 211.839 194.56C222.528 192.819 230.329 181.381 231.692 165.552H285.255C286.562 180.714 293.778 191.851 303.776 194.296C305.13 194.622 306.538 194.794 307.988 194.794H317.759C318.738 194.794 319.704 194.717 320.64 194.559C331.329 192.819 339.13 181.379 340.493 165.552H353.156C358.032 165.552 361.983 161.599 361.983 156.727V149.334H362.046C364.68 149.334 366.814 147.2 366.814 144.567V105.873C366.81 103.239 364.674 101.105 362.042 101.105Z" fill="black"/>
</g>
<path d="M366.81 105.873V144.567C366.81 147.201 364.675 149.334 362.042 149.334H361.979V135.238L362.024 101.105H362.041C364.675 101.105 366.81 103.239 366.81 105.873ZM141.814 137.879C143.663 137.879 145.166 136.376 145.166 134.528V129.453C145.166 127.604 143.663 126.103 141.814 126.103H130.319V137.879H141.814ZM3.71489 126.103H1.38635C0.642577 128.411 0.238281 130.874 0.238281 133.428V137.879H3.71489V126.103Z" fill="#FE6539"/>
<mask id="mask1_43_312" style="mask-type:luminance" maskUnits="userSpaceOnUse" x="0" y="0" width="363" height="161">
<path d="M0 0H362.468V160.68H0V0Z" fill="white"/>
</mask>
<g mask="url(#mask1_43_312)">
<path d="M149.137 144.325C151.288 132.433 155.585 119.996 164.171 117.183C175.07 113.612 187.27 124.6 186.1 158.041H198.746C197.739 156.712 197.134 155.064 197.134 153.273V139.254C197.134 134.888 200.687 131.335 205.054 131.335H215.685C220.051 131.335 223.604 134.888 223.604 139.254V153.273C223.604 155.064 223 156.712 221.992 158.041H297.478L304.069 131.253C305.275 126.352 309.668 122.911 314.714 122.911H323.401C328.298 122.911 332.602 126.156 333.945 130.866L341.696 158.041L352.87 158.445C357.902 158.406 361.962 154.315 361.962 149.282L361.979 135.238L362.024 101.106L362.111 31.9957C362.111 18.3366 351.036 7.26368 337.373 7.26368H181.936L181.931 7.2688C176.957 2.74648 170.355 0 163.11 0H83.1292C67.6483 0 55.1014 12.5434 55.1014 28.0193V45.3033H54.1376C52.2987 45.3033 50.7599 46.5418 50.2686 48.2238H48.474C46.8142 48.2238 45.4717 49.5681 45.4717 51.2262V69.933C45.4717 71.5911 46.8159 72.9336 48.474 72.9336H50.2686C50.7616 74.6157 52.3004 75.8558 54.1376 75.8558H55.1014V78.3652H154.058C166.781 78.3652 177.132 88.7131 177.132 101.432V110.658C183.777 113.696 188.407 120.4 188.407 128.17V130.736C188.407 131.098 188.113 131.391 187.751 131.391C187.39 131.391 187.096 131.099 187.096 130.736V128.17C187.096 118.276 179.046 110.228 169.15 110.228H145.851C136.503 110.228 128.11 115.791 124.468 124.399C124.362 124.648 124.12 124.798 123.866 124.798C123.781 124.798 123.694 124.781 123.612 124.747C123.277 124.605 123.122 124.221 123.264 123.889C127.11 114.794 135.978 108.918 145.853 108.918H169.15C171.496 108.918 173.743 109.341 175.822 110.11V101.431C175.822 89.433 166.059 79.6719 154.058 79.6719H55.1014C54.7398 79.6719 54.4464 79.3802 54.4464 79.0168H46.5225C34.1377 79.0168 24.102 89.0509 24.102 101.431V108.919C24.4636 108.919 24.757 109.211 24.757 109.573V123.285C24.757 123.646 24.4636 123.94 24.102 123.94C23.742 123.94 23.4486 123.646 23.4486 123.285V109.6C13.1143 109.882 4.4143 116.71 1.38464 126.103H24.6018C26.4544 126.103 27.9522 127.604 27.9522 129.453V134.527C27.9522 136.376 26.4544 137.877 24.6018 137.877H0.238281V144.323H149.137V144.325ZM202.403 72.9336H204.239C203.818 73.8071 202.93 74.4161 201.897 74.4161H196.907C196.849 74.4161 196.796 74.4024 196.74 74.399V46.7585C196.796 46.755 196.849 46.7414 196.907 46.7414H201.897C202.93 46.7414 203.818 47.3504 204.239 48.2238H202.403C200.745 48.2238 199.401 49.5681 199.401 51.2262V69.933C199.401 71.5894 200.745 72.9336 202.403 72.9336ZM200.452 110.168H354.753C356.224 110.168 357.416 111.361 357.416 112.831C357.416 114.3 356.224 115.492 354.753 115.492H200.452C198.981 115.492 197.789 114.3 197.789 112.831C197.789 111.361 198.981 110.168 200.452 110.168ZM294.917 151.734H227.209C226.847 151.734 226.554 151.44 226.554 151.079C226.554 150.717 226.847 150.424 227.209 150.424H294.917C295.279 150.424 295.572 150.717 295.572 151.079C295.572 151.44 295.279 151.734 294.917 151.734ZM335.181 120.158H305.716C300.958 120.158 296.841 123.384 295.705 128.003L290.975 147.222C290.902 147.52 290.634 147.72 290.34 147.72C290.289 147.72 290.236 147.715 290.183 147.701C289.832 147.616 289.617 147.261 289.704 146.91L294.434 127.691C295.714 122.485 300.354 118.849 305.716 118.849H335.181C335.543 118.849 335.836 119.143 335.836 119.504C335.836 119.866 335.543 120.158 335.181 120.158ZM338.564 135.9C338.203 135.9 337.909 135.608 337.909 135.246C337.909 134.885 338.203 134.591 338.564 134.591H358.23C358.591 134.591 358.885 134.885 358.885 135.246C358.885 135.608 358.591 135.9 358.23 135.9H338.564ZM357.416 90.1546C357.416 91.6251 356.224 92.8175 354.753 92.8175H200.452C198.981 92.8175 197.789 91.6251 197.789 90.1546C197.789 88.6841 198.981 87.4934 200.452 87.4934H354.753C356.224 87.4934 357.416 88.6841 357.416 90.1546ZM219.976 71.9818V39.2389C219.976 36.0096 222.594 33.3911 225.825 33.3911H232.944C236.175 33.3911 238.795 36.0096 238.795 39.2389V71.9835C238.795 75.2127 236.175 77.8313 232.944 77.8313H225.825C222.594 77.8296 219.976 75.2127 219.976 71.9818ZM243.212 71.9818V39.2389C243.212 36.0096 245.83 33.3911 249.061 33.3911H256.18C259.411 33.3911 262.029 36.0096 262.029 39.2389V71.9835C262.029 75.2127 259.411 77.8313 256.18 77.8313H249.061C245.83 77.8296 243.212 75.2127 243.212 71.9818ZM266.446 71.9818V39.2389C266.446 36.0096 269.066 33.3911 272.297 33.3911H279.416C282.647 33.3911 285.265 36.0096 285.265 39.2389V71.9835C285.265 75.2127 282.647 77.8313 279.416 77.8313H272.297C269.066 77.8296 266.446 75.2127 266.446 71.9818ZM289.684 71.9818V39.2389C289.684 36.0096 292.302 33.3911 295.533 33.3911H302.652C305.883 33.3911 308.501 36.0096 308.501 39.2389V71.9835C308.501 75.2127 305.883 77.8313 302.652 77.8313H295.533C292.302 77.8296 289.684 75.2127 289.684 71.9818ZM312.919 71.9818V39.2389C312.919 36.0096 315.538 33.3911 318.769 33.3911H325.888C329.119 33.3911 331.737 36.0096 331.737 39.2389V71.9835C331.737 75.2127 329.119 77.8313 325.888 77.8313H318.769C315.538 77.8296 312.919 75.2127 312.919 71.9818ZM354.973 39.2389V71.9835C354.973 75.2127 352.355 77.8313 349.124 77.8313H342.005C338.774 77.8313 336.154 75.2127 336.154 71.9835V39.2389C336.154 36.0096 338.774 33.3911 342.005 33.3911H349.124C352.355 33.3911 354.973 36.0096 354.973 39.2389ZM334.714 10.2132C334.895 9.90099 335.294 9.79181 335.608 9.97264C341.93 13.6079 346.389 19.7696 347.846 26.8797C347.918 27.2328 347.689 27.5791 347.336 27.6525C347.292 27.661 347.247 27.6644 347.204 27.6644C346.899 27.6644 346.626 27.4512 346.563 27.1424C345.183 20.399 340.952 14.5547 334.956 11.1071C334.642 10.9279 334.535 10.5271 334.714 10.2132ZM205.07 17.3813H335.702C337.172 17.3813 338.365 18.5737 338.365 20.0442C338.365 21.5147 337.172 22.7054 335.702 22.7054H205.07C203.599 22.7054 202.407 21.5147 202.407 20.0442C202.407 18.5737 203.599 17.3813 205.07 17.3813ZM202.589 37.2311H209.708C212.939 37.2311 215.558 39.8496 215.558 43.0789V75.8234C215.558 79.0544 212.939 81.6712 209.708 81.6712H202.589C199.363 81.6712 196.75 79.0629 196.74 75.8405C196.796 75.8422 196.849 75.8575 196.905 75.8575H201.897C203.736 75.8575 205.274 74.6174 205.767 72.9353H207.562C209.22 72.9353 210.564 71.5911 210.564 69.9347V51.2262C210.564 49.5681 209.22 48.2238 207.562 48.2238H205.767C205.274 46.5418 203.736 45.3033 201.897 45.3033H196.905C196.849 45.3033 196.796 45.317 196.74 45.3187V43.0789C196.74 39.8496 199.358 37.2311 202.589 37.2311ZM163.11 4.80038C168.895 4.80038 174.432 6.93786 178.702 10.8205C182.711 14.4472 185.305 19.3533 186.085 24.6382H154.683V4.80038H163.11ZM94.557 14.4967H151.677C152.039 14.4967 152.332 14.7901 152.332 15.1517C152.332 15.5134 152.039 15.8068 151.677 15.8068H94.557C94.197 15.8068 93.9036 15.5134 93.9036 15.1517C93.9036 14.7901 94.197 14.4967 94.557 14.4967ZM93.9036 10.3769C93.9036 10.0153 94.197 9.72358 94.557 9.72358H151.677C152.039 9.72358 152.332 10.0153 152.332 10.3769C152.332 10.7386 152.039 11.032 151.677 11.032H94.557C94.197 11.032 93.9036 10.7386 93.9036 10.3769ZM151.677 6.25721H94.557C94.197 6.25721 93.9036 5.9655 93.9036 5.60385C93.9036 5.2422 94.197 4.94879 94.557 4.94879H151.677C152.039 4.94879 152.332 5.2422 152.332 5.60385C152.332 5.96379 152.039 6.25721 151.677 6.25721ZM94.557 19.2714H151.677C152.039 19.2714 152.332 19.5649 152.332 19.9265C152.332 20.2882 152.039 20.5816 151.677 20.5816H94.557C94.197 20.5816 93.9036 20.2882 93.9036 19.9265C93.9036 19.5649 94.197 19.2714 94.557 19.2714ZM94.557 24.0462H151.677C152.039 24.0462 152.332 24.3396 152.332 24.6996C152.332 25.0612 152.039 25.3547 151.677 25.3547H94.557C94.197 25.3547 93.9036 25.0629 93.9036 24.6996C93.9036 24.3396 94.197 24.0462 94.557 24.0462ZM83.1292 4.80038H91.5512V24.6382H60.1492C61.7919 13.4322 71.4712 4.80038 83.1292 4.80038ZM54.1376 46.7414H55.1014V48.623C54.6647 48.3773 54.1683 48.2238 53.6327 48.2238H51.7954C52.2185 47.3504 53.1055 46.7414 54.1376 46.7414ZM54.1376 74.4161C53.1055 74.4161 52.2185 73.8071 51.7954 72.9336H53.6327C54.1683 72.9336 54.6647 72.7818 55.1014 72.5345V74.4161H54.1376ZM174.202 76.1782H63.9124C60.591 76.1782 57.9008 73.4846 57.9008 70.1684V41.8011C57.9008 38.4798 60.591 35.7913 63.9124 35.7913H174.202C177.523 35.7913 180.217 38.4798 180.217 41.8011V70.1684C180.217 73.4846 177.523 76.1782 174.202 76.1782ZM97.3154 138.532H30.6765C30.3148 138.532 30.0214 138.24 30.0214 137.879C30.0214 137.517 30.3148 137.224 30.6765 137.224H97.3154C97.677 137.224 97.9705 137.517 97.9705 137.879C97.9705 138.239 97.677 138.532 97.3154 138.532ZM97.3154 134.46H30.6765C30.3148 134.46 30.0214 134.168 30.0214 133.805C30.0214 133.445 30.3148 133.152 30.6765 133.152H97.3154C97.677 133.152 97.9705 133.445 97.9705 133.805C97.9705 134.168 97.677 134.46 97.3154 134.46ZM141.814 126.103C143.663 126.103 145.166 127.606 145.166 129.453V134.528C145.166 136.376 143.663 137.879 141.814 137.879H109.432C107.583 137.879 106.08 136.376 106.08 134.528V129.453C106.08 127.604 107.583 126.103 109.432 126.103H141.814ZM134.792 89.143L164.845 84.0083C165.203 83.9469 165.539 84.1874 165.6 84.5422C165.66 84.8988 165.421 85.2382 165.065 85.2979L135.012 90.4327C129.806 91.3231 126.027 95.8011 126.027 101.081V112.831C126.027 113.191 125.734 113.484 125.372 113.484C125.011 113.484 124.717 113.191 124.717 112.831V101.081C124.719 95.1614 128.955 90.141 134.792 89.143ZM100.29 95.1443H107.711C112.907 95.1443 117.134 99.3715 117.134 104.566V105.943C117.134 106.304 116.841 106.598 116.479 106.598C116.118 106.598 115.824 106.304 115.824 105.943V104.566C115.824 100.093 112.186 96.4528 107.711 96.4528H100.289C99.9271 96.4528 99.6354 96.161 99.6354 95.7994C99.6354 95.4378 99.9288 95.1443 100.29 95.1443ZM62.0086 93.5408C63.8424 90.2194 66.6077 87.5702 70.0041 85.8796L78.1736 81.8145C78.496 81.6542 78.8901 81.7838 79.0521 82.1079C79.2125 82.4303 79.0811 82.8244 78.757 82.9847L70.5875 87.0516C67.4299 88.6227 64.8608 91.086 63.1549 94.1737C63.0355 94.3886 62.8121 94.5115 62.5818 94.5115C62.4743 94.5115 62.3651 94.4842 62.2662 94.4296C61.9489 94.2539 61.8329 93.8564 62.0086 93.5408ZM39.6563 95.7977H88.1275C92.5543 95.7977 96.1469 99.3886 96.1469 103.814V119.344C96.1469 123.769 92.5543 127.355 88.1275 127.355H39.6563C35.2278 127.355 31.6369 123.769 31.6369 119.344V103.814C31.6369 99.3886 35.2278 95.7977 39.6563 95.7977ZM26.5312 104.564V105.943C26.5312 106.304 26.2378 106.598 25.8778 106.598C25.5162 106.598 25.2228 106.304 25.2228 105.943V104.564C25.2228 100.209 28.1739 96.4459 32.4011 95.4139C32.7543 95.3269 33.1057 95.5418 33.191 95.8932C33.278 96.2446 33.063 96.5995 32.7116 96.6848C29.073 97.5735 26.5312 100.815 26.5312 104.564ZM220.252 158.041H200.488C199.23 156.836 198.444 155.146 198.444 153.273V139.254C198.444 135.608 201.409 132.643 205.053 132.643H215.684C219.329 132.643 222.294 135.608 222.294 139.254V153.273C222.296 155.146 221.508 156.836 220.252 158.041ZM121.273 155.808C121.273 153.196 123.392 151.079 126.003 151.079C128.615 151.079 130.732 153.196 130.732 155.808C130.732 158.419 128.615 160.536 126.003 160.536C123.392 160.536 121.273 158.419 121.273 155.808ZM105.932 155.808C105.932 153.196 108.049 151.079 110.661 151.079C113.274 151.079 115.391 153.196 115.391 155.808C115.391 158.419 113.274 160.536 110.661 160.536C108.049 160.536 105.932 158.419 105.932 155.808ZM12.7663 155.808C12.7663 158.419 10.6493 160.536 8.03591 160.536C5.42419 160.536 3.30718 158.419 3.30718 155.808C3.30718 153.196 5.42419 151.079 8.03591 151.079C10.6493 151.079 12.7663 153.196 12.7663 155.808ZM18.6483 155.808C18.6483 153.196 20.7653 151.079 23.3719 151.079C25.9853 151.079 28.1023 153.196 28.1023 155.808C28.1023 158.419 25.9853 160.536 23.3719 160.536C20.767 160.536 18.6483 158.419 18.6483 155.808Z" fill="#FEC901"/>
</g>
<path d="M164.875 182.795C158.831 182.795 153.932 172.829 153.932 160.536C153.932 148.242 158.831 138.276 164.875 138.276C170.919 138.276 175.82 148.242 175.82 160.536C175.82 172.829 170.921 182.795 164.875 182.795ZM321.012 138.276C314.968 138.276 310.069 148.242 310.069 160.536C310.069 172.831 314.968 182.796 321.012 182.796C327.056 182.796 331.957 172.831 331.957 160.536C331.955 148.242 327.058 138.276 321.012 138.276ZM106.08 129.453V134.528C106.08 136.376 107.583 137.879 109.432 137.879H130.319V126.103H109.432C107.583 126.103 106.08 127.606 106.08 129.453ZM24.6018 137.879C26.4561 137.879 27.9538 136.376 27.9538 134.528V129.453C27.9538 127.604 26.4561 126.103 24.6018 126.103H3.71484V137.879H24.6018ZM222.865 45.868C223.318 45.0679 223.788 44.3088 224.29 43.6196C225.071 42.5466 226.91 40.6343 228.08 39.4231C228.345 39.1485 228.254 38.3126 227.959 38.2904C225.772 38.1284 224.008 38.038 224.008 38.038C223.002 38.038 222.185 39.7592 222.185 41.8762V45.1993C222.185 45.9413 222.594 46.3456 222.865 45.868ZM233.544 38.8448C233.541 38.8448 233.539 38.8448 233.536 38.8431C233 38.7681 232.47 39.0274 232.004 39.5818C231.149 40.5985 229.698 42.26 228.865 43.1045C227.753 44.2338 226.617 45.2556 225.564 46.6237C225.344 46.9103 225.127 47.2088 224.918 47.5193C223.167 50.0969 222.183 54.4128 222.183 58.9061C222.183 61.0487 223.447 61.9955 224.104 60.3578C226.879 53.437 230.334 47.6353 234.003 42.5262C234.767 41.4617 234.46 38.9728 233.544 38.8448ZM246.1 45.868C246.552 45.0679 247.023 44.3088 247.524 43.6196C248.307 42.5466 250.146 40.6343 251.315 39.4231C251.581 39.1485 251.49 38.3126 251.195 38.2904C249.008 38.1284 247.244 38.038 247.244 38.038C246.238 38.038 245.419 39.7592 245.419 41.8762V45.1993C245.419 45.9413 245.83 46.3456 246.1 45.868ZM256.779 38.8448C256.777 38.8448 256.773 38.8448 256.772 38.8431C256.236 38.7681 255.706 39.0274 255.24 39.5818C254.387 40.5985 252.934 42.26 252.101 43.1045C250.989 44.2338 249.853 45.2556 248.8 46.6237C248.58 46.9103 248.363 47.2088 248.154 47.5193C246.403 50.0969 245.419 54.4128 245.419 58.9061C245.419 61.0487 246.683 61.9955 247.34 60.3578C250.115 53.437 253.57 47.6353 257.239 42.5262C258.003 41.4617 257.695 38.9728 256.779 38.8448ZM269.337 45.868C269.788 45.0679 270.26 44.3088 270.762 43.6196C271.543 42.5466 273.382 40.6343 274.552 39.4231C274.817 39.1485 274.726 38.3126 274.431 38.2904C272.244 38.1284 270.48 38.038 270.48 38.038C269.474 38.038 268.655 39.7592 268.655 41.8762V45.1993C268.655 45.9413 269.066 46.3456 269.337 45.868ZM280.015 38.8448C280.013 38.8448 280.009 38.8448 280.008 38.8431C279.472 38.7681 278.942 39.0274 278.476 39.5818C277.621 40.5985 276.169 42.26 275.337 43.1045C274.225 44.2338 273.089 45.2556 272.036 46.6237C271.816 46.9103 271.599 47.2088 271.39 47.5193C269.639 50.0969 268.655 54.4128 268.655 58.9061C268.655 61.0487 269.919 61.9955 270.576 60.3578C273.351 53.437 276.804 47.6353 280.473 42.5262C281.239 41.4617 280.931 38.9728 280.015 38.8448ZM292.572 45.868C293.025 45.0679 293.496 44.3088 293.996 43.6196C294.779 42.5466 296.618 40.6343 297.786 39.4231C298.053 39.1485 297.962 38.3126 297.665 38.2904C295.478 38.1284 293.715 38.038 293.715 38.038C292.71 38.038 291.891 39.7592 291.891 41.8762V45.1993C291.891 45.9413 292.302 46.3456 292.572 45.868ZM303.252 38.8448C303.249 38.8448 303.247 38.8448 303.244 38.8431C302.708 38.7681 302.177 39.0274 301.712 39.5818C300.859 40.5985 299.405 42.26 298.573 43.1045C297.461 44.2338 296.325 45.2556 295.272 46.6237C295.052 46.9103 294.837 47.2088 294.625 47.5193C292.875 50.0969 291.893 54.4128 291.893 58.9061C291.893 61.0487 293.157 61.9955 293.813 60.3578C296.587 53.437 300.042 47.6353 303.711 42.5262C304.475 41.4617 304.167 38.9728 303.252 38.8448ZM315.809 45.868C316.261 45.0679 316.732 44.3088 317.234 43.6196C318.015 42.5466 319.854 40.6343 321.024 39.4231C321.289 39.1485 321.198 38.3126 320.903 38.2904C318.716 38.1284 316.952 38.038 316.952 38.038C315.946 38.038 315.127 39.7592 315.127 41.8762V45.1993C315.127 45.9413 315.538 46.3456 315.809 45.868ZM326.486 38.8448C326.485 38.8448 326.481 38.8448 326.48 38.8431C325.944 38.7681 325.413 39.0274 324.948 39.5818C324.095 40.5985 322.641 42.26 321.809 43.1045C320.697 44.2338 319.56 45.2556 318.508 46.6237C318.288 46.9103 318.071 47.2088 317.861 47.5193C316.111 50.0969 315.127 54.4128 315.127 58.9061C315.127 61.0487 316.393 61.9955 317.048 60.3578C319.823 53.437 323.278 47.6353 326.947 42.5262C327.713 41.4617 327.404 38.9728 326.486 38.8448ZM338.363 41.8762V45.1993C338.363 45.9431 338.774 46.3474 339.043 45.868C339.496 45.0679 339.966 44.3088 340.468 43.6196C341.251 42.5466 343.09 40.6343 344.258 39.4231C344.524 39.1485 344.432 38.3126 344.139 38.2904C341.952 38.1284 340.188 38.038 340.188 38.038C339.182 38.038 338.363 39.7592 338.363 41.8762ZM341.744 46.6237C341.524 46.9103 341.307 47.2105 341.096 47.521C339.347 50.0969 338.363 54.4128 338.363 58.9061C338.363 61.0487 339.627 61.9955 340.284 60.3578C343.059 53.437 346.512 47.637 350.181 42.5279C350.947 41.4617 350.638 38.9728 349.722 38.8448C349.721 38.8448 349.717 38.8448 349.714 38.8431C349.18 38.7681 348.649 39.0274 348.184 39.5818C347.329 40.5985 345.877 42.26 345.045 43.1045C343.933 44.2338 342.796 45.2556 341.744 46.6237ZM174.058 20.0425C176.172 20.0425 177.886 18.3298 177.886 16.2162C177.886 14.1026 176.172 12.3899 174.058 12.3899C171.945 12.3899 170.23 14.1026 170.23 16.2162C170.23 18.3298 171.945 20.0425 174.058 20.0425ZM161.643 20.0425C163.756 20.0425 165.471 18.3298 165.471 16.2162C165.471 14.1026 163.756 12.3899 161.643 12.3899C159.529 12.3899 157.815 14.1026 157.815 16.2162C157.815 18.3298 159.529 20.0425 161.643 20.0425ZM84.673 12.3899C82.5594 12.3899 80.845 14.1043 80.845 16.2162C80.845 18.3315 82.5594 20.0442 84.673 20.0442C86.7866 20.0442 88.501 18.3298 88.501 16.2162C88.501 14.1026 86.7866 12.3899 84.673 12.3899ZM72.2575 12.3899C70.1422 12.3899 68.4295 14.1043 68.4295 16.2162C68.4295 18.3315 70.1422 20.0442 72.2575 20.0442C74.3711 20.0442 76.0855 18.3298 76.0855 16.2162C76.0855 14.1026 74.3711 12.3899 72.2575 12.3899ZM162.726 38.1744L157.095 38.1659C156.53 38.1659 156.012 38.473 155.742 38.9694L138.028 71.5331C137.472 72.5567 138.214 73.8037 139.379 73.8037H139.806C143.579 73.8037 147.051 71.7412 148.854 68.4267L164.075 40.4467C164.632 39.4231 163.891 38.1761 162.726 38.1744ZM173.04 38.183L170.78 38.1795C169.577 38.1795 168.471 38.8346 167.897 39.8906L150.27 72.2974C149.899 72.9763 150.391 73.8037 151.165 73.8037H153.68C154.314 73.8037 154.896 73.4574 155.2 72.9029L173.587 39.1041C173.813 38.6896 173.512 38.1847 173.04 38.183Z" fill="#EFEFEF"/>
<mask id="mask2_43_312" style="mask-type:luminance" maskUnits="userSpaceOnUse" x="0" y="4" width="363" height="191">
<path d="M0 4.77478H362.031V194.823H0V4.77478Z" fill="white"/>
</mask>
<g mask="url(#mask2_43_312)">
<path d="M361.962 149.282C361.962 154.315 357.902 158.406 352.87 158.443L341.696 158.041L333.945 130.864C332.6 126.156 328.298 122.909 323.4 122.909H314.716C309.67 122.909 305.275 126.352 304.071 131.253L297.478 158.039H221.994C223 156.712 223.604 155.062 223.604 153.273V139.252C223.604 134.886 220.053 131.335 215.685 131.335H205.054C200.689 131.335 197.136 134.886 197.136 139.252V153.273C197.136 155.062 197.739 156.712 198.748 158.039H186.1C187.272 124.598 175.07 113.611 164.171 117.181C155.585 119.996 151.288 132.433 149.137 144.323H0.238281V159.603C0.238281 164.34 4.08165 168.182 8.82062 168.182H20.61C22.4831 181.993 29.4278 191.993 38.8392 194.294C40.1919 194.622 41.5993 194.794 43.0493 194.794H52.8207C53.7998 194.794 54.7654 194.717 55.7019 194.559C65.7871 192.916 73.2982 182.634 75.2582 168.182H129.41C131.285 181.993 138.228 191.993 147.639 194.294C148.994 194.622 150.399 194.794 151.851 194.794H161.622C162.602 194.794 163.565 194.717 164.504 194.559C171.254 193.458 176.851 188.484 180.404 180.983C183.72 187.987 188.819 192.79 194.974 194.294C196.329 194.622 197.736 194.794 199.186 194.794H208.957C209.937 194.794 210.902 194.717 211.839 194.559C222.528 192.817 230.329 181.379 231.692 165.55H285.255C286.562 180.712 293.778 191.85 303.776 194.294C305.13 194.62 306.538 194.792 307.988 194.792H317.759C318.738 194.792 319.704 194.715 320.64 194.557C331.329 192.817 339.13 181.379 340.493 165.55H353.156C358.032 165.55 361.983 161.599 361.983 156.725V135.234L361.962 149.282ZM198.444 153.273V139.254C198.444 135.608 201.409 132.643 205.054 132.643H215.685C219.329 132.643 222.296 135.608 222.296 139.254V153.273C222.296 155.146 221.508 156.836 220.252 158.041H200.488C199.23 156.836 198.444 155.146 198.444 153.273ZM126.002 151.079C128.615 151.079 130.732 153.196 130.732 155.808C130.732 158.419 128.615 160.536 126.002 160.536C123.39 160.536 121.273 158.419 121.273 155.808C121.273 153.196 123.392 151.079 126.002 151.079ZM110.661 151.079C113.274 151.079 115.391 153.196 115.391 155.808C115.391 158.419 113.274 160.536 110.661 160.536C108.049 160.536 105.932 158.419 105.932 155.808C105.932 153.196 108.049 151.079 110.661 151.079ZM8.03591 160.536C5.42419 160.536 3.30718 158.419 3.30718 155.808C3.30718 153.196 5.42419 151.079 8.03591 151.079C10.6493 151.079 12.7663 153.196 12.7663 155.808C12.7663 158.419 10.6493 160.536 8.03591 160.536ZM18.6483 155.808C18.6483 153.196 20.7653 151.079 23.3719 151.079C25.9853 151.079 28.1023 153.196 28.1023 155.808C28.1023 158.419 25.9853 160.536 23.3719 160.536C20.767 160.536 18.6483 158.419 18.6483 155.808ZM164.875 182.795C158.832 182.795 153.932 172.829 153.932 160.536C153.932 148.242 158.832 138.276 164.875 138.276C170.919 138.276 175.82 148.242 175.82 160.536C175.82 172.829 170.921 182.795 164.875 182.795ZM321.012 182.795C314.968 182.795 310.069 172.829 310.069 160.536C310.069 148.242 314.968 138.276 321.012 138.276C327.056 138.276 331.957 148.242 331.957 160.536C331.956 172.829 327.058 182.795 321.012 182.795ZM23.4486 123.285V109.574C23.4486 109.213 23.742 108.921 24.102 108.921C24.4636 108.921 24.757 109.213 24.757 109.574V123.285C24.757 123.646 24.4636 123.94 24.102 123.94C23.742 123.94 23.4486 123.646 23.4486 123.285ZM54.4464 79.0203C54.4464 78.6586 54.7398 78.3669 55.1014 78.3669H154.058C166.781 78.3669 177.132 88.7148 177.132 101.434V110.658C183.777 113.696 188.407 120.402 188.407 128.17V130.738C188.407 131.099 188.113 131.391 187.751 131.391C187.39 131.391 187.096 131.099 187.096 130.738V128.17C187.096 118.278 179.046 110.228 169.15 110.228H145.851C136.503 110.228 128.11 115.791 124.468 124.399C124.362 124.649 124.12 124.8 123.866 124.8C123.781 124.8 123.694 124.782 123.612 124.747C123.277 124.607 123.122 124.221 123.264 123.889C127.11 114.795 135.978 108.919 145.853 108.919H169.15C171.496 108.919 173.743 109.341 175.822 110.112V101.432C175.822 89.4347 166.059 79.6736 154.058 79.6736H55.1014C54.7398 79.6736 54.4464 79.3819 54.4464 79.0203ZM31.6369 119.344C31.6369 123.769 35.2278 127.355 39.6563 127.355H88.1275C92.5543 127.355 96.1469 123.769 96.1469 119.344V103.814C96.1469 99.3886 92.5543 95.7977 88.1275 95.7977H39.6563C35.2278 95.7977 31.6369 99.3886 31.6369 103.814V119.344ZM89.5809 124.15H38.2029C37.8412 124.15 37.5478 123.856 37.5478 123.496C37.5478 123.135 37.8412 122.841 38.2029 122.841H89.5792C89.9408 122.841 90.2342 123.133 90.2342 123.496C90.2342 123.856 89.9408 124.15 89.5809 124.15ZM89.5809 118.189H38.2029C37.8412 118.189 37.5478 117.898 37.5478 117.536C37.5478 117.174 37.8412 116.881 38.2029 116.881H89.5792C89.9408 116.881 90.2342 117.174 90.2342 117.536C90.2342 117.898 89.9408 118.189 89.5809 118.189ZM89.5809 112.231H38.2029C37.8412 112.231 37.5478 111.937 37.5478 111.575C37.5478 111.216 37.8412 110.922 38.2029 110.922H89.5792C89.9408 110.922 90.2342 111.216 90.2342 111.575C90.2342 111.937 89.9408 112.231 89.5809 112.231ZM38.2029 99.0031H89.5792C89.9408 99.0031 90.2342 99.2965 90.2342 99.6581C90.2342 100.02 89.9408 100.311 89.5792 100.311H38.2029C37.8412 100.311 37.5478 100.02 37.5478 99.6581C37.5495 99.2965 37.8412 99.0031 38.2029 99.0031ZM38.2029 104.962H89.5792C89.9408 104.962 90.2342 105.255 90.2342 105.617C90.2342 105.978 89.9408 106.272 89.5792 106.272H38.2029C37.8412 106.272 37.5478 105.978 37.5478 105.617C37.5495 105.255 37.8412 104.962 38.2029 104.962ZM180.217 70.1684V41.8012C180.217 38.4798 177.523 35.7913 174.202 35.7913H63.9123C60.591 35.7913 57.9008 38.4798 57.9008 41.8012V70.1684C57.9008 73.4847 60.591 76.1783 63.9123 76.1783H174.202C177.523 76.1783 180.217 73.4847 180.217 70.1684ZM139.806 73.8037H139.381C138.214 73.8037 137.472 72.5566 138.03 71.5314L155.744 38.9677C156.013 38.473 156.532 38.1642 157.097 38.1659L162.728 38.1744C163.893 38.1744 164.632 39.4214 164.075 40.445L148.855 68.425C147.051 71.7395 143.579 73.8037 139.806 73.8037ZM173.587 39.1058L155.2 72.9029C154.896 73.4591 154.314 73.8054 153.68 73.8054H151.165C150.391 73.8054 149.899 72.978 150.27 72.2974L167.897 39.8906C168.471 38.8363 169.577 38.1795 170.78 38.1813L173.038 38.1847C173.512 38.1847 173.813 38.6896 173.587 39.1058ZM199.401 51.2262V69.933C199.401 71.5911 200.747 72.9337 202.403 72.9337H204.239C203.818 73.8071 202.93 74.4161 201.897 74.4161H196.907C196.849 74.4161 196.796 74.4024 196.74 74.399V46.7585C196.796 46.7551 196.849 46.7414 196.907 46.7414H201.897C202.93 46.7414 203.818 47.3504 204.239 48.2238H202.403C200.745 48.2238 199.401 49.5681 199.401 51.2262ZM196.74 45.3187V43.0789C196.74 39.8496 199.358 37.2311 202.589 37.2311H209.708C212.939 37.2311 215.557 39.8479 215.557 43.0789V75.8234C215.557 79.0527 212.939 81.6712 209.708 81.6712H202.589C199.363 81.6712 196.75 79.0612 196.74 75.8388C196.796 75.8422 196.849 75.8558 196.905 75.8558H201.897C203.736 75.8558 205.274 74.6174 205.767 72.9354H207.562C209.22 72.9354 210.564 71.5911 210.564 69.933V51.2262C210.564 49.5681 209.22 48.2238 207.562 48.2238H205.767C205.274 46.5418 203.736 45.3033 201.897 45.3033H196.905C196.849 45.3033 196.796 45.317 196.74 45.3187ZM232.944 77.8296C236.175 77.8296 238.795 75.2127 238.795 71.9818V39.2389C238.795 36.0097 236.175 33.3911 232.944 33.3911H225.825C222.594 33.3911 219.976 36.0097 219.976 39.2406V71.9835C219.976 75.2127 222.594 77.8313 225.825 77.8313L232.944 77.8296ZM222.185 41.8762C222.185 39.7592 223.004 38.038 224.008 38.038C224.008 38.038 225.772 38.1284 227.959 38.2904C228.254 38.3126 228.345 39.1485 228.08 39.4231C226.91 40.6343 225.071 42.5466 224.29 43.6196C223.788 44.3088 223.318 45.0679 222.866 45.868C222.596 46.3473 222.185 45.9413 222.185 45.1993V41.8762ZM222.185 58.9044C222.185 54.4111 223.167 50.0969 224.918 47.5193C225.129 47.2088 225.344 46.9086 225.564 46.622C226.617 45.2539 227.755 44.2337 228.867 43.1045C229.698 42.26 231.151 40.5985 232.004 39.5818C232.471 39.0274 233.002 38.7681 233.536 38.8431C233.539 38.8431 233.541 38.8431 233.544 38.8448C234.46 38.9728 234.769 41.4617 234.003 42.5262C230.334 47.6353 226.879 53.437 224.106 60.3578C223.449 61.9955 222.185 61.0487 222.185 58.9044ZM256.18 77.8296C259.411 77.8296 262.029 75.2127 262.029 71.9818V39.2389C262.029 36.0097 259.411 33.3911 256.18 33.3911H249.061C245.83 33.3911 243.212 36.0097 243.212 39.2406V71.9835C243.212 75.2127 245.83 77.8313 249.061 77.8313L256.18 77.8296ZM245.419 41.8762C245.419 39.7592 246.238 38.038 247.244 38.038C247.244 38.038 249.008 38.1284 251.195 38.2904C251.49 38.3126 251.581 39.1485 251.315 39.4231C250.146 40.6343 248.307 42.5466 247.524 43.6196C247.023 44.3088 246.552 45.0679 246.1 45.868C245.83 46.3473 245.419 45.9413 245.419 45.1993V41.8762ZM245.419 58.9044C245.419 54.4111 246.403 50.0969 248.152 47.5193C248.363 47.2088 248.578 46.9086 248.798 46.622C249.851 45.2539 250.989 44.2337 252.101 43.1045C252.934 42.26 254.385 40.5985 255.238 39.5818C255.706 39.0274 256.236 38.7681 256.77 38.8431C256.773 38.8431 256.777 38.8431 256.779 38.8448C257.695 38.9728 258.003 41.4617 257.238 42.5262C253.568 47.6353 250.114 53.437 247.34 60.3578C246.683 61.9955 245.419 61.0487 245.419 58.9044ZM279.416 77.8296C282.647 77.8296 285.265 75.2127 285.265 71.9818V39.2389C285.265 36.0097 282.647 33.3911 279.416 33.3911H272.297C269.066 33.3911 266.448 36.0097 266.448 39.2406V71.9835C266.448 75.2127 269.066 77.8313 272.297 77.8313L279.416 77.8296ZM268.655 41.8762C268.655 39.7592 269.474 38.038 270.48 38.038C270.48 38.038 272.244 38.1284 274.431 38.2904C274.726 38.3126 274.817 39.1485 274.552 39.4231C273.382 40.6343 271.543 42.5466 270.762 43.6196C270.259 44.3088 269.788 45.0679 269.337 45.868C269.066 46.3473 268.655 45.9413 268.655 45.1993V41.8762ZM268.655 58.9044C268.655 54.4111 269.639 50.0969 271.39 47.5193C271.601 47.2088 271.816 46.9086 272.036 46.622C273.089 45.2539 274.225 44.2337 275.337 43.1045C276.169 42.26 277.621 40.5985 278.476 39.5818C278.942 39.0274 279.474 38.7681 280.008 38.8431C280.011 38.8431 280.013 38.8431 280.016 38.8448C280.931 38.9728 281.239 41.4617 280.475 42.5262C276.806 47.6353 273.351 53.437 270.576 60.3578C269.919 61.9955 268.655 61.0487 268.655 58.9044ZM302.652 77.8296C305.883 77.8296 308.501 75.2127 308.501 71.9818V39.2389C308.501 36.0097 305.883 33.3911 302.652 33.3911H295.533C292.302 33.3911 289.684 36.0097 289.684 39.2406V71.9835C289.684 75.2127 292.302 77.8313 295.533 77.8313L302.652 77.8296ZM291.891 41.8762C291.891 39.7592 292.71 38.038 293.715 38.038C293.715 38.038 295.478 38.1284 297.667 38.2904C297.962 38.3126 298.053 39.1485 297.787 39.4231C296.618 40.6343 294.779 42.5466 293.996 43.6196C293.495 44.3088 293.024 45.0679 292.572 45.868C292.302 46.3473 291.891 45.9413 291.891 45.1993V41.8762ZM291.891 58.9044C291.891 54.4111 292.875 50.0969 294.624 47.5193C294.835 47.2088 295.05 46.9086 295.27 46.622C296.325 45.2539 297.461 44.2337 298.573 43.1045C299.405 42.26 300.857 40.5985 301.712 39.5818C302.177 39.0274 302.708 38.7681 303.242 38.8431C303.245 38.8431 303.247 38.8431 303.25 38.8448C304.167 38.9728 304.475 41.4617 303.709 42.5262C300.04 47.6353 296.586 53.437 293.812 60.3578C293.157 61.9955 291.891 61.0487 291.891 58.9044ZM325.888 77.8296C329.119 77.8296 331.737 75.2127 331.737 71.9818V39.2389C331.737 36.0097 329.119 33.3911 325.888 33.3911H318.769C315.538 33.3911 312.919 36.0097 312.919 39.2406V71.9835C312.919 75.2127 315.54 77.8313 318.769 77.8313L325.888 77.8296ZM315.127 41.8762C315.127 39.7592 315.947 38.038 316.952 38.038C316.952 38.038 318.716 38.1284 320.903 38.2904C321.198 38.3126 321.289 39.1485 321.024 39.4231C319.856 40.6343 318.017 42.5466 317.234 43.6196C316.732 44.3088 316.261 45.0679 315.809 45.868C315.54 46.3473 315.129 45.9413 315.129 45.1993V41.8762H315.127ZM315.127 58.9044C315.127 54.4111 316.111 50.0969 317.861 47.5193C318.071 47.2088 318.288 46.9086 318.508 46.622C319.561 45.2539 320.697 44.2337 321.809 43.1045C322.641 42.26 324.095 40.5985 324.948 39.5818C325.413 39.0274 325.944 38.7681 326.48 38.8431C326.481 38.8431 326.485 38.8431 326.486 38.8448C327.402 38.9728 327.711 41.4617 326.945 42.5262C323.276 47.6353 319.823 53.437 317.048 60.3578C316.391 61.9955 315.127 61.0487 315.127 58.9044ZM336.154 39.2389V71.9835C336.154 75.2127 338.774 77.8313 342.005 77.8313H349.124C352.355 77.8313 354.973 75.2127 354.973 71.9835V39.2389C354.973 36.0097 352.355 33.3911 349.124 33.3911H342.005C338.774 33.3911 336.154 36.0097 336.154 39.2389ZM348.184 39.5818C348.649 39.0274 349.18 38.7681 349.714 38.8431C349.717 38.8448 349.719 38.8448 349.722 38.8448C350.638 38.9728 350.947 41.4617 350.181 42.5279C346.512 47.6353 343.059 53.437 340.284 60.3578C339.627 61.9955 338.363 61.0487 338.363 58.9061C338.363 54.4128 339.347 50.0969 341.096 47.521C341.307 47.2105 341.524 46.9103 341.744 46.6237C342.796 45.2556 343.933 44.2355 345.045 43.1062C345.877 42.26 347.329 40.5985 348.184 39.5818ZM344.26 39.4231C343.09 40.6343 341.251 42.5466 340.47 43.6196C339.966 44.3088 339.496 45.0679 339.045 45.868C338.774 46.3473 338.363 45.9413 338.363 45.1993V41.8762C338.363 39.7592 339.182 38.038 340.188 38.038C340.188 38.038 341.952 38.1284 344.139 38.2904C344.434 38.3126 344.525 39.1485 344.26 39.4231ZM154.683 24.6382H186.085C185.305 19.3533 182.711 14.4472 178.702 10.8205C174.432 6.93957 168.895 4.80038 163.11 4.80038H154.683V24.6382ZM174.058 12.3899C176.172 12.3899 177.886 14.1043 177.886 16.2162C177.886 18.3315 176.172 20.0442 174.058 20.0442C171.945 20.0442 170.23 18.3298 170.23 16.2162C170.23 14.1026 171.945 12.3899 174.058 12.3899ZM161.643 12.3899C163.756 12.3899 165.471 14.1043 165.471 16.2162C165.471 18.3315 163.756 20.0442 161.643 20.0442C159.529 20.0442 157.815 18.3298 157.815 16.2162C157.815 14.1026 159.529 12.3899 161.643 12.3899ZM91.5512 4.80038H83.1292C71.4712 4.80038 61.7919 13.4322 60.1492 24.6382H91.5512V4.80038ZM72.2576 20.0425C70.1423 20.0425 68.4296 18.3298 68.4296 16.2162C68.4296 14.1026 70.1423 12.3899 72.2576 12.3899C74.3712 12.3899 76.0856 14.1026 76.0856 16.2162C76.0856 18.3298 74.3712 20.0425 72.2576 20.0425ZM84.673 20.0425C82.5594 20.0425 80.845 18.3298 80.845 16.2162C80.845 14.1026 82.5594 12.3899 84.673 12.3899C86.7866 12.3899 88.5011 14.1026 88.5011 16.2162C88.5011 18.3298 86.7866 20.0425 84.673 20.0425ZM93.9036 24.6996C93.9036 24.3397 94.197 24.0462 94.557 24.0462H151.677C152.039 24.0462 152.332 24.3397 152.332 24.6996C152.332 25.0612 152.039 25.3547 151.677 25.3547H94.557C94.197 25.3547 93.9036 25.063 93.9036 24.6996ZM93.9036 19.9265C93.9036 19.5649 94.197 19.2715 94.557 19.2715H151.677C152.039 19.2715 152.332 19.5649 152.332 19.9265C152.332 20.2882 152.039 20.5816 151.677 20.5816H94.557C94.197 20.5799 93.9036 20.2882 93.9036 19.9265ZM93.9036 15.1517C93.9036 14.7901 94.197 14.4967 94.557 14.4967H151.677C152.039 14.4967 152.332 14.7901 152.332 15.1517C152.332 15.5134 152.039 15.8068 151.677 15.8068H94.557C94.197 15.8068 93.9036 15.5134 93.9036 15.1517ZM93.9036 10.3769C93.9036 10.0153 94.197 9.72358 94.557 9.72358H151.677C152.039 9.72358 152.332 10.0153 152.332 10.3769C152.332 10.7386 152.039 11.032 151.677 11.032H94.557C94.197 11.032 93.9036 10.7386 93.9036 10.3769ZM152.332 5.60386C152.332 5.96551 152.039 6.25722 151.677 6.25722H94.557C94.197 6.25722 93.9036 5.96551 93.9036 5.60386C93.9036 5.24221 94.197 4.9488 94.557 4.9488H151.677C152.039 4.9488 152.332 5.24221 152.332 5.60386ZM334.714 10.2132C334.895 9.901 335.294 9.79182 335.608 9.97264C341.93 13.6079 346.389 19.7696 347.846 26.8797C347.918 27.2328 347.689 27.5791 347.336 27.6525C347.291 27.661 347.247 27.6644 347.204 27.6644C346.899 27.6644 346.626 27.4512 346.563 27.1424C345.183 20.399 340.952 14.5547 334.956 11.1071C334.642 10.9279 334.535 10.5271 334.714 10.2132ZM202.407 20.0425C202.407 18.572 203.599 17.3813 205.07 17.3813H335.702C337.172 17.3813 338.365 18.572 338.365 20.0425C338.365 21.513 337.172 22.7054 335.702 22.7054H205.07C203.599 22.7054 202.407 21.513 202.407 20.0425ZM354.753 87.4934C356.224 87.4934 357.416 88.6841 357.416 90.1546C357.416 91.6251 356.224 92.8175 354.753 92.8175H200.452C198.981 92.8175 197.789 91.6251 197.789 90.1546C197.789 88.6841 198.981 87.4934 200.452 87.4934H354.753ZM197.789 112.831C197.789 111.361 198.981 110.168 200.452 110.168H354.753C356.224 110.168 357.416 111.361 357.416 112.831C357.416 114.3 356.224 115.492 354.753 115.492H200.452C198.981 115.492 197.789 114.3 197.789 112.831ZM295.572 151.079C295.572 151.44 295.279 151.734 294.917 151.734H227.209C226.847 151.734 226.554 151.44 226.554 151.079C226.554 150.717 226.847 150.424 227.209 150.424H294.917C295.279 150.424 295.572 150.717 295.572 151.079ZM335.836 119.504C335.836 119.866 335.543 120.16 335.181 120.16H305.716C300.958 120.16 296.841 123.385 295.705 128.005L290.975 147.223C290.902 147.522 290.634 147.722 290.34 147.722C290.289 147.722 290.236 147.715 290.183 147.701C289.832 147.616 289.617 147.261 289.704 146.91L294.434 127.691C295.714 122.486 300.354 118.849 305.716 118.849H335.181C335.543 118.849 335.836 119.143 335.836 119.504ZM338.564 135.9C338.202 135.9 337.909 135.608 337.909 135.246C337.909 134.885 338.202 134.591 338.564 134.591H358.23C358.591 134.591 358.885 134.885 358.885 135.246C358.885 135.608 358.591 135.9 358.23 135.9H338.564ZM124.719 101.081C124.719 95.1614 128.955 90.1393 134.792 89.143L164.845 84.0083C165.203 83.9469 165.539 84.1874 165.6 84.5422C165.66 84.8988 165.421 85.2382 165.065 85.2979L135.012 90.4327C129.806 91.3232 126.027 95.8011 126.027 101.081V112.831C126.027 113.191 125.734 113.484 125.372 113.484C125.011 113.484 124.717 113.191 124.717 112.831V101.081H124.719ZM62.0086 93.5408C63.8424 90.2194 66.6077 87.5702 70.0041 85.8797L78.1736 81.8145C78.496 81.6542 78.8901 81.7838 79.0521 82.1079C79.2125 82.4303 79.0811 82.8244 78.757 82.9848L70.5875 87.0516C67.4299 88.6227 64.8608 91.086 63.1549 94.1737C63.0355 94.3886 62.812 94.5115 62.5818 94.5115C62.4743 94.5115 62.3651 94.4842 62.2662 94.4296C61.9489 94.2539 61.8329 93.8564 62.0086 93.5408ZM99.6354 95.7994C99.6354 95.4378 99.9288 95.1443 100.29 95.1443H107.711C112.907 95.1443 117.134 99.3715 117.134 104.564V105.943C117.134 106.304 116.841 106.598 116.479 106.598C116.118 106.598 115.824 106.304 115.824 105.943V104.564C115.824 100.091 112.186 96.4528 107.711 96.4528H100.289C99.9288 96.4528 99.6354 96.1611 99.6354 95.7994ZM26.5312 104.564V105.943C26.5312 106.304 26.2378 106.598 25.8778 106.598C25.5162 106.598 25.2228 106.304 25.2228 105.943V104.564C25.2228 100.209 28.1739 96.4459 32.4011 95.4139C32.7543 95.3269 33.1057 95.5418 33.191 95.8932C33.278 96.2446 33.063 96.5995 32.7116 96.6848C29.0729 97.5735 26.5312 100.815 26.5312 104.564ZM97.9705 133.807C97.9705 134.168 97.677 134.462 97.3154 134.462H30.6765C30.3148 134.462 30.0214 134.168 30.0214 133.807C30.0214 133.445 30.3148 133.153 30.6765 133.153H97.3154C97.677 133.152 97.9705 133.445 97.9705 133.807ZM97.9705 137.879C97.9705 138.239 97.677 138.532 97.3154 138.532H30.6765C30.3148 138.532 30.0214 138.239 30.0214 137.879C30.0214 137.517 30.3148 137.224 30.6765 137.224H97.3154C97.677 137.224 97.9705 137.517 97.9705 137.879Z" fill="black"/>
</g>
</svg>
