<svg width="62" height="62" viewBox="0 0 62 62" fill="none" xmlns="http://www.w3.org/2000/svg">
<circle cx="31" cy="31" r="28" fill="#013FF6" stroke="white" strokeWidth="6"/>
<path d="M25.0281 41V38.96L29.9241 33.728C30.8841 32.704 31.6361 31.88 32.1801 31.256C32.7401 30.616 33.1401 30.056 33.3801 29.576C33.6361 29.096 33.7641 28.592 33.7641 28.064C33.7641 27.2 33.5001 26.536 32.9721 26.072C32.4441 25.592 31.7641 25.352 30.9321 25.352C30.0681 25.352 29.3241 25.6 28.7001 26.096C28.0761 26.576 27.6441 27.28 27.4041 28.208L24.9081 27.488C25.1001 26.544 25.4841 25.728 26.0601 25.04C26.6361 24.336 27.3401 23.792 28.1721 23.408C29.0201 23.024 29.9321 22.832 30.9081 22.832C32.0441 22.832 33.0361 23.048 33.8841 23.48C34.7321 23.896 35.3881 24.48 35.8521 25.232C36.3321 25.984 36.5721 26.856 36.5721 27.848C36.5721 28.504 36.4441 29.144 36.1881 29.768C35.9481 30.376 35.5721 31.024 35.0601 31.712C34.5481 32.384 33.8921 33.144 33.0921 33.992L28.7721 38.6H36.9081V41H25.0281Z" fill="white"/>
</svg>
