<svg width="200" height="201" viewBox="0 0 200 201" fill="none" xmlns="http://www.w3.org/2000/svg">
<g clip-path="url(#clip0_27_493)">
<rect y="0.86084" width="200" height="200" rx="16" fill="#D1D7DD"/>
<path d="M32 44.8608C32 38.2334 37.3726 32.8608 44 32.8608H200V200.861H32V44.8608Z" fill="#161A23"/>
<path d="M61.112 70.0048C60.48 70.0048 59.896 69.8928 59.36 69.6688C58.832 69.4368 58.368 69.1128 57.968 68.6968C57.576 68.2808 57.272 67.7928 57.056 67.2328C56.84 66.6728 56.732 66.0608 56.732 65.3968C56.732 64.7248 56.84 64.1088 57.056 63.5488C57.272 62.9888 57.576 62.5008 57.968 62.0848C58.36 61.6688 58.824 61.3488 59.36 61.1248C59.896 60.8928 60.48 60.7768 61.112 60.7768C61.728 60.7768 62.28 60.8848 62.768 61.1008C63.264 61.3168 63.68 61.5968 64.016 61.9408C64.36 62.2848 64.604 62.6528 64.748 63.0448L63.668 63.5368C63.46 63.0408 63.136 62.6408 62.696 62.3368C62.256 62.0248 61.728 61.8688 61.112 61.8688C60.488 61.8688 59.932 62.0168 59.444 62.3128C58.964 62.6088 58.588 63.0208 58.316 63.5488C58.044 64.0768 57.908 64.6928 57.908 65.3968C57.908 66.0928 58.044 66.7048 58.316 67.2328C58.588 67.7608 58.964 68.1728 59.444 68.4688C59.932 68.7648 60.488 68.9128 61.112 68.9128C61.728 68.9128 62.256 68.7608 62.696 68.4568C63.136 68.1448 63.46 67.7408 63.668 67.2448L64.748 67.7368C64.604 68.1288 64.36 68.4968 64.016 68.8408C63.68 69.1848 63.264 69.4648 62.768 69.6808C62.28 69.8968 61.728 70.0048 61.112 70.0048ZM66.1076 69.8608V60.9208H69.2636C69.8556 60.9208 70.3756 61.0328 70.8236 61.2568C71.2716 61.4808 71.6196 61.8008 71.8676 62.2168C72.1236 62.6328 72.2516 63.1208 72.2516 63.6808C72.2516 64.2408 72.1236 64.7288 71.8676 65.1448C71.6196 65.5528 71.2716 65.8728 70.8236 66.1048C70.3836 66.3288 69.8636 66.4408 69.2636 66.4408H67.2836V69.8608H66.1076ZM67.2836 65.3608H69.2996C69.6596 65.3608 69.9716 65.2928 70.2356 65.1568C70.4996 65.0208 70.7036 64.8248 70.8476 64.5688C70.9916 64.3128 71.0636 64.0168 71.0636 63.6808C71.0636 63.3368 70.9916 63.0408 70.8476 62.7928C70.7036 62.5368 70.4996 62.3408 70.2356 62.2048C69.9716 62.0688 69.6596 62.0008 69.2996 62.0008H67.2836V65.3608ZM73.6019 69.8608V60.9208H79.2659V62.0008H74.7779V64.8928H78.8459V65.9728H74.7779V69.8608H73.6019Z" fill="white"/>
<rect x="56" y="78.8608" width="144" height="30" rx="2" fill="#D1D7DD"/>
<path d="M71.864 97.144C71.232 97.144 70.676 96.996 70.196 96.7C69.716 96.404 69.34 96.004 69.068 95.5C68.796 94.988 68.66 94.412 68.66 93.772C68.66 93.132 68.796 92.56 69.068 92.056C69.34 91.552 69.716 91.156 70.196 90.868C70.676 90.572 71.232 90.424 71.864 90.424C72.264 90.424 72.64 90.496 72.992 90.64C73.344 90.784 73.656 90.98 73.928 91.228C74.2 91.468 74.404 91.748 74.54 92.068L73.724 92.488C73.564 92.144 73.32 91.864 72.992 91.648C72.664 91.432 72.288 91.324 71.864 91.324C71.44 91.324 71.056 91.432 70.712 91.648C70.376 91.856 70.108 92.148 69.908 92.524C69.716 92.892 69.62 93.312 69.62 93.784C69.62 94.248 69.716 94.668 69.908 95.044C70.108 95.412 70.376 95.704 70.712 95.92C71.056 96.136 71.44 96.244 71.864 96.244C72.288 96.244 72.66 96.136 72.98 95.92C73.308 95.704 73.556 95.416 73.724 95.056L74.54 95.5C74.404 95.812 74.2 96.092 73.928 96.34C73.656 96.588 73.344 96.784 72.992 96.928C72.64 97.072 72.264 97.144 71.864 97.144ZM75.9993 99.4V90.568H76.8993V92.008L76.7553 91.756C77.0113 91.348 77.3513 91.024 77.7753 90.784C78.2073 90.544 78.6993 90.424 79.2513 90.424C79.8593 90.424 80.3993 90.572 80.8713 90.868C81.3513 91.156 81.7273 91.552 81.9993 92.056C82.2793 92.56 82.4193 93.136 82.4193 93.784C82.4193 94.424 82.2793 95 81.9993 95.512C81.7273 96.016 81.3513 96.416 80.8713 96.712C80.3993 97 79.8593 97.144 79.2513 97.144C78.6993 97.144 78.1993 97.02 77.7513 96.772C77.3113 96.516 76.9793 96.156 76.7553 95.692L76.8993 95.56V99.4H75.9993ZM79.2033 96.244C79.6353 96.244 80.0193 96.136 80.3553 95.92C80.6993 95.704 80.9673 95.412 81.1593 95.044C81.3593 94.668 81.4593 94.248 81.4593 93.784C81.4593 93.312 81.3593 92.892 81.1593 92.524C80.9673 92.156 80.6993 91.864 80.3553 91.648C80.0193 91.432 79.6353 91.324 79.2033 91.324C78.7713 91.324 78.3793 91.432 78.0273 91.648C77.6833 91.864 77.4073 92.16 77.1993 92.536C76.9993 92.904 76.8993 93.32 76.8993 93.784C76.8993 94.248 76.9993 94.668 77.1993 95.044C77.4073 95.412 77.6833 95.704 78.0273 95.92C78.3793 96.136 78.7713 96.244 79.2033 96.244ZM84.3088 97V91.468H83.0248V90.568H84.3088V89.992C84.3088 89.544 84.4088 89.168 84.6088 88.864C84.8088 88.552 85.0728 88.316 85.4008 88.156C85.7288 87.996 86.0808 87.916 86.4568 87.916C86.5368 87.916 86.6288 87.924 86.7328 87.94C86.8368 87.948 86.9208 87.96 86.9848 87.976V88.792C86.9288 88.776 86.8528 88.768 86.7568 88.768C86.6608 88.76 86.5928 88.756 86.5528 88.756C86.1688 88.756 85.8488 88.848 85.5928 89.032C85.3368 89.216 85.2088 89.536 85.2088 89.992V90.568H86.7808V91.468H85.2088V97H84.3088Z" fill="#2D2F39"/>
<path d="M60.068 138.005C59.5 138.005 58.98 137.901 58.508 137.693C58.036 137.477 57.636 137.185 57.308 136.817C56.98 136.449 56.744 136.037 56.6 135.581L57.62 135.161C57.836 135.737 58.156 136.181 58.58 136.493C59.012 136.797 59.516 136.949 60.092 136.949C60.444 136.949 60.752 136.893 61.016 136.781C61.28 136.669 61.484 136.513 61.628 136.313C61.78 136.105 61.856 135.865 61.856 135.593C61.856 135.217 61.748 134.921 61.532 134.705C61.324 134.481 61.016 134.313 60.608 134.201L58.964 133.697C58.316 133.497 57.82 133.181 57.476 132.749C57.132 132.317 56.96 131.821 56.96 131.261C56.96 130.773 57.076 130.345 57.308 129.977C57.548 129.601 57.876 129.309 58.292 129.101C58.716 128.885 59.196 128.777 59.732 128.777C60.268 128.777 60.752 128.873 61.184 129.065C61.624 129.257 61.996 129.517 62.3 129.845C62.604 130.165 62.828 130.533 62.972 130.949L61.964 131.369C61.772 130.865 61.484 130.485 61.1 130.229C60.716 129.965 60.264 129.833 59.744 129.833C59.424 129.833 59.14 129.889 58.892 130.001C58.652 130.105 58.464 130.261 58.328 130.469C58.2 130.669 58.136 130.909 58.136 131.189C58.136 131.517 58.24 131.809 58.448 132.065C58.656 132.321 58.972 132.517 59.396 132.653L60.896 133.097C61.6 133.313 62.132 133.621 62.492 134.021C62.852 134.421 63.032 134.917 63.032 135.509C63.032 135.997 62.904 136.429 62.648 136.805C62.4 137.181 62.052 137.477 61.604 137.693C61.164 137.901 60.652 138.005 60.068 138.005ZM67.3578 138.005C66.7338 138.005 66.1778 137.857 65.6898 137.561C65.2018 137.265 64.8178 136.861 64.5378 136.349C64.2578 135.829 64.1178 135.249 64.1178 134.609C64.1178 133.961 64.2538 133.385 64.5258 132.881C64.8058 132.377 65.1818 131.981 65.6538 131.693C66.1338 131.397 66.6698 131.249 67.2618 131.249C67.7418 131.249 68.1658 131.337 68.5338 131.513C68.9098 131.681 69.2258 131.913 69.4818 132.209C69.7458 132.497 69.9458 132.829 70.0818 133.205C70.2258 133.573 70.2978 133.957 70.2978 134.357C70.2978 134.445 70.2898 134.545 70.2738 134.657C70.2658 134.761 70.2538 134.861 70.2378 134.957H64.9338V133.997H69.5898L69.0618 134.429C69.1338 134.013 69.0938 133.641 68.9418 133.313C68.7898 132.985 68.5658 132.725 68.2698 132.533C67.9738 132.341 67.6378 132.245 67.2618 132.245C66.8858 132.245 66.5418 132.341 66.2298 132.533C65.9178 132.725 65.6738 133.001 65.4978 133.361C65.3298 133.713 65.2618 134.133 65.2938 134.621C65.2618 135.093 65.3338 135.509 65.5098 135.869C65.6938 136.221 65.9498 136.497 66.2778 136.697C66.6138 136.889 66.9778 136.985 67.3698 136.985C67.8018 136.985 68.1658 136.885 68.4618 136.685C68.7578 136.485 68.9978 136.229 69.1818 135.917L70.1178 136.397C69.9898 136.693 69.7898 136.965 69.5178 137.213C69.2538 137.453 68.9378 137.645 68.5698 137.789C68.2098 137.933 67.8058 138.005 67.3578 138.005ZM71.5129 137.861V131.393H72.6049V132.653L72.4249 132.545C72.5849 132.137 72.8409 131.821 73.1929 131.597C73.5529 131.365 73.9729 131.249 74.4529 131.249C74.9169 131.249 75.3289 131.353 75.6889 131.561C76.0569 131.769 76.3449 132.057 76.5529 132.425C76.7689 132.793 76.8769 133.209 76.8769 133.673V137.861H75.7489V134.033C75.7489 133.673 75.6849 133.369 75.5569 133.121C75.4289 132.873 75.2449 132.681 75.0049 132.545C74.7729 132.401 74.5049 132.329 74.2009 132.329C73.8969 132.329 73.6249 132.401 73.3849 132.545C73.1529 132.681 72.9689 132.877 72.8329 133.133C72.6969 133.381 72.6289 133.681 72.6289 134.033V137.861H71.5129ZM78.2338 137.861V128.777H79.3498V132.653L79.1458 132.545C79.3058 132.137 79.5618 131.821 79.9138 131.597C80.2738 131.365 80.6938 131.249 81.1738 131.249C81.6378 131.249 82.0498 131.353 82.4098 131.561C82.7778 131.769 83.0658 132.057 83.2738 132.425C83.4898 132.793 83.5978 133.209 83.5978 133.673V137.861H82.4698V134.033C82.4698 133.673 82.4018 133.369 82.2658 133.121C82.1378 132.873 81.9578 132.681 81.7258 132.545C81.4938 132.401 81.2258 132.329 80.9218 132.329C80.6258 132.329 80.3578 132.401 80.1178 132.545C79.8778 132.681 79.6898 132.877 79.5538 133.133C79.4178 133.381 79.3498 133.681 79.3498 134.033V137.861H78.2338ZM86.8508 138.005C86.4268 138.005 86.0508 137.929 85.7228 137.777C85.4028 137.617 85.1508 137.401 84.9668 137.129C84.7828 136.849 84.6908 136.529 84.6908 136.169C84.6908 135.825 84.7628 135.517 84.9068 135.245C85.0588 134.965 85.2908 134.729 85.6028 134.537C85.9228 134.345 86.3228 134.209 86.8028 134.129L89.2028 133.733V134.669L87.0548 135.029C86.6388 135.101 86.3348 135.233 86.1428 135.425C85.9588 135.617 85.8668 135.853 85.8668 136.133C85.8668 136.397 85.9708 136.617 86.1788 136.793C86.3948 136.969 86.6628 137.057 86.9828 137.057C87.3908 137.057 87.7428 136.973 88.0388 136.805C88.3428 136.629 88.5788 136.393 88.7468 136.097C88.9228 135.801 89.0108 135.473 89.0108 135.113V133.469C89.0108 133.117 88.8788 132.833 88.6148 132.617C88.3588 132.393 88.0188 132.281 87.5948 132.281C87.2268 132.281 86.8988 132.377 86.6108 132.569C86.3308 132.753 86.1228 133.001 85.9868 133.313L85.0148 132.809C85.1348 132.513 85.3268 132.249 85.5908 132.017C85.8548 131.777 86.1628 131.589 86.5148 131.453C86.8668 131.317 87.2348 131.249 87.6188 131.249C88.1148 131.249 88.5508 131.345 88.9268 131.537C89.3028 131.721 89.5948 131.981 89.8028 132.317C90.0188 132.645 90.1268 133.029 90.1268 133.469V137.861H89.0348V136.637L89.2388 136.709C89.1028 136.965 88.9188 137.189 88.6868 137.381C88.4548 137.573 88.1828 137.725 87.8708 137.837C87.5588 137.949 87.2188 138.005 86.8508 138.005Z" fill="white"/>
<rect x="56" y="146.861" width="144" height="30" rx="2" fill="#D1D7DD"/>
<circle cx="70.5" cy="162.361" r="2.5" fill="#2D2F39"/>
<circle cx="81.5" cy="162.361" r="2.5" fill="#2D2F39"/>
<circle cx="92.5" cy="162.361" r="2.5" fill="#2D2F39"/>
<circle cx="103.5" cy="162.361" r="2.5" fill="#2D2F39"/>
<circle cx="114.5" cy="162.361" r="2.5" fill="#2D2F39"/>
<circle cx="125.5" cy="162.361" r="2.5" fill="#2D2F39"/>
<circle cx="136.5" cy="162.361" r="2.5" fill="#2D2F39"/>
<circle cx="147.5" cy="162.361" r="2.5" fill="#2D2F39"/>
<circle cx="158.5" cy="162.361" r="2.5" fill="#2D2F39"/>
</g>
<defs>
<clipPath id="clip0_27_493">
<rect y="0.86084" width="200" height="200" rx="16" fill="white"/>
</clipPath>
</defs>
</svg>
