<svg width="20" height="20" viewBox="0 0 20 20" fill="none" xmlns="http://www.w3.org/2000/svg">
<mask id="mask0_94_753" style="mask-type:luminance" maskUnits="userSpaceOnUse" x="0" y="0" width="20" height="20">
<path d="M0 0H20V20H0V0Z" fill="white"/>
</mask>
<g mask="url(#mask0_94_753)">
<path d="M9.98939 0.00386047C6.67896 0.00386047 3.99565 2.44467 3.99565 5.45623C3.99565 8.476 7.59842 12.8224 9.21663 14.6236C9.6172 15.0689 10.3595 15.0689 10.76 14.6236C12.3793 12.8224 15.9829 8.476 15.9829 5.45623C15.9829 2.44467 13.2998 0.00386047 9.98939 0.00386047ZM9.98939 3.50918C11.172 3.50918 12.1297 4.38038 12.1297 5.45623C12.1297 6.53136 11.1709 7.40329 9.98939 7.40329C8.80757 7.40329 7.84911 6.53232 7.84911 5.45623C7.84911 4.38038 8.8065 3.50918 9.98939 3.50918ZM4.98886 13.2391C4.91193 13.2394 4.83314 13.2483 4.75462 13.2657C1.90285 13.9064 0 15.0525 0 16.3612C0 18.3686 4.47209 19.9961 9.98939 19.9961C15.5064 19.9961 19.9785 18.3686 19.9785 16.3612C19.9785 15.0525 18.0759 13.9074 15.2239 13.2676C14.5954 13.1267 13.985 13.5678 13.985 14.1567C13.985 14.5693 14.2869 14.9381 14.7265 15.037C16.5293 15.4442 17.6252 16.0086 17.93 16.3595C17.4156 16.9547 14.6782 18.177 9.98939 18.177C5.3003 18.177 2.56314 16.9547 2.04849 16.3595C2.35224 16.0077 3.44917 15.4442 5.25228 15.037C5.69159 14.9391 5.99347 14.5693 5.99347 14.1567C5.99347 13.6407 5.52658 13.2374 4.98886 13.2391Z" fill="white" fillOpacity="0.5"/>
</g>
</svg>
