<svg width="500" height="500" viewBox="0 0 500 500" fill="none" xmlns="http://www.w3.org/2000/svg">
<g opacity="0.3">
<path d="M79.4002 99.4796C38.4002 132.34 14.1002 192.64 17.9602 255.61C19.9302 287.81 29.0202 318.87 53.0602 335.83C117.17 381.06 397.04 381.84 438.46 301.9C479.89 221.97 464.47 108.39 374.39 61.0796C296.32 20.0596 185.29 14.6396 79.4002 99.4796Z" fill="#E6E6E6"/>
</g>
<g opacity="0.03">
<path d="M246.2 467.75C369.774 467.75 469.95 456.342 469.95 442.27C469.95 428.198 369.774 416.79 246.2 416.79C122.626 416.79 22.4502 428.198 22.4502 442.27C22.4502 456.342 122.626 467.75 246.2 467.75Z" fill="#000001"/>
</g>
<path d="M239.94 97.0695C239.94 97.0695 237.7 76.9795 298.68 81.6195C359.66 86.2495 380.96 83.4895 401.43 133.289C421.9 183.089 412.68 268.249 361.96 290.059C311.24 311.869 190.54 318.849 239.94 97.0695Z" fill="#161A23"/>
<g opacity="0.1">
<path d="M239.94 97.0695C239.94 97.0695 237.7 76.9795 298.68 81.6195C359.66 86.2495 380.96 83.4895 401.43 133.289C421.9 183.089 412.68 268.249 361.96 290.059C311.24 311.869 190.54 318.849 239.94 97.0695Z" fill="white"/>
</g>
<path d="M208.05 105.109C208.05 105.109 159.92 130.919 151.38 183.419C142.85 235.929 71.2803 248.609 71.2803 248.609L75.3903 269.909C75.3903 269.909 165.44 261.679 206.67 186.189C206.67 186.189 226.09 149.279 208.05 105.109Z" fill="#013FF6"/>
<g opacity="0.46">
<path d="M208.05 105.109C208.05 105.109 159.92 130.919 151.38 183.419C142.85 235.929 71.2803 248.609 71.2803 248.609L75.3903 269.909C75.3903 269.909 165.44 261.679 206.67 186.189C206.67 186.189 226.09 149.279 208.05 105.109Z" fill="white"/>
</g>
<path d="M255.53 56.6594C255.53 56.6594 254.54 66.9594 256.22 73.8194C256.9 76.6094 259.75 78.3394 262.53 77.6194C265.98 76.7294 270.38 74.5194 271.58 69.0694L274.75 60.0594C274.75 60.0594 276.54 54.3494 270.75 50.0994C264.96 45.8494 255.83 50.3494 255.54 56.6494L255.53 56.6594Z" fill="#F4A28C"/>
<path d="M273.79 64.7002L275.95 98.5202L257.22 98.3802L263.17 73.8302L273.79 64.7002Z" fill="#F4A28C"/>
<path d="M258.09 57.1098C259.89 57.2198 263.21 57.2398 267.63 56.4598C267.63 56.4598 264.36 60.9298 267.55 65.9198C270.74 70.9098 276.01 68.7998 276.01 68.7998L275.96 55.5098C276.07 51.6398 274.06 47.9998 270.71 46.0698C269.34 45.2798 267.82 44.4898 266.29 43.8598C262.48 42.2898 256.85 44.7898 253.45 42.1798C251.96 41.0398 249.77 41.9198 249.48 43.7798C248.85 47.8198 249.51 54.1798 254.96 56.4398C255.96 56.8498 257.03 57.0398 258.1 57.0998L258.09 57.1098Z" fill="#161A23"/>
<path d="M266.44 65.6099C266.44 65.6099 266.55 61.6299 269.54 61.9599C272.53 62.2899 272.4 68.0499 268.33 68.5499L266.44 65.6099Z" fill="#F4A28C"/>
<path d="M255.24 63.1797L252.32 67.1397C251.6 68.1197 252.14 69.5097 253.33 69.7497L257.28 70.5297L255.24 63.1797Z" fill="#F4A28C"/>
<g opacity="0.31">
<path d="M263.39 74.6495C263.39 74.6495 266.9 74.9895 270.24 72.9795C270.24 72.9795 269.66 79.2195 261.35 83.0595L263.39 74.6495Z" fill="#CE8172"/>
</g>
<path d="M219.73 430.54C219.73 430.54 215.87 436.94 209.53 436.22C203.19 435.5 200.34 441.27 205.63 443.98C210.92 446.69 226.81 442.38 226.81 442.38L228.58 430.87L219.73 430.55V430.54Z" fill="#013FF6"/>
<path d="M334.29 430.54C334.29 430.54 338.15 436.94 344.49 436.22C350.83 435.5 353.68 441.27 348.39 443.98C343.1 446.69 327.21 442.38 327.21 442.38L325.44 430.87L334.29 430.55V430.54Z" fill="#013FF6"/>
<path d="M242.58 90.8C242.58 90.8 182.01 89.13 171.98 136.97C161.95 184.81 176.51 231.59 204.68 236.73C232.85 241.87 259.06 90.79 259.06 90.79H242.58V90.8Z" fill="#161A23"/>
<path d="M182.98 147.279C184.14 121.319 204.37 100.159 230.25 97.8393C262.68 94.9193 311.01 93.7794 346.48 106.939C404.79 128.569 336.89 235.799 325.44 276.969L230.8 281.249C230.8 281.249 180.03 213.369 182.97 147.289L182.98 147.279Z" fill="#013FF6"/>
<g opacity="0.08">
<path d="M281.45 128.13L271.6 163.05C271.6 163.05 243.79 153.12 242.64 177.33C241.49 201.54 256.21 240.09 266.43 253.38C276.65 266.67 258.48 280.76 258.48 280.76L325.44 276.97L345.02 217.52L364.83 193.46V170.81L333.7 128.12L314.1 109.87L281.43 128.12L281.45 128.13Z" fill="#000001"/>
</g>
<path d="M269.02 155.42C269.02 155.42 285.3 101.81 318.53 99.6597C362.14 96.8397 370.89 124.82 370.89 124.82C370.89 124.82 340.15 97.7497 314.85 121.12C289.54 144.49 290.01 174.56 298.1 200.09C306.18 225.62 346.5 236.99 346.5 236.99L327.76 269.79C327.76 269.79 244.73 222.92 269.03 155.42H269.02Z" fill="#161A23"/>
<path d="M259.97 43.4098C259.97 43.4098 260.67 58.5598 276.33 62.2998C276.33 62.2998 283.95 54.3098 280.61 47.2498C277.27 40.1898 268.96 33.7498 259.97 43.4198V43.4098Z" fill="#FFC01D"/>
<path d="M309 136.21C307.13 111.73 335.14 96.0901 354.98 110.54C380.3 128.97 406.89 164.82 386.12 230.04C350.89 340.66 260.91 177.83 260.91 177.83L278.76 160.32C278.76 160.32 308.03 211.4 339.09 217.78C363.22 222.74 312.67 184.19 309 136.22V136.21Z" fill="#013FF6"/>
<g opacity="0.46">
<path d="M309 136.21C307.13 111.73 335.14 96.0901 354.98 110.54C380.3 128.97 406.89 164.82 386.12 230.04C350.89 340.66 260.91 177.83 260.91 177.83L278.76 160.32C278.76 160.32 308.03 211.4 339.09 217.78C363.22 222.74 312.67 184.19 309 136.22V136.21Z" fill="white"/>
</g>
<path d="M264.11 174.69C264.11 174.69 247.5 161.58 254.66 154.96C261.82 148.34 268.89 150.5 273.86 165.13L264.11 174.69Z" fill="#F4A28C"/>
<path d="M72.2001 253.37C72.2001 253.37 57.3401 254.56 52.5801 260.32C47.8201 266.08 65.5001 263.36 75.3901 269.91L72.2001 253.37Z" fill="#F4A28C"/>
<path d="M67.7602 264.37H61.7502C47.214 264.37 35.4302 276.154 35.4302 290.69V414.13C35.4302 428.666 47.214 440.45 61.7502 440.45H67.7602C82.2963 440.45 94.0802 428.666 94.0802 414.13V290.69C94.0802 276.154 82.2963 264.37 67.7602 264.37Z" fill="#FFC01D"/>
<g opacity="0.08">
<path d="M66.1203 264.37C66.1203 264.37 74.3303 367.24 74.0503 368.11C73.7603 368.97 63.5903 440.45 63.5903 440.45H68.0703C82.4403 440.45 94.0803 428.8 94.0803 414.44V290.38C94.0803 276.02 82.4403 264.38 68.0803 264.38H66.1303L66.1203 264.37Z" fill="#000001"/>
</g>
<path d="M93.9301 307.88H38.3101V315.95H93.9301V307.88Z" fill="#FFC01D"/>
<g opacity="0.46">
<path d="M93.9301 307.88H38.3101V315.95H93.9301V307.88Z" fill="white"/>
</g>
<path d="M45.5101 300.3H31.1001V324.3H45.5101V300.3Z" fill="#161A23"/>
<path d="M101.28 300.3H86.8701V324.3H101.28V300.3Z" fill="#161A23"/>
<path d="M93.9301 387.13H38.3101V395.2H93.9301V387.13Z" fill="#FFC01D"/>
<g opacity="0.46">
<path d="M93.9301 387.13H38.3101V395.2H93.9301V387.13Z" fill="white"/>
</g>
<path d="M45.5101 379.56H31.1001V403.56H45.5101V379.56Z" fill="#161A23"/>
<path d="M101.28 379.56H86.8701V403.56H101.28V379.56Z" fill="#161A23"/>
<path d="M230.81 281.249L215.72 432.629H234.28L253.44 358.279C261.71 326.199 283.18 299.109 312.53 283.739L325.44 276.979L230.8 281.259L230.81 281.249Z" fill="#161A23"/>
<path d="M325.45 276.97L339.77 432.63H319.94L297.39 346.66C291.26 323.29 277.05 302.86 257.28 288.97L325.45 276.97Z" fill="#161A23"/>
<path d="M418.87 156.84H407.15V444.87H418.87V156.84Z" fill="#FFC01D"/>
<g opacity="0.46">
<path d="M418.87 156.84H407.15V444.87H418.87V156.84Z" fill="white"/>
</g>
<path d="M482.433 141.919L414.424 73.9092L346.414 141.919L414.424 209.928L482.433 141.919Z" fill="#FFC01D"/>
<g opacity="0.08">
<path d="M482.433 141.919L414.423 73.9092L346.414 141.919L414.423 209.928L482.433 141.919Z" fill="#000001"/>
</g>
<path d="M467.867 141.918L414.431 88.4824L360.995 141.918L414.431 195.355L467.867 141.918Z" fill="#FFC01D"/>
<path d="M433.05 117.25H393.94V156.36H433.05V117.25Z" fill="#24285B"/>
<path d="M404.37 151.359H397.07V164.969H404.37V151.359Z" fill="#24285B"/>
<path d="M429.14 151.359H421.84V164.969H429.14V151.359Z" fill="#24285B"/>
<path d="M426.74 122.7H399.87V138.26H426.74V122.7Z" fill="#FFC01D"/>
<path d="M415.46 120.899H411.14V139.939H415.46V120.899Z" fill="#24285B"/>
<path d="M401.05 149.969C402.668 149.969 403.98 148.658 403.98 147.039C403.98 145.421 402.668 144.109 401.05 144.109C399.432 144.109 398.12 145.421 398.12 147.039C398.12 148.658 399.432 149.969 401.05 149.969Z" fill="#FFC01D"/>
<path d="M425.49 149.969C427.108 149.969 428.42 148.658 428.42 147.039C428.42 145.421 427.108 144.109 425.49 144.109C423.872 144.109 422.56 145.421 422.56 147.039C422.56 148.658 423.872 149.969 425.49 149.969Z" fill="#FFC01D"/>
</svg>
