<svg width="290" height="228" viewBox="0 0 290 228" fill="none" xmlns="http://www.w3.org/2000/svg">
<path d="M119.182 58.6718H88.1689V227H119.182V58.6718Z" fill="#8C6239"/>
<path d="M207.354 176.446H0L40.5325 130.461L76.7468 89.3737L88.1705 76.4263L103.677 58.8305L119.183 76.4263L130.587 89.3737L166.821 130.461L207.354 176.446Z" fill="#153641"/>
<path d="M188.37 130.461H18.958L55.1919 89.374L91.2688 48.4457L103.674 34.3758L116.059 48.4457L152.156 89.374L188.37 130.461Z" fill="#22556E"/>
<path d="M171.236 89.3735H36.0947L72.1913 48.4452L103.675 12.732L135.159 48.4452L171.236 89.3735Z" fill="#4799B7"/>
<path d="M149.604 51.9711H57.9785L103.791 0L149.604 51.9711Z" fill="#6DB3BF"/>
<path d="M214.636 92.7422H188.449V227.363H214.636V92.7422Z" fill="#8C6239"/>
<path d="M289.088 186.932H114L148.225 150.156L178.805 117.296L188.451 106.942L201.544 92.8692L214.638 106.942L224.267 117.296L254.863 150.156L289.088 186.932Z" fill="#153641"/>
<path d="M273.059 150.156H130.009L160.604 117.296L191.068 84.5636L201.542 73.3112L212.001 84.5636L242.48 117.296L273.059 150.156Z" fill="#22556E"/>
<path d="M258.591 117.296H144.479L174.958 84.5635L201.543 56.0018L228.128 84.5635L258.591 117.296Z" fill="#4799B7"/>
<path d="M240.228 84.5641H162.86L201.544 43L240.228 84.5641Z" fill="#6DB3BF"/>
</svg>
