<svg width="121" height="86" viewBox="0 0 121 86" fill="none" xmlns="http://www.w3.org/2000/svg">
<ellipse cx="6.51734" cy="6.82918" rx="6.51734" ry="6.82918" transform="matrix(-1 0 0 1 82.0347 0)" fill="#05478A"/>
<path d="M0.187222 54C0.187222 61.1797 5.74175 67 12.5936 67C19.4455 67 25 61.1797 25 54C25 46.8203 19.4455 41 12.5936 41C5.74175 41 0.187222 46.8203 0.187222 54Z" fill="#05478A"/>
<path d="M113.169 30.6964C104.806 28.3835 96.3905 27.9852 88.3459 29.2423C85.1172 29.7469 81.758 28.5888 79.7458 25.9316L76.9503 22.24C76.4929 21.636 75.7131 21.3839 75.0076 21.6119C74.4123 21.8043 73.9713 22.3073 73.8527 22.9293L72.7543 28.6923C72.0618 32.3254 69.6872 35.3285 66.5637 37.2182C52.8188 45.5337 42.1196 59.3687 37.7493 76.7191C29.0515 111.251 48.7157 146.632 81.6703 155.746C114.625 164.861 148.391 144.256 157.09 109.725C165.788 75.1931 146.124 39.8106 113.169 30.6964Z" fill="#05478A"/>
<ellipse cx="3.35456" cy="3.46887" rx="3.35456" ry="3.46887" transform="matrix(-0.920239 -0.391358 -0.361181 0.932496 37.6797 22.626)" fill="#05478A"/>
</svg>
