<svg width="121" height="86" viewBox="0 0 121 86" fill="none" xmlns="http://www.w3.org/2000/svg">
<ellipse cx="6.51734" cy="6.82918" rx="6.51734" ry="6.82918" transform="matrix(-1 0 0 1 82.0347 0)" fill="#851D41"/>
<path d="M0.187222 54C0.187222 61.1797 5.74175 67 12.5936 67C19.4455 67 25 61.1797 25 54C25 46.8203 19.4455 41 12.5936 41C5.74175 41 0.187222 46.8203 0.187222 54Z" fill="#851D41"/>
<path d="M113.169 30.6964C104.805 28.3834 96.3896 27.9854 88.3447 29.2429C85.116 29.7475 81.7569 28.5892 79.7451 25.9319L76.9502 22.2402C76.4928 21.6361 75.713 21.3839 75.0075 21.6119C74.4122 21.8043 73.9713 22.3073 73.8527 22.9293L72.7541 28.6929C72.0616 32.3262 69.6869 35.3295 66.5631 37.2194C52.8186 45.5349 42.1195 59.369 37.7493 76.7191C29.0513 111.251 48.7157 146.632 81.6703 155.746C114.625 164.861 148.391 144.256 157.09 109.725C165.788 75.1931 146.124 39.8106 113.169 30.6964Z" fill="#851D41"/>
<ellipse cx="3.35456" cy="3.46887" rx="3.35456" ry="3.46887" transform="matrix(-0.920239 -0.391358 -0.361181 0.932496 37.6797 22.626)" fill="#851D41"/>
</svg>
