<svg width="120" height="86" viewBox="0 0 120 86" fill="none" xmlns="http://www.w3.org/2000/svg">
<ellipse cx="6.51734" cy="6.82918" rx="6.51734" ry="6.82918" transform="matrix(-1 0 0 1 81.0347 0)" fill="#B15500"/>
<path d="M0.187222 54C0.187222 61.1797 5.74175 67 12.5936 67C19.4455 67 25 61.1797 25 54C25 46.8203 19.4455 41 12.5936 41C5.74175 41 0.187222 46.8203 0.187222 54Z" fill="#B15500"/>
<path d="M118.169 30.6974C109.568 28.3187 100.912 27.9646 92.6609 29.3539C89.3452 29.9121 85.8743 28.7437 83.8039 26.009L80.9511 22.2409C80.4935 21.6365 79.7132 21.3842 79.0075 21.6126C78.4123 21.8052 77.9716 22.3082 77.853 22.9301L75.5721 34.8952C75.564 34.9372 75.6048 34.9728 75.6445 34.9585C59.9532 42.8855 47.5436 57.6867 42.7495 76.7191C34.0515 111.251 53.7155 146.633 86.6703 155.747C119.625 164.862 153.392 144.256 162.09 109.725C170.788 75.1932 151.123 39.8116 118.169 30.6974Z" fill="#B15500"/>
<ellipse cx="3.35456" cy="3.46887" rx="3.35456" ry="3.46887" transform="matrix(-0.920239 -0.391358 -0.361181 0.932496 42.6797 22.626)" fill="#B15500"/>
</svg>
