<svg width="635" height="308" viewBox="0 0 635 308" fill="none" xmlns="http://www.w3.org/2000/svg">
<rect width="635" height="308" rx="32" fill="#FFC01D"/>
<path d="M0 32C0 14.3269 14.3269 0 32 0H420.847V308H32C14.3269 308 0 293.673 0 276V32Z" fill="#161A23"/>
<path d="M47.2475 107.219L46.8515 99.2273L57.6875 87.5993H65.5355L54.7355 99.2993L50.7755 103.439L47.2475 107.219ZM40.8755 112.799V87.5993H47.9315V112.799H40.8755ZM57.7955 112.799L49.5875 102.395L54.2315 97.4273L66.0755 112.799H57.7955ZM75.2673 113.123C73.6833 113.123 72.2553 112.811 70.9833 112.187C69.7353 111.563 68.7513 110.591 68.0313 109.271C67.3353 107.927 66.9873 106.235 66.9873 104.195V93.2873H73.8273V103.079C73.8273 104.591 74.1033 105.671 74.6553 106.319C75.2313 106.967 76.0353 107.291 77.0673 107.291C77.7393 107.291 78.3513 107.135 78.9033 106.823C79.4553 106.511 79.8993 106.019 80.2353 105.347C80.5713 104.651 80.7393 103.763 80.7393 102.683V93.2873H87.5793V112.799H81.0633V107.291L82.3233 108.839C81.6513 110.279 80.6793 111.359 79.4073 112.079C78.1353 112.775 76.7553 113.123 75.2673 113.123ZM91.9851 112.799V93.2873H98.5011V98.9753L97.5291 97.3553C98.1051 95.8913 99.0411 94.7993 100.337 94.0793C101.633 93.3353 103.205 92.9633 105.053 92.9633V99.1193C104.741 99.0713 104.465 99.0473 104.225 99.0473C104.009 99.0233 103.769 99.0113 103.505 99.0113C102.113 99.0113 100.985 99.3953 100.121 100.163C99.2571 100.907 98.8251 102.131 98.8251 103.835V112.799H91.9851ZM117.185 113.123C114.689 113.123 112.745 112.511 111.353 111.287C109.961 110.039 109.265 108.167 109.265 105.671V88.9313H116.105V105.599C116.105 106.295 116.297 106.847 116.681 107.255C117.065 107.639 117.557 107.831 118.157 107.831C118.973 107.831 119.669 107.627 120.245 107.219L121.937 112.007C121.361 112.391 120.653 112.667 119.813 112.835C118.973 113.027 118.097 113.123 117.185 113.123ZM106.421 99.1193V94.0073H120.569V99.1193H106.421ZM124.575 112.799V93.2873H131.415V112.799H124.575ZM127.995 91.1273C126.747 91.1273 125.739 90.7793 124.971 90.0833C124.203 89.3873 123.819 88.5233 123.819 87.4913C123.819 86.4593 124.203 85.5953 124.971 84.8993C125.739 84.2033 126.747 83.8553 127.995 83.8553C129.243 83.8553 130.251 84.1913 131.019 84.8633C131.787 85.5113 132.171 86.3513 132.171 87.3833C132.171 88.4633 131.787 89.3633 131.019 90.0833C130.275 90.7793 129.267 91.1273 127.995 91.1273ZM142.952 113.123C141.296 113.123 139.676 112.931 138.092 112.547C136.532 112.163 135.272 111.683 134.312 111.107L136.364 106.427C137.276 106.979 138.344 107.423 139.568 107.759C140.792 108.071 141.992 108.227 143.168 108.227C144.32 108.227 145.112 108.107 145.544 107.867C146 107.627 146.228 107.303 146.228 106.895C146.228 106.511 146.012 106.235 145.58 106.067C145.172 105.875 144.62 105.731 143.924 105.635C143.252 105.539 142.508 105.431 141.692 105.311C140.876 105.191 140.048 105.035 139.208 104.843C138.392 104.627 137.636 104.315 136.94 103.907C136.268 103.475 135.728 102.899 135.32 102.179C134.912 101.459 134.708 100.547 134.708 99.4433C134.708 98.1953 135.068 97.0913 135.788 96.1313C136.532 95.1473 137.612 94.3793 139.028 93.8273C140.444 93.2513 142.172 92.9633 144.212 92.9633C145.58 92.9633 146.96 93.1073 148.352 93.3953C149.768 93.6593 150.956 94.0673 151.916 94.6193L149.864 99.2633C148.904 98.7113 147.944 98.3393 146.984 98.1473C146.024 97.9313 145.112 97.8233 144.248 97.8233C143.096 97.8233 142.28 97.9553 141.8 98.2193C141.344 98.4833 141.116 98.8073 141.116 99.1913C141.116 99.5753 141.32 99.8753 141.728 100.091C142.136 100.283 142.676 100.439 143.348 100.559C144.044 100.655 144.8 100.763 145.616 100.883C146.432 100.979 147.248 101.135 148.064 101.351C148.904 101.567 149.66 101.891 150.332 102.323C151.028 102.731 151.58 103.295 151.988 104.015C152.396 104.711 152.6 105.611 152.6 106.715C152.6 107.915 152.228 108.995 151.484 109.955C150.764 110.915 149.684 111.683 148.244 112.259C146.828 112.835 145.064 113.123 142.952 113.123ZM178.912 113.303C176.92 113.303 175.072 112.991 173.368 112.367C171.688 111.719 170.224 110.807 168.976 109.631C167.752 108.455 166.792 107.075 166.096 105.491C165.4 103.883 165.052 102.119 165.052 100.199C165.052 98.2793 165.4 96.5273 166.096 94.9433C166.792 93.3353 167.752 91.9433 168.976 90.7673C170.224 89.5913 171.688 88.6913 173.368 88.0673C175.072 87.4193 176.92 87.0953 178.912 87.0953C181.24 87.0953 183.316 87.5033 185.14 88.3193C186.988 89.1353 188.524 90.3113 189.748 91.8473L185.212 95.9513C184.396 94.9913 183.496 94.2593 182.512 93.7553C181.552 93.2513 180.472 92.9993 179.272 92.9993C178.24 92.9993 177.292 93.1673 176.428 93.5033C175.564 93.8393 174.82 94.3313 174.196 94.9793C173.596 95.6033 173.116 96.3593 172.756 97.2473C172.42 98.1353 172.252 99.1193 172.252 100.199C172.252 101.279 172.42 102.263 172.756 103.151C173.116 104.039 173.596 104.807 174.196 105.455C174.82 106.079 175.564 106.559 176.428 106.895C177.292 107.231 178.24 107.399 179.272 107.399C180.472 107.399 181.552 107.147 182.512 106.643C183.496 106.139 184.396 105.407 185.212 104.447L189.748 108.551C188.524 110.063 186.988 111.239 185.14 112.079C183.316 112.895 181.24 113.303 178.912 113.303ZM192.602 112.799V86.0873H199.442V112.799H192.602ZM215.803 112.799V109.163L215.335 108.263V101.567C215.335 100.487 214.999 99.6593 214.327 99.0833C213.679 98.4833 212.635 98.1833 211.195 98.1833C210.259 98.1833 209.311 98.3393 208.351 98.6513C207.391 98.9393 206.575 99.3473 205.903 99.8753L203.599 95.2313C204.703 94.5113 206.023 93.9593 207.559 93.5753C209.119 93.1673 210.667 92.9633 212.203 92.9633C215.371 92.9633 217.819 93.6953 219.547 95.1593C221.299 96.5993 222.175 98.8673 222.175 101.963V112.799H215.803ZM210.043 113.123C208.483 113.123 207.163 112.859 206.083 112.331C205.003 111.803 204.175 111.083 203.599 110.171C203.047 109.259 202.771 108.239 202.771 107.111C202.771 105.911 203.071 104.879 203.671 104.015C204.295 103.127 205.243 102.455 206.515 101.999C207.787 101.519 209.431 101.279 211.447 101.279H216.055V104.843H212.383C211.279 104.843 210.499 105.023 210.043 105.383C209.611 105.743 209.395 106.223 209.395 106.823C209.395 107.423 209.623 107.903 210.079 108.263C210.535 108.623 211.159 108.803 211.951 108.803C212.695 108.803 213.367 108.623 213.967 108.263C214.591 107.879 215.047 107.303 215.335 106.535L216.271 109.055C215.911 110.399 215.203 111.419 214.147 112.115C213.115 112.787 211.747 113.123 210.043 113.123ZM233.585 113.123C231.929 113.123 230.309 112.931 228.725 112.547C227.165 112.163 225.905 111.683 224.945 111.107L226.997 106.427C227.909 106.979 228.977 107.423 230.201 107.759C231.425 108.071 232.625 108.227 233.801 108.227C234.953 108.227 235.745 108.107 236.177 107.867C236.633 107.627 236.861 107.303 236.861 106.895C236.861 106.511 236.645 106.235 236.213 106.067C235.805 105.875 235.253 105.731 234.557 105.635C233.885 105.539 233.141 105.431 232.325 105.311C231.509 105.191 230.681 105.035 229.841 104.843C229.025 104.627 228.269 104.315 227.573 103.907C226.901 103.475 226.361 102.899 225.953 102.179C225.545 101.459 225.341 100.547 225.341 99.4433C225.341 98.1953 225.701 97.0913 226.421 96.1313C227.165 95.1473 228.245 94.3793 229.661 93.8273C231.077 93.2513 232.805 92.9633 234.845 92.9633C236.213 92.9633 237.593 93.1073 238.985 93.3953C240.401 93.6593 241.589 94.0673 242.549 94.6193L240.497 99.2633C239.537 98.7113 238.577 98.3393 237.617 98.1473C236.657 97.9313 235.745 97.8233 234.881 97.8233C233.729 97.8233 232.913 97.9553 232.433 98.2193C231.977 98.4833 231.749 98.8073 231.749 99.1913C231.749 99.5753 231.953 99.8753 232.361 100.091C232.769 100.283 233.309 100.439 233.981 100.559C234.677 100.655 235.433 100.763 236.249 100.883C237.065 100.979 237.881 101.135 238.697 101.351C239.537 101.567 240.293 101.891 240.965 102.323C241.661 102.731 242.213 103.295 242.621 104.015C243.029 104.711 243.233 105.611 243.233 106.715C243.233 107.915 242.861 108.995 242.117 109.955C241.397 110.915 240.317 111.683 238.877 112.259C237.461 112.835 235.697 113.123 233.585 113.123ZM253.272 113.123C251.616 113.123 249.996 112.931 248.412 112.547C246.852 112.163 245.592 111.683 244.632 111.107L246.684 106.427C247.596 106.979 248.664 107.423 249.888 107.759C251.112 108.071 252.312 108.227 253.488 108.227C254.64 108.227 255.432 108.107 255.864 107.867C256.32 107.627 256.548 107.303 256.548 106.895C256.548 106.511 256.332 106.235 255.9 106.067C255.492 105.875 254.94 105.731 254.244 105.635C253.572 105.539 252.828 105.431 252.012 105.311C251.196 105.191 250.368 105.035 249.528 104.843C248.712 104.627 247.956 104.315 247.26 103.907C246.588 103.475 246.048 102.899 245.64 102.179C245.232 101.459 245.028 100.547 245.028 99.4433C245.028 98.1953 245.388 97.0913 246.108 96.1313C246.852 95.1473 247.932 94.3793 249.348 93.8273C250.764 93.2513 252.492 92.9633 254.532 92.9633C255.9 92.9633 257.28 93.1073 258.672 93.3953C260.088 93.6593 261.276 94.0673 262.236 94.6193L260.184 99.2633C259.224 98.7113 258.264 98.3393 257.304 98.1473C256.344 97.9313 255.432 97.8233 254.568 97.8233C253.416 97.8233 252.6 97.9553 252.12 98.2193C251.664 98.4833 251.436 98.8073 251.436 99.1913C251.436 99.5753 251.64 99.8753 252.048 100.091C252.456 100.283 252.996 100.439 253.668 100.559C254.364 100.655 255.12 100.763 255.936 100.883C256.752 100.979 257.568 101.135 258.384 101.351C259.224 101.567 259.98 101.891 260.652 102.323C261.348 102.731 261.9 103.295 262.308 104.015C262.716 104.711 262.92 105.611 262.92 106.715C262.92 107.915 262.548 108.995 261.804 109.955C261.084 110.915 260.004 111.683 258.564 112.259C257.148 112.835 255.384 113.123 253.272 113.123ZM265.868 112.799V93.2873H272.384V98.9753L271.412 97.3553C271.988 95.8913 272.924 94.7993 274.22 94.0793C275.516 93.3353 277.088 92.9633 278.936 92.9633V99.1193C278.624 99.0713 278.348 99.0473 278.108 99.0473C277.892 99.0233 277.652 99.0113 277.388 99.0113C275.996 99.0113 274.868 99.3953 274.004 100.163C273.14 100.907 272.708 102.131 272.708 103.835V112.799H265.868ZM291.375 113.123C289.239 113.123 287.343 112.691 285.687 111.827C284.031 110.963 282.723 109.775 281.763 108.263C280.827 106.727 280.359 104.975 280.359 103.007C280.359 101.039 280.827 99.2993 281.763 97.7873C282.723 96.2753 284.031 95.0993 285.687 94.2593C287.343 93.3953 289.239 92.9633 291.375 92.9633C293.511 92.9633 295.407 93.3953 297.063 94.2593C298.743 95.0993 300.051 96.2753 300.987 97.7873C301.923 99.2993 302.391 101.039 302.391 103.007C302.391 104.975 301.923 106.727 300.987 108.263C300.051 109.775 298.743 110.963 297.063 111.827C295.407 112.691 293.511 113.123 291.375 113.123ZM291.375 107.687C292.167 107.687 292.863 107.507 293.463 107.147C294.087 106.787 294.579 106.259 294.939 105.563C295.299 104.843 295.479 103.991 295.479 103.007C295.479 102.023 295.299 101.195 294.939 100.523C294.579 99.8273 294.087 99.2993 293.463 98.9393C292.863 98.5793 292.167 98.3993 291.375 98.3993C290.607 98.3993 289.911 98.5793 289.287 98.9393C288.687 99.2993 288.195 99.8273 287.811 100.523C287.451 101.195 287.271 102.023 287.271 103.007C287.271 103.991 287.451 104.843 287.811 105.563C288.195 106.259 288.687 106.787 289.287 107.147C289.911 107.507 290.607 107.687 291.375 107.687ZM315.351 113.123C313.215 113.123 311.319 112.691 309.663 111.827C308.007 110.963 306.699 109.775 305.739 108.263C304.803 106.727 304.335 104.975 304.335 103.007C304.335 101.039 304.803 99.2993 305.739 97.7873C306.699 96.2753 308.007 95.0993 309.663 94.2593C311.319 93.3953 313.215 92.9633 315.351 92.9633C317.487 92.9633 319.383 93.3953 321.039 94.2593C322.719 95.0993 324.027 96.2753 324.963 97.7873C325.899 99.2993 326.367 101.039 326.367 103.007C326.367 104.975 325.899 106.727 324.963 108.263C324.027 109.775 322.719 110.963 321.039 111.827C319.383 112.691 317.487 113.123 315.351 113.123ZM315.351 107.687C316.143 107.687 316.839 107.507 317.439 107.147C318.063 106.787 318.555 106.259 318.915 105.563C319.275 104.843 319.455 103.991 319.455 103.007C319.455 102.023 319.275 101.195 318.915 100.523C318.555 99.8273 318.063 99.2993 317.439 98.9393C316.839 98.5793 316.143 98.3993 315.351 98.3993C314.583 98.3993 313.887 98.5793 313.263 98.9393C312.663 99.2993 312.171 99.8273 311.787 100.523C311.427 101.195 311.247 102.023 311.247 103.007C311.247 103.991 311.427 104.843 311.787 105.563C312.171 106.259 312.663 106.787 313.263 107.147C313.887 107.507 314.583 107.687 315.351 107.687ZM354.952 92.9633C356.464 92.9633 357.808 93.2753 358.984 93.8993C360.184 94.4993 361.12 95.4353 361.792 96.7073C362.488 97.9793 362.836 99.6233 362.836 101.639V112.799H355.996V102.755C355.996 101.363 355.732 100.355 355.204 99.7313C354.676 99.0833 353.956 98.7593 353.044 98.7593C352.396 98.7593 351.808 98.9153 351.28 99.2273C350.752 99.5393 350.344 100.019 350.056 100.667C349.768 101.291 349.624 102.107 349.624 103.115V112.799H342.784V102.755C342.784 101.363 342.52 100.355 341.992 99.7313C341.488 99.0833 340.768 98.7593 339.832 98.7593C339.16 98.7593 338.56 98.9153 338.032 99.2273C337.528 99.5393 337.12 100.019 336.808 100.667C336.52 101.291 336.376 102.107 336.376 103.115V112.799H329.536V93.2873H336.052V98.7233L334.756 97.1753C335.476 95.7833 336.46 94.7393 337.708 94.0433C338.956 93.3233 340.348 92.9633 341.884 92.9633C343.636 92.9633 345.172 93.4193 346.492 94.3313C347.836 95.2193 348.736 96.6113 349.192 98.5073L346.96 98.0393C347.656 96.4553 348.7 95.2193 350.092 94.3313C351.508 93.4193 353.128 92.9633 354.952 92.9633Z" fill="white"/>
<path d="M43.3555 152.218V139.498H38.4355V138.218H49.7555V139.498H44.8355V152.218H43.3555ZM57.1798 141.618C58.0332 141.618 58.7798 141.785 59.4198 142.118C60.0732 142.438 60.5798 142.931 60.9398 143.598C61.3132 144.265 61.4998 145.105 61.4998 146.118V152.218H60.0798V146.258C60.0798 145.151 59.7998 144.318 59.2398 143.758C58.6932 143.185 57.9198 142.898 56.9198 142.898C56.1732 142.898 55.5198 143.051 54.9598 143.358C54.4132 143.651 53.9865 144.085 53.6798 144.658C53.3865 145.218 53.2398 145.898 53.2398 146.698V152.218H51.8198V137.378H53.2398V144.598L52.9598 144.058C53.2932 143.298 53.8265 142.705 54.5598 142.278C55.2932 141.838 56.1665 141.618 57.1798 141.618ZM69.7955 152.318C68.7021 152.318 67.7421 152.091 66.9155 151.638C66.0888 151.171 65.4421 150.538 64.9755 149.738C64.5088 148.925 64.2755 147.998 64.2755 146.958C64.2755 145.918 64.4955 144.998 64.9355 144.198C65.3888 143.398 66.0021 142.771 66.7755 142.318C67.5621 141.851 68.4421 141.618 69.4155 141.618C70.4021 141.618 71.2755 141.845 72.0355 142.298C72.8088 142.738 73.4155 143.365 73.8555 144.178C74.2955 144.978 74.5155 145.905 74.5155 146.958C74.5155 147.025 74.5088 147.098 74.4955 147.178C74.4955 147.245 74.4955 147.318 74.4955 147.398H65.3555V146.338H73.7355L73.1755 146.758C73.1755 145.998 73.0088 145.325 72.6755 144.738C72.3555 144.138 71.9155 143.671 71.3555 143.338C70.7955 143.005 70.1488 142.838 69.4155 142.838C68.6955 142.838 68.0488 143.005 67.4755 143.338C66.9021 143.671 66.4555 144.138 66.1355 144.738C65.8155 145.338 65.6555 146.025 65.6555 146.798V147.018C65.6555 147.818 65.8288 148.525 66.1755 149.138C66.5355 149.738 67.0288 150.211 67.6555 150.558C68.2955 150.891 69.0221 151.058 69.8355 151.058C70.4755 151.058 71.0688 150.945 71.6155 150.718C72.1755 150.491 72.6555 150.145 73.0555 149.678L73.8555 150.598C73.3888 151.158 72.8021 151.585 72.0955 151.878C71.4021 152.171 70.6355 152.318 69.7955 152.318ZM88.0002 141.618C88.8535 141.618 89.6002 141.785 90.2402 142.118C90.8935 142.438 91.4002 142.931 91.7602 143.598C92.1335 144.265 92.3202 145.105 92.3202 146.118V152.218H90.9002V146.258C90.9002 145.151 90.6202 144.318 90.0602 143.758C89.5135 143.185 88.7402 142.898 87.7402 142.898C86.9935 142.898 86.3402 143.051 85.7802 143.358C85.2335 143.651 84.8068 144.085 84.5002 144.658C84.2068 145.218 84.0602 145.898 84.0602 146.698V152.218H82.6402V141.718H84.0002V144.598L83.7802 144.058C84.1135 143.298 84.6468 142.705 85.3802 142.278C86.1135 141.838 86.9868 141.618 88.0002 141.618ZM100.616 152.318C99.5224 152.318 98.5624 152.091 97.7358 151.638C96.9091 151.171 96.2624 150.538 95.7958 149.738C95.3291 148.925 95.0958 147.998 95.0958 146.958C95.0958 145.918 95.3158 144.998 95.7558 144.198C96.2091 143.398 96.8224 142.771 97.5958 142.318C98.3824 141.851 99.2624 141.618 100.236 141.618C101.222 141.618 102.096 141.845 102.856 142.298C103.629 142.738 104.236 143.365 104.676 144.178C105.116 144.978 105.336 145.905 105.336 146.958C105.336 147.025 105.329 147.098 105.316 147.178C105.316 147.245 105.316 147.318 105.316 147.398H96.1758V146.338H104.556L103.996 146.758C103.996 145.998 103.829 145.325 103.496 144.738C103.176 144.138 102.736 143.671 102.176 143.338C101.616 143.005 100.969 142.838 100.236 142.838C99.5158 142.838 98.8691 143.005 98.2958 143.338C97.7224 143.671 97.2758 144.138 96.9558 144.738C96.6358 145.338 96.4758 146.025 96.4758 146.798V147.018C96.4758 147.818 96.6491 148.525 96.9958 149.138C97.3558 149.738 97.8491 150.211 98.4758 150.558C99.1158 150.891 99.8424 151.058 100.656 151.058C101.296 151.058 101.889 150.945 102.436 150.718C102.996 150.491 103.476 150.145 103.876 149.678L104.676 150.598C104.209 151.158 103.622 151.585 102.916 151.878C102.222 152.171 101.456 152.318 100.616 152.318ZM106.333 152.218L110.773 146.458L110.753 147.158L106.533 141.718H108.133L111.593 146.218L110.993 146.198L114.453 141.718H116.013L111.753 147.218L111.773 146.458L116.253 152.218H114.633L110.973 147.418L111.533 147.498L107.933 152.218H106.333ZM121.937 152.318C120.95 152.318 120.19 152.051 119.657 151.518C119.123 150.985 118.857 150.231 118.857 149.258V139.398H120.277V149.178C120.277 149.791 120.43 150.265 120.737 150.598C121.057 150.931 121.51 151.098 122.097 151.098C122.723 151.098 123.243 150.918 123.657 150.558L124.157 151.578C123.877 151.831 123.537 152.018 123.137 152.138C122.75 152.258 122.35 152.318 121.937 152.318ZM116.977 142.898V141.718H123.477V142.898H116.977ZM136.456 156.198C135.496 156.198 134.576 156.058 133.696 155.778C132.816 155.498 132.103 155.098 131.556 154.578L132.276 153.498C132.769 153.938 133.376 154.285 134.096 154.538C134.829 154.805 135.603 154.938 136.416 154.938C137.749 154.938 138.729 154.625 139.356 153.998C139.983 153.385 140.296 152.425 140.296 151.118V148.498L140.496 146.698L140.356 144.898V141.718H141.716V150.938C141.716 152.751 141.269 154.078 140.376 154.918C139.496 155.771 138.189 156.198 136.456 156.198ZM136.196 151.818C135.196 151.818 134.296 151.605 133.496 151.178C132.696 150.738 132.063 150.131 131.596 149.358C131.143 148.585 130.916 147.698 130.916 146.698C130.916 145.698 131.143 144.818 131.596 144.058C132.063 143.285 132.696 142.685 133.496 142.258C134.296 141.831 135.196 141.618 136.196 141.618C137.129 141.618 137.969 141.811 138.716 142.198C139.463 142.585 140.056 143.158 140.496 143.918C140.936 144.678 141.156 145.605 141.156 146.698C141.156 147.791 140.936 148.718 140.496 149.478C140.056 150.238 139.463 150.818 138.716 151.218C137.969 151.618 137.129 151.818 136.196 151.818ZM136.336 150.558C137.109 150.558 137.796 150.398 138.396 150.078C138.996 149.745 139.469 149.291 139.816 148.718C140.163 148.131 140.336 147.458 140.336 146.698C140.336 145.938 140.163 145.271 139.816 144.698C139.469 144.125 138.996 143.678 138.396 143.358C137.796 143.025 137.109 142.858 136.336 142.858C135.576 142.858 134.889 143.025 134.276 143.358C133.676 143.678 133.203 144.125 132.856 144.698C132.523 145.271 132.356 145.938 132.356 146.698C132.356 147.458 132.523 148.131 132.856 148.718C133.203 149.291 133.676 149.745 134.276 150.078C134.889 150.398 135.576 150.558 136.336 150.558ZM150.128 152.318C149.034 152.318 148.074 152.091 147.248 151.638C146.421 151.171 145.774 150.538 145.308 149.738C144.841 148.925 144.608 147.998 144.608 146.958C144.608 145.918 144.828 144.998 145.268 144.198C145.721 143.398 146.334 142.771 147.108 142.318C147.894 141.851 148.774 141.618 149.748 141.618C150.734 141.618 151.608 141.845 152.368 142.298C153.141 142.738 153.748 143.365 154.188 144.178C154.628 144.978 154.848 145.905 154.848 146.958C154.848 147.025 154.841 147.098 154.828 147.178C154.828 147.245 154.828 147.318 154.828 147.398H145.688V146.338H154.068L153.508 146.758C153.508 145.998 153.341 145.325 153.008 144.738C152.688 144.138 152.248 143.671 151.688 143.338C151.128 143.005 150.481 142.838 149.748 142.838C149.028 142.838 148.381 143.005 147.808 143.338C147.234 143.671 146.788 144.138 146.468 144.738C146.148 145.338 145.988 146.025 145.988 146.798V147.018C145.988 147.818 146.161 148.525 146.508 149.138C146.868 149.738 147.361 150.211 147.988 150.558C148.628 150.891 149.354 151.058 150.168 151.058C150.808 151.058 151.401 150.945 151.948 150.718C152.508 150.491 152.988 150.145 153.388 149.678L154.188 150.598C153.721 151.158 153.134 151.585 152.428 151.878C151.734 152.171 150.968 152.318 150.128 152.318ZM163.098 141.618C163.951 141.618 164.698 141.785 165.338 142.118C165.991 142.438 166.498 142.931 166.858 143.598C167.231 144.265 167.418 145.105 167.418 146.118V152.218H165.998V146.258C165.998 145.151 165.718 144.318 165.158 143.758C164.611 143.185 163.838 142.898 162.838 142.898C162.091 142.898 161.438 143.051 160.878 143.358C160.331 143.651 159.904 144.085 159.598 144.658C159.304 145.218 159.158 145.898 159.158 146.698V152.218H157.738V141.718H159.098V144.598L158.878 144.058C159.211 143.298 159.744 142.705 160.478 142.278C161.211 141.838 162.084 141.618 163.098 141.618ZM175.713 152.318C174.62 152.318 173.66 152.091 172.833 151.638C172.007 151.171 171.36 150.538 170.893 149.738C170.427 148.925 170.193 147.998 170.193 146.958C170.193 145.918 170.413 144.998 170.853 144.198C171.307 143.398 171.92 142.771 172.693 142.318C173.48 141.851 174.36 141.618 175.333 141.618C176.32 141.618 177.193 141.845 177.953 142.298C178.727 142.738 179.333 143.365 179.773 144.178C180.213 144.978 180.433 145.905 180.433 146.958C180.433 147.025 180.427 147.098 180.413 147.178C180.413 147.245 180.413 147.318 180.413 147.398H171.273V146.338H179.653L179.093 146.758C179.093 145.998 178.927 145.325 178.593 144.738C178.273 144.138 177.833 143.671 177.273 143.338C176.713 143.005 176.067 142.838 175.333 142.838C174.613 142.838 173.967 143.005 173.393 143.338C172.82 143.671 172.373 144.138 172.053 144.738C171.733 145.338 171.573 146.025 171.573 146.798V147.018C171.573 147.818 171.747 148.525 172.093 149.138C172.453 149.738 172.947 150.211 173.573 150.558C174.213 150.891 174.94 151.058 175.753 151.058C176.393 151.058 176.987 150.945 177.533 150.718C178.093 150.491 178.573 150.145 178.973 149.678L179.773 150.598C179.307 151.158 178.72 151.585 178.013 151.878C177.32 152.171 176.553 152.318 175.713 152.318ZM183.324 152.218V141.718H184.684V144.578L184.544 144.078C184.837 143.278 185.33 142.671 186.024 142.258C186.717 141.831 187.577 141.618 188.604 141.618V142.998C188.55 142.998 188.497 142.998 188.444 142.998C188.39 142.985 188.337 142.978 188.284 142.978C187.177 142.978 186.31 143.318 185.684 143.998C185.057 144.665 184.744 145.618 184.744 146.858V152.218H183.324ZM196.994 152.218V149.898L196.934 149.518V145.638C196.934 144.745 196.68 144.058 196.174 143.578C195.68 143.098 194.94 142.858 193.954 142.858C193.274 142.858 192.627 142.971 192.014 143.198C191.4 143.425 190.88 143.725 190.454 144.098L189.814 143.038C190.347 142.585 190.987 142.238 191.734 141.998C192.48 141.745 193.267 141.618 194.094 141.618C195.454 141.618 196.5 141.958 197.234 142.638C197.98 143.305 198.354 144.325 198.354 145.698V152.218H196.994ZM193.374 152.318C192.587 152.318 191.9 152.191 191.314 151.938C190.74 151.671 190.3 151.311 189.994 150.858C189.687 150.391 189.534 149.858 189.534 149.258C189.534 148.711 189.66 148.218 189.914 147.778C190.18 147.325 190.607 146.965 191.194 146.698C191.794 146.418 192.594 146.278 193.594 146.278H197.214V147.338H193.634C192.62 147.338 191.914 147.518 191.514 147.878C191.127 148.238 190.934 148.685 190.934 149.218C190.934 149.818 191.167 150.298 191.634 150.658C192.1 151.018 192.754 151.198 193.594 151.198C194.394 151.198 195.08 151.018 195.654 150.658C196.24 150.285 196.667 149.751 196.934 149.058L197.254 150.038C196.987 150.731 196.52 151.285 195.854 151.698C195.2 152.111 194.374 152.318 193.374 152.318ZM205.53 152.318C204.544 152.318 203.784 152.051 203.25 151.518C202.717 150.985 202.45 150.231 202.45 149.258V139.398H203.87V149.178C203.87 149.791 204.024 150.265 204.33 150.598C204.65 150.931 205.104 151.098 205.69 151.098C206.317 151.098 206.837 150.918 207.25 150.558L207.75 151.578C207.47 151.831 207.13 152.018 206.73 152.138C206.344 152.258 205.944 152.318 205.53 152.318ZM200.57 142.898V141.718H207.07V142.898H200.57ZM210.335 152.218V141.718H211.755V152.218H210.335ZM211.055 139.398C210.762 139.398 210.515 139.298 210.315 139.098C210.115 138.898 210.015 138.658 210.015 138.378C210.015 138.098 210.115 137.865 210.315 137.678C210.515 137.478 210.762 137.378 211.055 137.378C211.349 137.378 211.595 137.471 211.795 137.658C211.995 137.845 212.095 138.078 212.095 138.358C212.095 138.651 211.995 138.898 211.795 139.098C211.609 139.298 211.362 139.398 211.055 139.398ZM219.987 152.318C218.973 152.318 218.06 152.091 217.247 151.638C216.447 151.171 215.813 150.538 215.347 149.738C214.88 148.925 214.647 147.998 214.647 146.958C214.647 145.905 214.88 144.978 215.347 144.178C215.813 143.378 216.447 142.751 217.247 142.298C218.047 141.845 218.96 141.618 219.987 141.618C221.027 141.618 221.947 141.845 222.747 142.298C223.56 142.751 224.193 143.378 224.647 144.178C225.113 144.978 225.347 145.905 225.347 146.958C225.347 147.998 225.113 148.925 224.647 149.738C224.193 150.538 223.56 151.171 222.747 151.638C221.933 152.091 221.013 152.318 219.987 152.318ZM219.987 151.058C220.747 151.058 221.42 150.891 222.007 150.558C222.593 150.211 223.053 149.731 223.387 149.118C223.733 148.491 223.907 147.771 223.907 146.958C223.907 146.131 223.733 145.411 223.387 144.798C223.053 144.185 222.593 143.711 222.007 143.378C221.42 143.031 220.753 142.858 220.007 142.858C219.26 142.858 218.593 143.031 218.007 143.378C217.42 143.711 216.953 144.185 216.607 144.798C216.26 145.411 216.087 146.131 216.087 146.958C216.087 147.771 216.26 148.491 216.607 149.118C216.953 149.731 217.42 150.211 218.007 150.558C218.593 150.891 219.253 151.058 219.987 151.058ZM233.606 141.618C234.459 141.618 235.206 141.785 235.846 142.118C236.499 142.438 237.006 142.931 237.366 143.598C237.739 144.265 237.926 145.105 237.926 146.118V152.218H236.506V146.258C236.506 145.151 236.226 144.318 235.666 143.758C235.119 143.185 234.346 142.898 233.346 142.898C232.599 142.898 231.946 143.051 231.386 143.358C230.839 143.651 230.412 144.085 230.106 144.658C229.812 145.218 229.666 145.898 229.666 146.698V152.218H228.246V141.718H229.606V144.598L229.386 144.058C229.719 143.298 230.252 142.705 230.986 142.278C231.719 141.838 232.592 141.618 233.606 141.618ZM251.276 152.318C250.262 152.318 249.349 152.091 248.536 151.638C247.736 151.171 247.102 150.538 246.636 149.738C246.169 148.925 245.936 147.998 245.936 146.958C245.936 145.905 246.169 144.978 246.636 144.178C247.102 143.378 247.736 142.751 248.536 142.298C249.336 141.845 250.249 141.618 251.276 141.618C252.316 141.618 253.236 141.845 254.036 142.298C254.849 142.751 255.482 143.378 255.936 144.178C256.402 144.978 256.636 145.905 256.636 146.958C256.636 147.998 256.402 148.925 255.936 149.738C255.482 150.538 254.849 151.171 254.036 151.638C253.222 152.091 252.302 152.318 251.276 152.318ZM251.276 151.058C252.036 151.058 252.709 150.891 253.296 150.558C253.882 150.211 254.342 149.731 254.676 149.118C255.022 148.491 255.196 147.771 255.196 146.958C255.196 146.131 255.022 145.411 254.676 144.798C254.342 144.185 253.882 143.711 253.296 143.378C252.709 143.031 252.042 142.858 251.296 142.858C250.549 142.858 249.882 143.031 249.296 143.378C248.709 143.711 248.242 144.185 247.896 144.798C247.549 145.411 247.376 146.131 247.376 146.958C247.376 147.771 247.549 148.491 247.896 149.118C248.242 149.731 248.709 150.211 249.296 150.558C249.882 150.891 250.542 151.058 251.276 151.058ZM259.775 152.218V140.398C259.775 139.465 260.048 138.711 260.595 138.138C261.141 137.565 261.928 137.278 262.955 137.278C263.355 137.278 263.741 137.331 264.115 137.438C264.488 137.545 264.801 137.711 265.055 137.938L264.575 138.998C264.375 138.825 264.141 138.698 263.875 138.618C263.608 138.525 263.321 138.478 263.015 138.478C262.415 138.478 261.955 138.645 261.635 138.978C261.315 139.311 261.155 139.805 261.155 140.458V142.058L261.195 142.718V152.218H259.775ZM257.895 142.898V141.718H264.395V142.898H257.895ZM44.6955 176.318C43.6555 176.318 42.7221 176.091 41.8955 175.638C41.0821 175.171 40.4421 174.538 39.9755 173.738C39.5088 172.925 39.2755 171.998 39.2755 170.958C39.2755 169.905 39.5088 168.978 39.9755 168.178C40.4421 167.378 41.0821 166.751 41.8955 166.298C42.7221 165.845 43.6555 165.618 44.6955 165.618C45.5888 165.618 46.3955 165.791 47.1155 166.138C47.8355 166.485 48.4021 167.005 48.8155 167.698L47.7555 168.418C47.3955 167.885 46.9488 167.491 46.4155 167.238C45.8821 166.985 45.3021 166.858 44.6755 166.858C43.9288 166.858 43.2555 167.031 42.6555 167.378C42.0555 167.711 41.5821 168.185 41.2355 168.798C40.8888 169.411 40.7155 170.131 40.7155 170.958C40.7155 171.785 40.8888 172.505 41.2355 173.118C41.5821 173.731 42.0555 174.211 42.6555 174.558C43.2555 174.891 43.9288 175.058 44.6755 175.058C45.3021 175.058 45.8821 174.931 46.4155 174.678C46.9488 174.425 47.3955 174.038 47.7555 173.518L48.8155 174.238C48.4021 174.918 47.8355 175.438 47.1155 175.798C46.3955 176.145 45.5888 176.318 44.6955 176.318ZM55.7092 176.318C54.6959 176.318 53.7826 176.091 52.9692 175.638C52.1692 175.171 51.5359 174.538 51.0692 173.738C50.6026 172.925 50.3692 171.998 50.3692 170.958C50.3692 169.905 50.6026 168.978 51.0692 168.178C51.5359 167.378 52.1692 166.751 52.9692 166.298C53.7692 165.845 54.6826 165.618 55.7092 165.618C56.7492 165.618 57.6692 165.845 58.4692 166.298C59.2826 166.751 59.9159 167.378 60.3692 168.178C60.8359 168.978 61.0692 169.905 61.0692 170.958C61.0692 171.998 60.8359 172.925 60.3692 173.738C59.9159 174.538 59.2826 175.171 58.4692 175.638C57.6559 176.091 56.7359 176.318 55.7092 176.318ZM55.7092 175.058C56.4692 175.058 57.1426 174.891 57.7292 174.558C58.3159 174.211 58.7759 173.731 59.1092 173.118C59.4559 172.491 59.6292 171.771 59.6292 170.958C59.6292 170.131 59.4559 169.411 59.1092 168.798C58.7759 168.185 58.3159 167.711 57.7292 167.378C57.1426 167.031 56.4759 166.858 55.7292 166.858C54.9826 166.858 54.3159 167.031 53.7292 167.378C53.1426 167.711 52.6759 168.185 52.3292 168.798C51.9826 169.411 51.8092 170.131 51.8092 170.958C51.8092 171.771 51.9826 172.491 52.3292 173.118C52.6759 173.731 53.1426 174.211 53.7292 174.558C54.3159 174.891 54.9759 175.058 55.7092 175.058ZM63.9683 176.218V165.718H65.3283V168.578L65.1883 168.078C65.4816 167.278 65.9749 166.671 66.6683 166.258C67.3616 165.831 68.2216 165.618 69.2483 165.618V166.998C69.1949 166.998 69.1416 166.998 69.0883 166.998C69.0349 166.985 68.9816 166.978 68.9283 166.978C67.8216 166.978 66.9549 167.318 66.3283 167.998C65.7016 168.665 65.3883 169.618 65.3883 170.858V176.218H63.9683ZM77.2594 176.318C76.3527 176.318 75.5327 176.111 74.7994 175.698C74.066 175.271 73.4794 174.665 73.0394 173.878C72.6127 173.078 72.3994 172.105 72.3994 170.958C72.3994 169.811 72.6127 168.845 73.0394 168.058C73.466 167.258 74.046 166.651 74.7794 166.238C75.5127 165.825 76.3394 165.618 77.2594 165.618C78.2594 165.618 79.1527 165.845 79.9394 166.298C80.7394 166.738 81.366 167.365 81.8194 168.178C82.2727 168.978 82.4994 169.905 82.4994 170.958C82.4994 172.025 82.2727 172.958 81.8194 173.758C81.366 174.558 80.7394 175.185 79.9394 175.638C79.1527 176.091 78.2594 176.318 77.2594 176.318ZM71.8394 180.098V165.718H73.1994V168.878L73.0594 170.978L73.2594 173.098V180.098H71.8394ZM77.1594 175.058C77.906 175.058 78.5727 174.891 79.1594 174.558C79.746 174.211 80.2127 173.731 80.5594 173.118C80.906 172.491 81.0794 171.771 81.0794 170.958C81.0794 170.145 80.906 169.431 80.5594 168.818C80.2127 168.205 79.746 167.725 79.1594 167.378C78.5727 167.031 77.906 166.858 77.1594 166.858C76.4127 166.858 75.7394 167.031 75.1394 167.378C74.5527 167.725 74.086 168.205 73.7394 168.818C73.406 169.431 73.2394 170.145 73.2394 170.958C73.2394 171.771 73.406 172.491 73.7394 173.118C74.086 173.731 74.5527 174.211 75.1394 174.558C75.7394 174.891 76.4127 175.058 77.1594 175.058ZM89.6741 176.318C88.6607 176.318 87.7474 176.091 86.9341 175.638C86.1341 175.171 85.5007 174.538 85.0341 173.738C84.5674 172.925 84.3341 171.998 84.3341 170.958C84.3341 169.905 84.5674 168.978 85.0341 168.178C85.5007 167.378 86.1341 166.751 86.9341 166.298C87.7341 165.845 88.6474 165.618 89.6741 165.618C90.7141 165.618 91.6341 165.845 92.4341 166.298C93.2474 166.751 93.8807 167.378 94.3341 168.178C94.8007 168.978 95.0341 169.905 95.0341 170.958C95.0341 171.998 94.8007 172.925 94.3341 173.738C93.8807 174.538 93.2474 175.171 92.4341 175.638C91.6207 176.091 90.7007 176.318 89.6741 176.318ZM89.6741 175.058C90.4341 175.058 91.1074 174.891 91.6941 174.558C92.2807 174.211 92.7407 173.731 93.0741 173.118C93.4207 172.491 93.5941 171.771 93.5941 170.958C93.5941 170.131 93.4207 169.411 93.0741 168.798C92.7407 168.185 92.2807 167.711 91.6941 167.378C91.1074 167.031 90.4407 166.858 89.6941 166.858C88.9474 166.858 88.2807 167.031 87.6941 167.378C87.1074 167.711 86.6407 168.185 86.2941 168.798C85.9474 169.411 85.7741 170.131 85.7741 170.958C85.7741 171.771 85.9474 172.491 86.2941 173.118C86.6407 173.731 87.1074 174.211 87.6941 174.558C88.2807 174.891 88.9407 175.058 89.6741 175.058ZM97.9331 176.218V165.718H99.2931V168.578L99.1531 168.078C99.4465 167.278 99.9398 166.671 100.633 166.258C101.326 165.831 102.186 165.618 103.213 165.618V166.998C103.16 166.998 103.106 166.998 103.053 166.998C103 166.985 102.946 166.978 102.893 166.978C101.786 166.978 100.92 167.318 100.293 167.998C99.6665 168.665 99.3531 169.618 99.3531 170.858V176.218H97.9331ZM111.603 176.218V173.898L111.543 173.518V169.638C111.543 168.745 111.29 168.058 110.783 167.578C110.29 167.098 109.55 166.858 108.563 166.858C107.883 166.858 107.236 166.971 106.623 167.198C106.01 167.425 105.49 167.725 105.063 168.098L104.423 167.038C104.956 166.585 105.596 166.238 106.343 165.998C107.09 165.745 107.876 165.618 108.703 165.618C110.063 165.618 111.11 165.958 111.843 166.638C112.59 167.305 112.963 168.325 112.963 169.698V176.218H111.603ZM107.983 176.318C107.196 176.318 106.51 176.191 105.923 175.938C105.35 175.671 104.91 175.311 104.603 174.858C104.296 174.391 104.143 173.858 104.143 173.258C104.143 172.711 104.27 172.218 104.523 171.778C104.79 171.325 105.216 170.965 105.803 170.698C106.403 170.418 107.203 170.278 108.203 170.278H111.823V171.338H108.243C107.23 171.338 106.523 171.518 106.123 171.878C105.736 172.238 105.543 172.685 105.543 173.218C105.543 173.818 105.776 174.298 106.243 174.658C106.71 175.018 107.363 175.198 108.203 175.198C109.003 175.198 109.69 175.018 110.263 174.658C110.85 174.285 111.276 173.751 111.543 173.058L111.863 174.038C111.596 174.731 111.13 175.285 110.463 175.698C109.81 176.111 108.983 176.318 107.983 176.318ZM120.14 176.318C119.153 176.318 118.393 176.051 117.86 175.518C117.327 174.985 117.06 174.231 117.06 173.258V163.398H118.48V173.178C118.48 173.791 118.633 174.265 118.94 174.598C119.26 174.931 119.713 175.098 120.3 175.098C120.927 175.098 121.447 174.918 121.86 174.558L122.36 175.578C122.08 175.831 121.74 176.018 121.34 176.138C120.953 176.258 120.553 176.318 120.14 176.318ZM115.18 166.898V165.718H121.68V166.898H115.18ZM129.034 176.318C127.94 176.318 126.98 176.091 126.154 175.638C125.327 175.171 124.68 174.538 124.214 173.738C123.747 172.925 123.514 171.998 123.514 170.958C123.514 169.918 123.734 168.998 124.174 168.198C124.627 167.398 125.24 166.771 126.014 166.318C126.8 165.851 127.68 165.618 128.654 165.618C129.64 165.618 130.514 165.845 131.274 166.298C132.047 166.738 132.654 167.365 133.094 168.178C133.534 168.978 133.754 169.905 133.754 170.958C133.754 171.025 133.747 171.098 133.734 171.178C133.734 171.245 133.734 171.318 133.734 171.398H124.594V170.338H132.974L132.414 170.758C132.414 169.998 132.247 169.325 131.914 168.738C131.594 168.138 131.154 167.671 130.594 167.338C130.034 167.005 129.387 166.838 128.654 166.838C127.934 166.838 127.287 167.005 126.714 167.338C126.14 167.671 125.694 168.138 125.374 168.738C125.054 169.338 124.894 170.025 124.894 170.798V171.018C124.894 171.818 125.067 172.525 125.414 173.138C125.774 173.738 126.267 174.211 126.894 174.558C127.534 174.891 128.26 175.058 129.074 175.058C129.714 175.058 130.307 174.945 130.854 174.718C131.414 174.491 131.894 174.145 132.294 173.678L133.094 174.598C132.627 175.158 132.04 175.585 131.334 175.878C130.64 176.171 129.874 176.318 129.034 176.318ZM141.878 176.218V161.378H143.298V176.218H141.878ZM151.71 176.318C150.616 176.318 149.656 176.091 148.83 175.638C148.003 175.171 147.356 174.538 146.89 173.738C146.423 172.925 146.19 171.998 146.19 170.958C146.19 169.918 146.41 168.998 146.85 168.198C147.303 167.398 147.916 166.771 148.69 166.318C149.476 165.851 150.356 165.618 151.33 165.618C152.316 165.618 153.19 165.845 153.95 166.298C154.723 166.738 155.33 167.365 155.77 168.178C156.21 168.978 156.43 169.905 156.43 170.958C156.43 171.025 156.423 171.098 156.41 171.178C156.41 171.245 156.41 171.318 156.41 171.398H147.27V170.338H155.65L155.09 170.758C155.09 169.998 154.923 169.325 154.59 168.738C154.27 168.138 153.83 167.671 153.27 167.338C152.71 167.005 152.063 166.838 151.33 166.838C150.61 166.838 149.963 167.005 149.39 167.338C148.816 167.671 148.37 168.138 148.05 168.738C147.73 169.338 147.57 170.025 147.57 170.798V171.018C147.57 171.818 147.743 172.525 148.09 173.138C148.45 173.738 148.943 174.211 149.57 174.558C150.21 174.891 150.936 175.058 151.75 175.058C152.39 175.058 152.983 174.945 153.53 174.718C154.09 174.491 154.57 174.145 154.97 173.678L155.77 174.598C155.303 175.158 154.716 175.585 154.01 175.878C153.316 176.171 152.55 176.318 151.71 176.318ZM165.607 176.218V173.898L165.547 173.518V169.638C165.547 168.745 165.294 168.058 164.787 167.578C164.294 167.098 163.554 166.858 162.567 166.858C161.887 166.858 161.24 166.971 160.627 167.198C160.014 167.425 159.494 167.725 159.067 168.098L158.427 167.038C158.96 166.585 159.6 166.238 160.347 165.998C161.094 165.745 161.88 165.618 162.707 165.618C164.067 165.618 165.114 165.958 165.847 166.638C166.594 167.305 166.967 168.325 166.967 169.698V176.218H165.607ZM161.987 176.318C161.2 176.318 160.514 176.191 159.927 175.938C159.354 175.671 158.914 175.311 158.607 174.858C158.3 174.391 158.147 173.858 158.147 173.258C158.147 172.711 158.274 172.218 158.527 171.778C158.794 171.325 159.22 170.965 159.807 170.698C160.407 170.418 161.207 170.278 162.207 170.278H165.827V171.338H162.247C161.234 171.338 160.527 171.518 160.127 171.878C159.74 172.238 159.547 172.685 159.547 173.218C159.547 173.818 159.78 174.298 160.247 174.658C160.714 175.018 161.367 175.198 162.207 175.198C163.007 175.198 163.694 175.018 164.267 174.658C164.854 174.285 165.28 173.751 165.547 173.058L165.867 174.038C165.6 174.731 165.134 175.285 164.467 175.698C163.814 176.111 162.987 176.318 161.987 176.318ZM170.824 176.218V165.718H172.184V168.578L172.044 168.078C172.337 167.278 172.83 166.671 173.524 166.258C174.217 165.831 175.077 165.618 176.104 165.618V166.998C176.05 166.998 175.997 166.998 175.944 166.998C175.89 166.985 175.837 166.978 175.784 166.978C174.677 166.978 173.81 167.318 173.184 167.998C172.557 168.665 172.244 169.618 172.244 170.858V176.218H170.824ZM184.055 165.618C184.908 165.618 185.655 165.785 186.295 166.118C186.948 166.438 187.455 166.931 187.815 167.598C188.188 168.265 188.375 169.105 188.375 170.118V176.218H186.955V170.258C186.955 169.151 186.675 168.318 186.115 167.758C185.568 167.185 184.795 166.898 183.795 166.898C183.048 166.898 182.395 167.051 181.835 167.358C181.288 167.651 180.862 168.085 180.555 168.658C180.262 169.218 180.115 169.898 180.115 170.698V176.218H178.695V165.718H180.055V168.598L179.835 168.058C180.168 167.298 180.702 166.705 181.435 166.278C182.168 165.838 183.042 165.618 184.055 165.618ZM192.21 176.218V165.718H193.63V176.218H192.21ZM192.93 163.398C192.637 163.398 192.39 163.298 192.19 163.098C191.99 162.898 191.89 162.658 191.89 162.378C191.89 162.098 191.99 161.865 192.19 161.678C192.39 161.478 192.637 161.378 192.93 161.378C193.224 161.378 193.47 161.471 193.67 161.658C193.87 161.845 193.97 162.078 193.97 162.358C193.97 162.651 193.87 162.898 193.67 163.098C193.484 163.298 193.237 163.398 192.93 163.398ZM202.942 165.618C203.795 165.618 204.542 165.785 205.182 166.118C205.835 166.438 206.342 166.931 206.702 167.598C207.075 168.265 207.262 169.105 207.262 170.118V176.218H205.842V170.258C205.842 169.151 205.562 168.318 205.002 167.758C204.455 167.185 203.682 166.898 202.682 166.898C201.935 166.898 201.282 167.051 200.722 167.358C200.175 167.651 199.748 168.085 199.442 168.658C199.148 169.218 199.002 169.898 199.002 170.698V176.218H197.582V165.718H198.942V168.598L198.722 168.058C199.055 167.298 199.588 166.705 200.322 166.278C201.055 165.838 201.928 165.618 202.942 165.618ZM215.577 180.198C214.617 180.198 213.697 180.058 212.817 179.778C211.937 179.498 211.224 179.098 210.677 178.578L211.397 177.498C211.891 177.938 212.497 178.285 213.217 178.538C213.951 178.805 214.724 178.938 215.537 178.938C216.871 178.938 217.851 178.625 218.477 177.998C219.104 177.385 219.417 176.425 219.417 175.118V172.498L219.617 170.698L219.477 168.898V165.718H220.837V174.938C220.837 176.751 220.391 178.078 219.497 178.918C218.617 179.771 217.311 180.198 215.577 180.198ZM215.317 175.818C214.317 175.818 213.417 175.605 212.617 175.178C211.817 174.738 211.184 174.131 210.717 173.358C210.264 172.585 210.037 171.698 210.037 170.698C210.037 169.698 210.264 168.818 210.717 168.058C211.184 167.285 211.817 166.685 212.617 166.258C213.417 165.831 214.317 165.618 215.317 165.618C216.251 165.618 217.091 165.811 217.837 166.198C218.584 166.585 219.177 167.158 219.617 167.918C220.057 168.678 220.277 169.605 220.277 170.698C220.277 171.791 220.057 172.718 219.617 173.478C219.177 174.238 218.584 174.818 217.837 175.218C217.091 175.618 216.251 175.818 215.317 175.818ZM215.457 174.558C216.231 174.558 216.917 174.398 217.517 174.078C218.117 173.745 218.591 173.291 218.937 172.718C219.284 172.131 219.457 171.458 219.457 170.698C219.457 169.938 219.284 169.271 218.937 168.698C218.591 168.125 218.117 167.678 217.517 167.358C216.917 167.025 216.231 166.858 215.457 166.858C214.697 166.858 214.011 167.025 213.397 167.358C212.797 167.678 212.324 168.125 211.977 168.698C211.644 169.271 211.477 169.938 211.477 170.698C211.477 171.458 211.644 172.131 211.977 172.718C212.324 173.291 212.797 173.745 213.397 174.078C214.011 174.398 214.697 174.558 215.457 174.558ZM224.929 176.318C224.635 176.318 224.382 176.211 224.169 175.998C223.969 175.785 223.869 175.525 223.869 175.218C223.869 174.898 223.969 174.638 224.169 174.438C224.382 174.238 224.635 174.138 224.929 174.138C225.222 174.138 225.469 174.238 225.669 174.438C225.882 174.638 225.989 174.898 225.989 175.218C225.989 175.525 225.882 175.785 225.669 175.998C225.469 176.211 225.222 176.318 224.929 176.318Z" fill="white"/>
<path d="M40.0155 239.609V225.609H43.2555V236.969H50.2755V239.609H40.0155ZM57.1667 239.769C55.9401 239.769 54.8601 239.529 53.9267 239.049C53.0067 238.569 52.2934 237.916 51.7867 237.089C51.2801 236.249 51.0267 235.296 51.0267 234.229C51.0267 233.149 51.2734 232.196 51.7667 231.369C52.2734 230.529 52.9601 229.876 53.8267 229.409C54.6934 228.929 55.6734 228.689 56.7667 228.689C57.8201 228.689 58.7667 228.916 59.6067 229.369C60.4601 229.809 61.1334 230.449 61.6267 231.289C62.1201 232.116 62.3667 233.109 62.3667 234.269C62.3667 234.389 62.3601 234.529 62.3467 234.689C62.3334 234.836 62.3201 234.976 62.3067 235.109H53.5667V233.289H60.6667L59.4667 233.829C59.4667 233.269 59.3534 232.782 59.1267 232.369C58.9001 231.956 58.5867 231.636 58.1867 231.409C57.7867 231.169 57.3201 231.049 56.7867 231.049C56.2534 231.049 55.7801 231.169 55.3667 231.409C54.9667 231.636 54.6534 231.962 54.4267 232.389C54.2001 232.802 54.0867 233.296 54.0867 233.869V234.349C54.0867 234.936 54.2134 235.456 54.4667 235.909C54.7334 236.349 55.1001 236.689 55.5667 236.929C56.0467 237.156 56.6067 237.269 57.2467 237.269C57.8201 237.269 58.3201 237.182 58.7467 237.009C59.1867 236.836 59.5867 236.576 59.9467 236.229L61.6067 238.029C61.1134 238.589 60.4934 239.022 59.7467 239.329C59.0001 239.622 58.1401 239.769 57.1667 239.769ZM70.7509 239.609V237.509L70.5509 237.049V233.289C70.5509 232.622 70.3443 232.102 69.9309 231.729C69.5309 231.356 68.9109 231.169 68.0709 231.169C67.4976 231.169 66.9309 231.262 66.3709 231.449C65.8243 231.622 65.3576 231.862 64.9709 232.169L63.8509 229.989C64.4376 229.576 65.1443 229.256 65.9709 229.029C66.7976 228.802 67.6376 228.689 68.4909 228.689C70.1309 228.689 71.4043 229.076 72.3109 229.849C73.2176 230.622 73.6709 231.829 73.6709 233.469V239.609H70.7509ZM67.4709 239.769C66.6309 239.769 65.9109 239.629 65.3109 239.349C64.7109 239.056 64.2509 238.662 63.9309 238.169C63.6109 237.676 63.4509 237.122 63.4509 236.509C63.4509 235.869 63.6043 235.309 63.9109 234.829C64.2309 234.349 64.7309 233.976 65.4109 233.709C66.0909 233.429 66.9776 233.289 68.0709 233.289H70.9309V235.109H68.4109C67.6776 235.109 67.1709 235.229 66.8909 235.469C66.6243 235.709 66.4909 236.009 66.4909 236.369C66.4909 236.769 66.6443 237.089 66.9509 237.329C67.2709 237.556 67.7043 237.669 68.2509 237.669C68.7709 237.669 69.2376 237.549 69.6509 237.309C70.0643 237.056 70.3643 236.689 70.5509 236.209L71.0309 237.649C70.8043 238.342 70.3909 238.869 69.7909 239.229C69.1909 239.589 68.4176 239.769 67.4709 239.769ZM76.4947 239.609V228.849H79.4747V231.889L79.0547 231.009C79.3747 230.249 79.888 229.676 80.5947 229.289C81.3014 228.889 82.1614 228.689 83.1747 228.689V231.569C83.0414 231.556 82.9214 231.549 82.8147 231.549C82.708 231.536 82.5947 231.529 82.4747 231.529C81.6214 231.529 80.928 231.776 80.3947 232.269C79.8747 232.749 79.6147 233.502 79.6147 234.529V239.609H76.4947ZM91.5894 228.689C92.4427 228.689 93.2027 228.862 93.8694 229.209C94.5494 229.542 95.0827 230.062 95.4694 230.769C95.856 231.462 96.0494 232.356 96.0494 233.449V239.609H92.9294V233.929C92.9294 233.062 92.736 232.422 92.3494 232.009C91.976 231.596 91.4427 231.389 90.7494 231.389C90.256 231.389 89.8094 231.496 89.4094 231.709C89.0227 231.909 88.716 232.222 88.4894 232.649C88.276 233.076 88.1694 233.622 88.1694 234.289V239.609H85.0494V228.849H88.0294V231.829L87.4694 230.929C87.856 230.209 88.4094 229.656 89.1294 229.269C89.8494 228.882 90.6694 228.689 91.5894 228.689ZM118.322 228.689C119.175 228.689 119.928 228.862 120.582 229.209C121.248 229.542 121.768 230.062 122.142 230.769C122.528 231.462 122.722 232.356 122.722 233.449V239.609H119.602V233.929C119.602 233.062 119.422 232.422 119.062 232.009C118.702 231.596 118.195 231.389 117.542 231.389C117.088 231.389 116.682 231.496 116.322 231.709C115.962 231.909 115.682 232.216 115.482 232.629C115.282 233.042 115.182 233.569 115.182 234.209V239.609H112.062V233.929C112.062 233.062 111.882 232.422 111.522 232.009C111.175 231.596 110.675 231.389 110.022 231.389C109.568 231.389 109.162 231.496 108.802 231.709C108.442 231.909 108.162 232.216 107.962 232.629C107.762 233.042 107.662 233.569 107.662 234.209V239.609H104.542V228.849H107.522V231.789L106.962 230.929C107.335 230.196 107.862 229.642 108.542 229.269C109.235 228.882 110.022 228.689 110.902 228.689C111.888 228.689 112.748 228.942 113.482 229.449C114.228 229.942 114.722 230.702 114.962 231.729L113.862 231.429C114.222 230.589 114.795 229.922 115.582 229.429C116.382 228.936 117.295 228.689 118.322 228.689ZM130.716 239.769C129.57 239.769 128.55 239.529 127.656 239.049C126.776 238.569 126.076 237.916 125.556 237.089C125.05 236.249 124.796 235.296 124.796 234.229C124.796 233.149 125.05 232.196 125.556 231.369C126.076 230.529 126.776 229.876 127.656 229.409C128.55 228.929 129.57 228.689 130.716 228.689C131.85 228.689 132.863 228.929 133.756 229.409C134.65 229.876 135.35 230.522 135.856 231.349C136.363 232.176 136.616 233.136 136.616 234.229C136.616 235.296 136.363 236.249 135.856 237.089C135.35 237.916 134.65 238.569 133.756 239.049C132.863 239.529 131.85 239.769 130.716 239.769ZM130.716 237.209C131.236 237.209 131.703 237.089 132.116 236.849C132.53 236.609 132.856 236.269 133.096 235.829C133.336 235.376 133.456 234.842 133.456 234.229C133.456 233.602 133.336 233.069 133.096 232.629C132.856 232.189 132.53 231.849 132.116 231.609C131.703 231.369 131.236 231.249 130.716 231.249C130.196 231.249 129.73 231.369 129.316 231.609C128.903 231.849 128.57 232.189 128.316 232.629C128.076 233.069 127.956 233.602 127.956 234.229C127.956 234.842 128.076 235.376 128.316 235.829C128.57 236.269 128.903 236.609 129.316 236.849C129.73 237.089 130.196 237.209 130.716 237.209ZM138.702 239.609V228.849H141.682V231.889L141.262 231.009C141.582 230.249 142.095 229.676 142.802 229.289C143.508 228.889 144.368 228.689 145.382 228.689V231.569C145.248 231.556 145.128 231.549 145.022 231.549C144.915 231.536 144.802 231.529 144.682 231.529C143.828 231.529 143.135 231.776 142.602 232.269C142.082 232.749 141.822 233.502 141.822 234.529V239.609H138.702ZM152.499 239.769C151.272 239.769 150.192 239.529 149.259 239.049C148.339 238.569 147.625 237.916 147.119 237.089C146.612 236.249 146.359 235.296 146.359 234.229C146.359 233.149 146.605 232.196 147.099 231.369C147.605 230.529 148.292 229.876 149.159 229.409C150.025 228.929 151.005 228.689 152.099 228.689C153.152 228.689 154.099 228.916 154.939 229.369C155.792 229.809 156.465 230.449 156.959 231.289C157.452 232.116 157.699 233.109 157.699 234.269C157.699 234.389 157.692 234.529 157.679 234.689C157.665 234.836 157.652 234.976 157.639 235.109H148.899V233.289H155.999L154.799 233.829C154.799 233.269 154.685 232.782 154.459 232.369C154.232 231.956 153.919 231.636 153.519 231.409C153.119 231.169 152.652 231.049 152.119 231.049C151.585 231.049 151.112 231.169 150.699 231.409C150.299 231.636 149.985 231.962 149.759 232.389C149.532 232.802 149.419 233.296 149.419 233.869V234.349C149.419 234.936 149.545 235.456 149.799 235.909C150.065 236.349 150.432 236.689 150.899 236.929C151.379 237.156 151.939 237.269 152.579 237.269C153.152 237.269 153.652 237.182 154.079 237.009C154.519 236.836 154.919 236.576 155.279 236.229L156.939 238.029C156.445 238.589 155.825 239.022 155.079 239.329C154.332 239.622 153.472 239.769 152.499 239.769Z" fill="white"/>
</svg>
