<svg width="50" height="50" viewBox="0 0 50 50" fill="none" xmlns="http://www.w3.org/2000/svg">
<rect width="50" height="50" rx="12" fill="#FFC01D"/>
<g clip-path="url(#clip0_43_1173)">
<mask id="mask0_43_1173" style="mask-type:luminance" maskUnits="userSpaceOnUse" x="13" y="13" width="24" height="24">
<path d="M13 13.1482H36.9648V36.9824H13V13.1482Z" fill="white"/>
</mask>
<g mask="url(#mask0_43_1173)">
<path d="M33.1972 26.8332C33.1972 27.2805 32.9243 27.6775 32.5201 27.8196C30.592 28.4923 27.9246 28.9084 24.9802 28.9084C22.0369 28.9084 19.3695 28.4923 17.4403 27.8196C17.0372 27.6775 16.7635 27.2805 16.7635 26.8332V18.1917C16.7635 17.668 17.1677 17.2438 17.6674 17.2438H32.2941C32.7938 17.2438 33.1972 17.668 33.1972 18.1917V26.8332ZM33.1972 30.9969C33.1972 32.0525 32.2459 32.909 31.0733 32.909H28.4216C27.8021 32.909 27.6038 32.1581 28.1578 31.9075L32.3756 30.0024C32.7525 29.832 33.1972 30.0788 33.1972 30.4593V30.9969ZM21.5388 32.909H18.8874C17.7148 32.909 16.7635 32.0525 16.7635 30.9969V30.4593C16.7635 30.0788 17.2082 29.832 17.5851 30.0024L21.8029 31.9075C22.3566 32.1581 22.1586 32.909 21.5388 32.909ZM20.6303 14.6347C20.6303 14.4784 20.7511 14.3526 20.899 14.3526H29.0625C29.2107 14.3526 29.3301 14.4784 29.3301 14.6347V15.9987C29.3301 16.1549 29.2107 16.2808 29.0625 16.2808H20.899C20.7511 16.2808 20.6303 16.1549 20.6303 15.9987V14.6347ZM36.5361 19.172H36.2828V18.9339C36.2828 18.4874 35.937 18.1243 35.5116 18.1243H34.5581V15.8077C34.5581 15.5033 34.4945 15.214 34.3822 14.9533C34.1212 14.3442 33.5713 13.9304 32.9477 13.8005C32.8318 13.7759 32.7159 13.7527 32.6005 13.7305C28.9196 13.0189 24.9802 13.1711 24.9802 13.1711C24.9802 13.1711 21.0411 13.0189 17.361 13.7305C17.2451 13.7527 17.13 13.7759 17.0138 13.8005C16.3904 13.9304 15.8403 14.3442 15.5782 14.9533C15.4673 15.214 15.4034 15.5033 15.4034 15.8077V18.1243H14.4502C14.0248 18.1243 13.6787 18.4874 13.6787 18.9339V19.172H13.4254C13.1917 19.172 13.002 19.3708 13.002 19.6164V23.0924C13.002 23.3378 13.1917 23.5369 13.4254 23.5369H14.5121C14.7459 23.5369 14.9353 23.3378 14.9353 23.0924V19.6164C14.9353 19.3708 14.7459 19.172 14.5121 19.172H14.2588V18.9339C14.2588 18.8233 14.3445 18.7333 14.4502 18.7333H15.4034V32.1998C15.4034 33.2883 16.0198 34.2247 16.9053 34.648V36.4518C16.9053 36.7458 17.1322 36.9836 17.4119 36.9836H20.0474C20.3271 36.9836 20.554 36.7458 20.554 36.4518V34.889H29.4078V36.4518C29.4078 36.7458 29.6344 36.9836 29.9144 36.9836H32.5496C32.8296 36.9836 33.0562 36.7458 33.0562 36.4518V34.648C33.9419 34.2247 34.5581 33.2883 34.5581 32.1998V18.7333H35.5116C35.617 18.7333 35.7027 18.8233 35.7027 18.9339V19.172H35.4496C35.2156 19.172 35.0262 19.3708 35.0262 19.6164V23.0924C35.0262 23.3378 35.2156 23.5369 35.4496 23.5369H36.5361C36.7701 23.5369 36.9596 23.3378 36.9596 23.0924V19.6164C36.9596 19.3708 36.7701 19.172 36.5361 19.172Z" fill="#161A23"/>
</g>
</g>
<defs>
<clipPath id="clip0_43_1173">
<rect width="24" height="24" fill="white" transform="translate(13 13)"/>
</clipPath>
</defs>
</svg>
