<svg width="50" height="50" viewBox="0 0 50 50" fill="none" xmlns="http://www.w3.org/2000/svg">
<rect width="50" height="50" rx="12" fill="#FFC01D"/>
<path d="M19 23H19.75C20.4404 23 21 23.5596 21 24.25V27.75C21 28.4404 20.4404 29 19.75 29H19C17.3431 29 16 27.6569 16 26C16 24.3431 17.3431 23 19 23ZM19 23V22C19 18.6863 21.6863 16 25 16C28.3137 16 31 18.6863 31 22V23M31 23H30.25C29.5596 23 29 23.5596 29 24.25V27.75C29 28.4404 29.5596 29 30.25 29H31M31 23C32.6569 23 34 24.3431 34 26C34 27.6569 32.6569 29 31 29M31 29L30.3787 31.4851C30.1561 32.3754 29.3562 33 28.4384 33H26" stroke="black" strokeWidth="2" strokeLinecap="round" strokeLinejoin="round"/>
</svg>
