<svg width="443" height="335" viewBox="0 0 443 335" fill="none" xmlns="http://www.w3.org/2000/svg">
<g opacity="0.3">
<path d="M61.8406 67.2237C20.8406 100.084 -3.4594 160.384 0.400598 223.354C2.3706 255.554 11.4606 286.614 35.5006 303.574C99.6106 348.804 379.481 349.584 420.901 269.644C462.331 189.714 446.911 76.1337 356.831 28.8237C278.761 -12.1963 167.731 -17.6162 61.8406 67.2237Z" fill="#E6E6E6"/>
</g>
<path d="M291.884 146.507L158.862 69.7302C156.604 68.429 154.043 67.7441 151.436 67.7441C148.829 67.7441 146.268 68.429 144.01 69.7302L88.875 101.557C86.6152 102.859 84.7382 104.733 83.4331 106.991C82.128 109.249 81.4407 111.811 81.4404 114.419V198.214C81.4407 200.821 82.1271 203.382 83.4307 205.64C84.7343 207.897 86.6091 209.772 88.8668 211.076L221.889 287.885V186.903L291.884 146.507Z" fill="#FFC01D"/>
<path opacity="0.6" d="M291.884 146.507L158.862 69.7302C156.604 68.429 154.043 67.7441 151.436 67.7441C148.829 67.7441 146.268 68.429 144.01 69.7302L88.875 101.557C86.6152 102.859 84.7382 104.733 83.4331 106.991C82.128 109.249 81.4407 111.811 81.4404 114.419V198.214C81.4407 200.821 82.1271 203.382 83.4307 205.64C84.7343 207.897 86.6091 209.772 88.8668 211.076L221.889 287.885V186.903L291.884 146.507Z" fill="white"/>
<path d="M107.203 221.667L121.893 214.869C121.893 214.869 120.734 200.996 111.031 204.334C101.327 207.672 107.203 221.667 107.203 221.667Z" fill="#FFC01D"/>
<g opacity="0.5">
<path d="M107.203 221.667L121.893 214.869C121.893 214.869 120.734 200.996 111.031 204.334C101.327 207.672 107.203 221.667 107.203 221.667Z" fill="black"/>
</g>
<path d="M115.292 219.938L112.126 213.646L119.658 209.288C122.058 207.909 125.249 208.064 128.75 210.104C136.192 214.397 142.223 225.479 142.223 234.848C142.223 239.744 140.591 243.221 137.922 244.796L137.816 244.861L130.088 249.317L126.742 242.657C120.393 237.834 115.537 228.294 115.292 219.938Z" fill="#263238"/>
<path d="M107.441 223.806C107.441 231.885 111.93 241.237 117.936 246.411C118.859 247.204 119.851 247.914 120.899 248.533C128.341 252.834 134.372 248.713 134.364 239.344C134.364 232.26 130.928 224.206 126.032 218.836L125.991 218.795C124.518 217.145 122.801 215.73 120.899 214.6C113.472 210.324 107.441 214.429 107.441 223.806Z" fill="#455A64"/>
<path d="M120.915 220.273C116.182 217.539 112.338 220.388 112.338 226.631C112.338 232.874 116.182 240.161 120.915 242.895C125.648 245.629 129.484 242.781 129.484 236.53C129.484 230.278 125.648 223.007 120.915 220.273Z" fill="#37474F"/>
<path d="M120.915 225.707C118.467 224.287 116.468 225.773 116.468 228.972C116.468 232.171 118.459 235.99 120.915 237.41C123.372 238.83 125.363 237.353 125.363 234.146C125.363 230.938 123.372 227.152 120.915 225.707Z" fill="#E0E0E0"/>
<path d="M119.495 225.651C119.191 225.471 118.861 225.339 118.516 225.259C117.284 225.585 116.468 226.94 116.468 229.013C116.546 231.464 117.423 233.822 118.965 235.729C119.135 235.859 119.312 235.979 119.495 236.088C121.674 237.345 123.445 236.031 123.445 233.15C123.445 230.27 121.674 226.915 119.495 225.651Z" fill="#F5F5F5"/>
<path opacity="0.05" d="M107.441 223.805C107.441 231.885 111.93 241.237 117.936 246.411C113.768 241.689 110.833 236.009 109.392 229.877C108.249 224.475 108.682 216.714 113.317 214.755C117.953 212.796 124.073 216.926 126.007 218.835C124.534 217.185 122.817 215.77 120.915 214.641C113.472 210.324 107.441 214.429 107.441 223.805Z" fill="white"/>
<path d="M81.4404 114.646V198.245C81.441 200.843 82.1253 203.394 83.4246 205.643C84.724 207.892 86.5925 209.76 88.8423 211.058L107.204 221.667V220.328C107.204 211.515 112.484 207.214 119.568 209.352C119.943 209.466 120.319 209.597 120.71 209.744C121.616 210.105 122.494 210.53 123.338 211.017C132.315 216.174 139.546 228.709 139.546 239.017C139.544 239.437 139.497 239.855 139.407 240.265L221.913 287.884V186.902L89.079 110.239C88.3051 109.792 87.4272 109.557 86.5336 109.557C85.64 109.556 84.7621 109.792 83.988 110.238C83.214 110.685 82.5711 111.327 82.1239 112.101C81.6767 112.874 81.441 113.752 81.4404 114.646Z" fill="#FFC01D"/>
<path opacity="0.3" d="M81.4404 114.646V198.245C81.441 200.843 82.1253 203.394 83.4246 205.643C84.724 207.892 86.5925 209.76 88.8423 211.058L107.204 221.667V220.328C107.204 211.515 112.484 207.214 119.568 209.352C119.943 209.466 120.319 209.597 120.71 209.744C121.616 210.105 122.494 210.53 123.338 211.017C132.315 216.174 139.546 228.709 139.546 239.017C139.544 239.437 139.497 239.855 139.407 240.265L221.913 287.884V186.902L89.079 110.239C88.3051 109.792 87.4272 109.557 86.5336 109.557C85.64 109.556 84.7621 109.792 83.988 110.238C83.214 110.685 82.5711 111.327 82.1239 112.101C81.6767 112.874 81.441 113.752 81.4404 114.646Z" fill="white"/>
<path d="M244.03 132.643L191.344 102.22L176.98 110.519V111.548L229.659 141.971L244.03 133.672V132.643Z" fill="#FFC01D"/>
<path d="M176.98 110.519L229.659 140.935L244.03 132.643L191.344 102.22L176.98 110.519Z" fill="#FFC01D"/>
<path opacity="0.4" d="M176.98 110.518L229.659 140.933L244.03 132.642L191.344 102.594L176.98 110.518Z" fill="white"/>
<path opacity="0.15" d="M176.98 110.518L229.659 140.933V141.969L176.98 111.546V110.518Z" fill="black"/>
<path d="M229.657 140.934L244.028 132.643V133.671L229.657 141.97V140.934Z" fill="#FFC01D"/>
<path d="M229.666 140.95L176.98 110.526L162.608 118.826V121.592L215.295 150.278L229.666 141.978V140.95Z" fill="#EBEBEB"/>
<path d="M162.608 118.826L215.295 149.241L229.666 140.95L176.98 110.526L162.608 118.826Z" fill="#FFC01D"/>
<path opacity="0.6" d="M162.608 118.826L215.295 149.241L229.666 140.95L176.98 110.526L162.608 118.826Z" fill="white"/>
<path d="M215.294 149.241L229.665 140.949V141.977L215.294 150.277V149.241Z" fill="#FFC01D"/>
<path opacity="0.3" d="M215.294 149.241L229.665 140.949V141.977L215.294 150.277V149.241Z" fill="white"/>
<path d="M215.296 149.232L162.609 118.809L148.246 127.108V128.145L200.924 158.56L215.296 150.26V149.232Z" fill="#FFC01D"/>
<path d="M148.246 127.108L200.924 157.524L215.296 149.232L162.609 118.809L148.246 127.108Z" fill="#FFC01D"/>
<path opacity="0.4" d="M148.979 127.108L200.923 157.524L215.295 149.232L162.608 118.809L148.979 127.108Z" fill="white"/>
<path opacity="0.15" d="M148.246 127.109L200.924 157.525V158.561L148.246 128.146V127.109Z" fill="white"/>
<path d="M200.923 157.525L215.294 149.233V150.262L200.923 158.561V157.525Z" fill="#FFC01D"/>
<path d="M214.315 145.765L223.683 140.354C224.247 140.036 224.54 139.677 224.336 139.538C223.844 139.489 223.35 139.623 222.949 139.914L213.572 145.324C213.009 145.651 212.715 146.002 212.919 146.14C213.415 146.188 213.91 146.055 214.315 145.765Z" fill="#455A64"/>
<path d="M210.22 143.398L219.596 137.996C220.16 137.669 220.413 137.31 220.249 137.179C219.753 137.134 219.257 137.27 218.854 137.563L209.485 142.965C208.914 143.292 208.628 143.651 208.832 143.782C209.326 143.826 209.819 143.689 210.22 143.398Z" fill="#455A64"/>
<path d="M206.122 141.031L215.499 135.629C216.062 135.302 216.315 134.943 216.151 134.813C215.655 134.769 215.16 134.905 214.756 135.196L205.387 140.648C204.824 140.974 204.571 141.333 204.734 141.464C205.234 141.494 205.728 141.34 206.122 141.031Z" fill="#455A64"/>
<path d="M202.001 138.663L211.402 133.302C211.973 132.975 212.259 132.624 212.055 132.486C211.561 132.442 211.069 132.578 210.668 132.869L201.291 138.272C200.728 138.598 200.434 138.957 200.638 139.088C201.128 139.113 201.612 138.962 202.001 138.663Z" fill="#455A64"/>
<path d="M197.92 136.307L207.297 130.896C207.86 130.578 208.154 130.219 207.95 130.08C207.455 130.035 206.96 130.168 206.554 130.455L197.185 135.866C196.622 136.192 196.329 136.543 196.533 136.682C197.025 136.731 197.519 136.597 197.92 136.307Z" fill="#455A64"/>
<path d="M193.84 133.94L203.209 128.537C203.772 128.211 204.065 127.852 203.861 127.721C203.368 127.677 202.875 127.813 202.474 128.105L193.097 133.507C192.534 133.834 192.281 134.193 192.444 134.323C192.941 134.368 193.436 134.232 193.84 133.94Z" fill="#455A64"/>
<path d="M189.76 131.574L199.137 126.171C199.7 125.845 199.953 125.486 199.789 125.355C199.293 125.31 198.798 125.447 198.394 125.739L189.025 131.141C188.462 131.467 188.168 131.827 188.372 131.957C188.866 132.001 189.359 131.865 189.76 131.574Z" fill="#455A64"/>
<path d="M185.678 129.223L195.046 123.82C195.609 123.494 195.862 123.143 195.699 123.004C195.206 122.96 194.713 123.096 194.312 123.388L184.935 128.79C184.372 129.117 184.119 129.476 184.282 129.606C184.778 129.65 185.274 129.514 185.678 129.223Z" fill="#455A64"/>
<path d="M181.599 126.848L190.975 121.438C191.538 121.119 191.791 120.76 191.62 120.622C191.128 120.577 190.636 120.71 190.233 120.997L180.864 126.408C180.293 126.734 180.007 127.085 180.211 127.224C180.704 127.273 181.198 127.139 181.599 126.848Z" fill="#455A64"/>
<path d="M177.469 124.481L186.846 119.078C187.409 118.752 187.662 118.393 187.498 118.262C187.002 118.218 186.507 118.354 186.103 118.646L176.702 124.064C176.139 124.391 175.886 124.75 176.049 124.88C176.555 124.928 177.062 124.786 177.469 124.481Z" fill="#455A64"/>
<path d="M173.38 122.115L182.749 116.713C183.32 116.386 183.606 116.027 183.402 115.897C182.908 115.853 182.415 115.989 182.014 116.28L172.621 121.699C172.058 122.026 171.764 122.385 171.968 122.515C172.472 122.559 172.974 122.417 173.38 122.115Z" fill="#455A64"/>
<path d="M169.283 119.756L178.66 114.345C179.223 114.018 179.476 113.668 179.313 113.529C178.817 113.484 178.321 113.62 177.917 113.912L168.541 119.331C167.977 119.658 167.724 120.017 167.888 120.147C168.385 120.189 168.88 120.05 169.283 119.756Z" fill="#455A64"/>
<path d="M102.193 209.696V212.21C102.193 212.724 101.826 212.936 101.377 212.675L91.5837 207.036C91.3469 206.882 91.1497 206.675 91.0079 206.431C90.8661 206.187 90.7838 205.914 90.7676 205.632V203.11C90.7676 202.596 91.1267 202.384 91.5837 202.645L101.377 208.292C101.615 208.444 101.813 208.651 101.955 208.895C102.097 209.139 102.179 209.414 102.193 209.696Z" fill="white"/>
<g opacity="0.2">
<path d="M219.212 283.037L196.729 270.053C196.686 270.028 196.65 269.992 196.626 269.949C196.602 269.906 196.589 269.857 196.59 269.808V254.229C196.589 254.18 196.601 254.133 196.626 254.091C196.65 254.049 196.686 254.015 196.729 253.992C196.771 253.968 196.819 253.955 196.867 253.955C196.916 253.955 196.964 253.968 197.006 253.992L219.489 266.976C219.532 266.999 219.568 267.033 219.592 267.075C219.617 267.117 219.629 267.164 219.628 267.213V282.792C219.629 282.841 219.616 282.89 219.592 282.933C219.568 282.976 219.532 283.012 219.489 283.037C219.444 283.049 219.396 283.049 219.351 283.037C219.305 283.047 219.257 283.047 219.212 283.037ZM197.177 254.71V269.653L219.114 282.318V267.376L197.177 254.71Z" fill="black"/>
</g>
<path opacity="0.3" d="M208.456 263.461L207.771 263.069V273.556L208.44 273.964L208.456 263.461ZM212.316 265.689L211.631 265.297V275.784L212.3 276.184L212.316 265.689ZM216.176 267.917L215.491 267.525V278.012L216.16 278.411L216.176 267.917ZM214.242 266.807L213.549 266.407V276.894L214.218 277.302L214.242 266.807ZM210.374 264.579L209.688 264.179V274.666L210.358 275.074L210.374 264.579ZM200.034 258.613V269.1L200.703 269.508V258.981L200.034 258.613ZM202.654 260.123L201.968 259.731V270.218L202.637 270.618L202.654 260.123ZM206.514 262.351L205.828 261.959V272.438L206.498 272.846L206.514 262.351ZM204.58 261.241L203.894 260.841V271.328L204.563 271.736L204.58 261.241Z" fill="black"/>
<path d="M221.913 261.95L81.4404 180.848V183.818L221.913 264.92V261.95Z" fill="#263238"/>
<path d="M81.4404 165.179V168.149L221.913 249.251V246.281L81.4404 165.179Z" fill="#263238"/>
<path d="M89.6338 121.878V132.487L108.053 143.096V132.487L89.6338 121.878ZM89.6338 160.168L108.053 170.778V146.409L89.6338 135.751V160.168Z" fill="#455A64"/>
<path d="M111.521 134.511V145.12L129.941 155.745V145.136L111.521 134.511ZM111.521 172.801L129.941 183.41V159.042L111.521 148.433V172.801Z" fill="#455A64"/>
<path d="M133.399 147.177V157.786L151.818 168.395V157.786L133.399 147.177ZM133.399 185.467L151.818 196.076V171.659L133.399 161.05V185.467Z" fill="#455A64"/>
<path d="M155.288 159.776V170.385L173.707 180.994V170.385L155.288 159.776ZM155.288 198.059L173.707 208.668V184.308L155.288 173.658V198.059Z" fill="#455A64"/>
<path d="M177.175 172.409V183.018L195.594 193.668V183.084L177.175 172.409ZM177.175 210.692L195.594 221.301V196.957L177.175 186.348V210.692Z" fill="#455A64"/>
<path d="M199.054 185.033V195.642L217.473 206.251V195.642L199.054 185.033ZM199.054 223.324L217.473 233.933V209.565L199.054 198.956V223.324Z" fill="#455A64"/>
<path d="M358.608 219.407L357.735 218.909L350.651 222.998L345.648 232.562V242.012L350.651 245.799L351.524 246.297L358.608 242.208L363.619 232.636V223.194L358.608 219.407Z" fill="#455A64"/>
<path d="M358.607 219.407L351.523 223.496L346.513 233.068V242.511L351.523 246.297L358.607 242.209L363.618 232.636V223.194L358.607 219.407Z" fill="#F5F5F5"/>
<path d="M358.598 219.538L363.495 223.251V232.611L358.509 242.127L351.515 246.167L346.618 242.462V233.093L351.604 223.577L358.598 219.538ZM358.598 219.407L351.515 223.488L346.504 233.06V242.502L351.515 246.289L358.598 242.209L363.585 232.636V223.194L358.574 219.407H358.598Z" fill="#E0E0E0"/>
<path d="M347.157 242.194V233.225L352.005 223.962L358.558 220.176L362.973 223.514V232.482L358.125 241.745L351.572 245.531L347.157 242.194Z" fill="#FFC01D"/>
<path d="M352.078 232.155L352.984 231.633V238.031L353.8 237.533V231.143L354.706 230.621V229.478L352.046 231.012L352.078 232.155ZM351.262 236.088C351.141 235.873 350.977 235.684 350.781 235.533C350.653 235.445 350.52 235.366 350.381 235.297C350.241 235.233 350.114 235.144 350.005 235.036C349.896 234.922 349.81 234.788 349.752 234.641C349.695 234.494 349.667 234.337 349.671 234.179C349.669 233.971 349.702 233.764 349.769 233.567C349.827 233.368 349.954 233.198 350.128 233.085C350.275 232.995 350.389 232.995 350.462 233.085C350.599 233.256 350.672 233.47 350.666 233.689L351.483 233.02C351.474 232.754 351.41 232.493 351.295 232.253C351.254 232.17 351.197 232.095 351.127 232.035C351.057 231.975 350.975 231.929 350.887 231.902C350.746 231.876 350.601 231.879 350.461 231.909C350.32 231.94 350.188 231.999 350.071 232.081C349.732 232.278 349.451 232.559 349.255 232.898C348.904 233.454 348.723 234.101 348.732 234.758C348.722 235.087 348.787 235.413 348.92 235.713C349.072 235.967 349.278 236.185 349.524 236.35L350.283 236.864C350.388 236.958 350.471 237.074 350.526 237.203C350.581 237.333 350.607 237.474 350.601 237.615C350.608 237.8 350.58 237.986 350.52 238.161C350.443 238.414 350.286 238.635 350.071 238.79C350.022 238.832 349.96 238.855 349.895 238.855C349.831 238.855 349.769 238.832 349.72 238.79C349.537 238.558 349.444 238.268 349.459 237.974L348.643 238.52C348.648 238.85 348.712 239.176 348.83 239.483C348.867 239.59 348.925 239.687 349 239.77C349.076 239.853 349.168 239.919 349.271 239.965C349.409 240.007 349.555 240.016 349.697 239.99C349.839 239.965 349.973 239.906 350.087 239.818C350.261 239.721 350.42 239.6 350.56 239.459C350.814 239.211 351.014 238.914 351.148 238.586C351.359 238.105 351.465 237.585 351.458 237.06C351.449 236.839 351.405 236.622 351.328 236.415C351.303 236.317 351.271 236.221 351.23 236.129L351.262 236.088ZM361.137 226.336C360.892 226.124 360.557 226.14 360.141 226.385L358.795 227.16V234.701L359.652 234.203V231.363L360.141 231.078C360.552 230.818 360.88 230.447 361.088 230.009C361.337 229.547 361.472 229.032 361.48 228.507V227.397C361.5 227.206 361.48 227.013 361.421 226.83C361.362 226.648 361.265 226.479 361.137 226.336ZM360.655 229.005C360.653 229.197 360.603 229.385 360.508 229.552C360.435 229.713 360.316 229.849 360.166 229.943L359.652 230.237V227.83L360.166 227.528C360.217 227.492 360.279 227.473 360.341 227.473C360.404 227.473 360.465 227.492 360.517 227.528C360.568 227.58 360.607 227.643 360.631 227.712C360.655 227.781 360.664 227.855 360.655 227.928V229.005ZM357.652 228.254C357.512 228.152 357.344 228.097 357.171 228.097C356.998 228.097 356.829 228.152 356.689 228.254C356.276 228.517 355.945 228.89 355.734 229.331C355.484 229.795 355.349 230.313 355.343 230.841V234.921C355.322 235.115 355.346 235.311 355.414 235.494C355.482 235.677 355.592 235.841 355.734 235.974C355.873 236.074 356.04 236.128 356.212 236.128C356.383 236.128 356.55 236.074 356.689 235.974C357.102 235.712 357.433 235.339 357.644 234.897C357.9 234.435 358.038 233.916 358.044 233.387V229.266C358.059 229.075 358.03 228.883 357.959 228.705C357.888 228.526 357.778 228.367 357.636 228.238L357.652 228.254ZM357.203 233.918C357.201 234.117 357.151 234.313 357.056 234.489C356.977 234.656 356.853 234.797 356.697 234.897C356.627 234.936 356.549 234.959 356.469 234.962C356.404 234.963 356.341 234.943 356.289 234.905C356.231 234.852 356.186 234.786 356.157 234.712C356.129 234.639 356.118 234.559 356.126 234.481V230.4C356.128 230.201 356.179 230.005 356.273 229.829C356.358 229.663 356.484 229.523 356.64 229.421C356.698 229.379 356.768 229.357 356.84 229.357C356.912 229.357 356.982 229.379 357.04 229.421C357.099 229.472 357.145 229.536 357.174 229.609C357.202 229.681 357.212 229.76 357.203 229.837V233.918Z" fill="#F5F5F5"/>
<path d="M344.873 197.471L350.08 194.451C350.253 194.323 350.457 194.244 350.672 194.224C350.886 194.204 351.102 194.243 351.296 194.337L352.52 195.063C352.698 195.185 352.84 195.352 352.93 195.547C353.021 195.743 353.057 195.959 353.034 196.173V208.676C353.006 209.269 352.838 209.847 352.544 210.363C352.251 210.879 351.84 211.319 351.345 211.646L346.138 214.666C345.965 214.793 345.761 214.872 345.547 214.893C345.333 214.915 345.117 214.879 344.922 214.788L343.69 214.054C343.515 213.93 343.375 213.762 343.287 213.567C343.198 213.372 343.162 213.157 343.184 212.944V200.433C343.214 199.842 343.383 199.266 343.676 198.751C343.97 198.237 344.38 197.798 344.873 197.471Z" fill="#37474F"/>
<path d="M343.182 200.434V212.936C343.16 213.15 343.195 213.365 343.284 213.56C343.373 213.756 343.513 213.923 343.688 214.046C343.99 214.218 344.456 214.511 344.888 214.756C344.726 214.628 344.599 214.462 344.518 214.273C344.437 214.083 344.404 213.876 344.423 213.671V201.169C344.442 200.574 344.617 199.994 344.929 199.487L343.68 198.753C343.376 199.263 343.205 199.841 343.182 200.434Z" fill="#263238"/>
<path d="M351.344 211.647L346.138 214.667C345.191 215.214 344.424 214.773 344.424 213.679V201.177C344.456 200.582 344.628 200.003 344.926 199.487C345.224 198.971 345.639 198.532 346.138 198.206L351.344 195.187C352.291 194.64 353.058 195.081 353.058 196.174V208.677C353.027 209.272 352.855 209.851 352.558 210.368C352.26 210.884 351.844 211.322 351.344 211.647Z" fill="#455A64"/>
<path d="M344.571 222.019C344.473 222.024 344.375 221.995 344.295 221.937C344.215 221.879 344.158 221.795 344.132 221.7C344.106 221.604 344.114 221.503 344.154 221.413C344.194 221.322 344.263 221.248 344.351 221.203L347.982 219.114C348.047 219.075 348.1 219.019 348.138 218.954C348.175 218.888 348.194 218.814 348.195 218.738V205.053C348.195 204.938 348.24 204.828 348.321 204.747C348.402 204.666 348.512 204.62 348.627 204.62C348.742 204.62 348.852 204.666 348.933 204.747C349.014 204.828 349.06 204.938 349.06 205.053V218.747C349.06 218.974 349 219.198 348.885 219.394C348.77 219.591 348.605 219.753 348.407 219.865L344.816 221.962C344.743 222.007 344.657 222.027 344.571 222.019Z" fill="#263238"/>
<path d="M372.921 287.126C372.921 287.126 363.724 300.681 341.812 313.771C323.638 324.633 303.823 327.179 303.823 327.179L301.856 296.919L364.54 261.191L372.015 256.882C372.83 258.277 373.349 259.824 373.541 261.427L373.272 280.752L372.921 287.126Z" fill="#FFC01D"/>
<path opacity="0.45" d="M372.921 287.126C372.921 287.126 363.724 300.681 341.812 313.771C323.638 324.633 303.823 327.179 303.823 327.179L301.856 296.919L364.54 261.191L372.015 256.882C372.83 258.277 373.349 259.824 373.541 261.427L373.272 280.752L372.921 287.126Z" fill="white"/>
<path d="M372.268 257.347C370.324 259.72 368.253 261.986 366.066 264.137C358.565 271.481 350.205 277.893 341.167 283.233C322.993 294.095 301.857 296.927 301.857 296.927L277.831 280.197L347.786 239.81L368.482 253.071C368.534 253.104 368.583 253.143 368.629 253.185C370.156 254.263 371.403 255.69 372.268 257.347Z" fill="#FFC01D"/>
<path opacity="0.6" d="M372.268 257.347C370.324 259.72 368.253 261.986 366.066 264.137C358.565 271.481 350.205 277.893 341.167 283.233C322.993 294.095 301.857 296.927 301.857 296.927L277.831 280.197L347.786 239.81L368.482 253.071C368.534 253.104 368.583 253.143 368.629 253.185C370.156 254.263 371.403 255.69 372.268 257.347Z" fill="white"/>
<path d="M277.007 269.149L346.962 228.785L347.778 239.802C331.807 255.765 307.275 268.773 277.831 280.198L277.007 269.149Z" fill="#FFC01D"/>
<path opacity="0.4" d="M277.007 269.149L346.962 228.785L347.778 239.802C331.807 255.765 307.275 268.773 277.831 280.198L277.007 269.149Z" fill="white"/>
<path d="M313.363 297.949C314.006 297.794 314.675 297.783 315.323 297.917C315.971 298.051 316.581 298.326 317.11 298.723C317.639 299.12 318.074 299.628 318.385 300.212C318.695 300.796 318.872 301.442 318.904 302.102C319.054 303.548 318.684 304.999 317.86 306.196C317.036 307.393 315.812 308.256 314.408 308.631C313.764 308.792 313.093 308.807 312.443 308.675C311.793 308.544 311.18 308.269 310.649 307.872C310.119 307.474 309.683 306.963 309.375 306.376C309.066 305.788 308.893 305.14 308.866 304.477C308.738 303.035 309.117 301.594 309.938 300.402C310.759 299.21 311.97 298.342 313.363 297.949Z" fill="white"/>
<path d="M368.725 264.235C367.093 265.867 366.008 269.433 366.35 272.159C366.693 274.885 368.252 275.733 369.827 274.069C371.402 272.404 372.455 268.854 372.202 266.145C371.949 263.435 370.39 262.578 368.725 264.235Z" fill="white"/>
<path d="M249.39 303.75L264.079 296.903C264.079 296.903 262.92 283.029 253.217 286.375C243.514 289.721 249.39 303.75 249.39 303.75Z" fill="#FFC01D"/>
<g opacity="0.5">
<path d="M249.39 303.75L264.079 296.903C264.079 296.903 262.92 283.029 253.217 286.375C243.514 289.721 249.39 303.75 249.39 303.75Z" fill="black"/>
</g>
<path d="M257.495 301.971L254.328 295.687L261.861 291.329C264.252 289.95 267.443 290.105 270.944 292.145C278.378 296.438 284.409 307.52 284.409 316.889C284.409 321.785 282.777 325.253 280.116 326.82L280.01 326.877L272.29 331.333L268.92 324.707C262.611 319.867 257.731 310.327 257.495 301.971Z" fill="#263238"/>
<path d="M249.635 305.84C249.635 313.919 254.115 323.263 260.121 328.437C261.04 329.235 262.032 329.946 263.084 330.559C270.518 334.86 276.557 330.747 276.549 321.378C276.549 314.303 273.105 306.24 268.217 300.878L268.176 300.837C266.703 299.184 264.986 297.767 263.084 296.635C255.657 292.366 249.635 296.471 249.635 305.84Z" fill="#455A64"/>
<path d="M263.1 302.304C258.367 299.571 254.531 302.419 254.531 308.67C254.531 314.921 258.367 322.192 263.1 324.926C267.833 327.66 271.669 324.812 271.669 318.561C271.669 312.31 267.833 305.038 263.1 302.304Z" fill="#37474F"/>
<path d="M263.101 307.75C260.653 306.33 258.653 307.807 258.653 311.014C258.653 314.221 260.645 318.032 263.101 319.452C265.557 320.872 267.549 319.395 267.549 316.188C267.549 312.981 265.557 309.17 263.101 307.75Z" fill="#E0E0E0"/>
<path d="M261.681 307.691C261.377 307.509 261.047 307.374 260.702 307.291C259.469 307.626 258.653 308.972 258.653 311.045C258.732 313.496 259.609 315.854 261.151 317.761C261.32 317.891 261.497 318.011 261.681 318.12C263.86 319.377 265.631 318.063 265.631 315.183C265.631 312.302 263.86 308.948 261.681 307.691Z" fill="#F5F5F5"/>
<path opacity="0.05" d="M249.635 305.84C249.635 313.919 254.115 323.263 260.121 328.437C255.955 323.717 253.02 318.04 251.577 311.911C250.443 306.509 250.867 298.756 255.502 296.797C260.138 294.839 266.258 298.968 268.193 300.878C266.72 299.225 265.002 297.808 263.1 296.675C255.657 292.366 249.635 296.471 249.635 305.84Z" fill="white"/>
<path d="M299.116 332.426L298.528 332.083L296.782 331.071L283.21 323.196L281.627 322.274C281.68 322.122 281.703 321.961 281.692 321.801C281.749 321.56 281.771 321.313 281.758 321.066C281.758 310.751 274.527 298.216 265.55 293.075C264.71 292.586 263.834 292.161 262.93 291.802C262.539 291.646 262.163 291.516 261.788 291.402C254.704 289.255 249.424 293.564 249.424 302.378V303.765L221.914 287.884V186.902L241.99 198.499L266.236 215.588L276.959 269.155L277.816 280.172L298.512 293.466C299.965 294.453 301.18 295.752 302.067 297.268C302.953 298.785 303.49 300.48 303.637 302.231L303.939 327.162L304.135 329.268C304.186 329.878 304.069 330.49 303.796 331.038C303.523 331.586 303.105 332.048 302.586 332.375C302.068 332.701 301.47 332.878 300.858 332.887C300.246 332.896 299.643 332.737 299.116 332.426Z" fill="#FFC01D"/>
<g opacity="0.3">
<path d="M299.116 332.426L298.528 332.083L296.782 331.071L283.21 323.196L281.627 322.274C281.68 322.122 281.703 321.961 281.692 321.801C281.749 321.56 281.771 321.313 281.758 321.066C281.758 310.751 274.527 298.216 265.55 293.075C264.71 292.586 263.834 292.161 262.93 291.802C262.539 291.646 262.163 291.516 261.788 291.402C254.704 289.255 249.424 293.564 249.424 302.378V303.765L221.914 287.884V186.902L241.99 198.499L266.236 215.588L276.959 269.155L277.816 280.172L298.512 293.466C299.965 294.453 301.18 295.752 302.067 297.268C302.953 298.785 303.49 300.48 303.637 302.231L303.939 327.162L304.135 329.268C304.186 329.878 304.069 330.49 303.796 331.038C303.523 331.586 303.105 332.048 302.586 332.375C302.068 332.701 301.47 332.878 300.858 332.887C300.246 332.896 299.643 332.737 299.116 332.426Z" fill="white"/>
</g>
<path d="M224.442 286.425V196.142L240.642 205.494L251.642 213.247V290.562C249.113 292.57 247.562 295.557 247.048 299.474L224.442 286.425Z" fill="#455A64"/>
<path d="M234.88 280.401L224.442 286.424L247.048 299.481C247.578 295.564 249.113 292.577 251.642 290.57V290.088L234.88 280.401Z" fill="#37474F"/>
<path d="M251.643 278.827V266.782L245.31 263.126L234.881 269.149L251.643 278.827Z" fill="#37474F"/>
<path d="M234.881 269.147V280.401L251.643 290.08V278.834L234.881 269.147Z" fill="#263238"/>
<path d="M251.643 255.535L245.311 251.879V263.125L251.643 266.781V255.535Z" fill="#263238"/>
<path d="M241.123 225.372L224.442 235.01V285.607L234.235 279.894V268.714L244.673 262.691V227.436C244.671 227.022 244.56 226.615 244.353 226.256C244.145 225.897 243.847 225.598 243.488 225.389C243.13 225.181 242.723 225.07 242.308 225.066C241.893 225.063 241.485 225.169 241.123 225.372Z" fill="#FFC01D"/>
<path opacity="0.8" d="M241.123 225.372L224.442 235.01V285.607L234.235 279.894V268.714L244.673 262.691V227.436C244.671 227.022 244.56 226.615 244.353 226.256C244.145 225.897 243.847 225.598 243.488 225.389C243.13 225.181 242.723 225.07 242.308 225.066C241.893 225.063 241.485 225.169 241.123 225.372Z" fill="white"/>
<path d="M224.442 286.425L234.88 280.402V269.149L245.31 263.126V227.871C245.31 227.454 245.2 227.044 244.992 226.682C244.783 226.32 244.483 226.02 244.121 225.812C243.76 225.603 243.349 225.494 242.932 225.494C242.514 225.495 242.104 225.605 241.743 225.815L224.442 235.804V286.425Z" fill="#FFC01D"/>
<path opacity="0.6" d="M224.442 286.425L234.88 280.402V269.149L245.31 263.126V227.871C245.31 227.454 245.2 227.044 244.992 226.682C244.783 226.32 244.483 226.02 244.121 225.812C243.76 225.603 243.349 225.494 242.932 225.494C242.514 225.495 242.104 225.605 241.743 225.815L224.442 235.804V286.425Z" fill="white"/>
<path opacity="0.2" d="M224.442 286.425L234.88 280.402V269.149L245.31 263.126V227.871C245.31 227.454 245.2 227.044 244.992 226.682C244.783 226.32 244.483 226.02 244.121 225.812C243.76 225.603 243.349 225.494 242.932 225.494C242.514 225.495 242.104 225.605 241.743 225.815L224.442 235.804V286.425Z" fill="black"/>
<path d="M224.442 286.425L226.034 285.511V197.08L224.442 196.158V286.425Z" fill="#263238"/>
<path d="M244.698 208.383V250.223C244.705 250.313 244.736 250.399 244.788 250.472C244.84 250.545 244.91 250.603 244.992 250.64C245.217 250.75 245.464 250.808 245.714 250.808C245.965 250.808 246.212 250.75 246.437 250.64C246.52 250.604 246.592 250.547 246.645 250.473C246.699 250.4 246.731 250.314 246.738 250.223V209.803L244.698 208.383Z" fill="#EBEBEB"/>
<path d="M258.401 254.613C257.487 254.02 256.726 253.219 256.18 252.276C255.634 251.333 255.318 250.274 255.259 249.186V220.305C255.259 218.306 256.001 217.237 256.891 217.922L261.681 220.983C262.899 222.014 263.757 223.406 264.13 224.957L270.805 259.632C271.074 260.987 270.316 261.534 269.116 260.84L258.401 254.613Z" fill="#37474F"/>
<path d="M375.01 282.165C374.888 282.034 374.774 282.051 374.643 282.279C374.643 282.279 364.597 296.153 342.693 309.251C324.511 320.121 304.696 322.634 304.696 322.634C299.8 323.654 289.411 317.224 289.411 317.224L290.962 316.579C290.962 316.579 298.617 320.659 302.477 321.084C306.769 321.549 321.891 318.905 342.873 307.055C363.854 295.206 373.329 280.818 373.329 280.818C373.701 280.879 374.052 281.035 374.346 281.271C374.641 281.507 374.869 281.815 375.01 282.165Z" fill="#37474F"/>
<path d="M374.643 282.271C374.643 282.271 364.597 296.144 342.693 309.25C324.511 320.121 304.696 322.634 304.696 322.634C300.2 323.45 289.411 317.224 289.411 317.224V329.212C299.008 334.631 300.469 335.039 304.696 334.622C304.696 334.622 324.16 330.648 342.465 319.998C367.559 305.407 374.643 294.243 374.643 294.243C376.373 291.297 375.655 280.492 374.643 282.271Z" fill="#455A64"/>
<path d="M334.575 174.058L266.26 215.588L242.006 198.499L221.914 186.903L291.885 146.507L311.977 158.103L334.575 174.058Z" fill="#FFC01D"/>
<path opacity="0.6" d="M334.575 174.058L266.26 215.588L242.006 198.499L221.914 186.903L291.885 146.507L311.977 158.103L334.575 174.058Z" fill="white"/>
<path d="M258.897 246.387L264.104 243.367C264.277 243.239 264.481 243.16 264.696 243.14C264.91 243.12 265.126 243.159 265.32 243.253L266.552 243.979C266.727 244.103 266.867 244.271 266.955 244.466C267.044 244.661 267.08 244.876 267.058 245.089V257.592C267.025 258.185 266.853 258.763 266.555 259.278C266.257 259.792 265.842 260.23 265.344 260.554L260.138 263.574C259.966 263.7 259.763 263.779 259.551 263.8C259.338 263.822 259.124 263.786 258.93 263.696L257.689 262.962C257.514 262.839 257.374 262.671 257.285 262.476C257.196 262.28 257.161 262.065 257.183 261.852V249.357C257.216 248.763 257.388 248.184 257.686 247.668C257.983 247.151 258.398 246.713 258.897 246.387Z" fill="#37474F"/>
<path d="M257.184 249.35V261.852C257.16 262.066 257.195 262.282 257.284 262.477C257.373 262.672 257.513 262.84 257.69 262.962C257.992 263.134 258.457 263.427 258.89 263.68C258.728 263.55 258.602 263.382 258.521 263.192C258.439 263.001 258.406 262.793 258.424 262.587V250.093C258.447 249.496 258.621 248.914 258.93 248.403L257.682 247.669C257.378 248.179 257.207 248.757 257.184 249.35Z" fill="#263238"/>
<path d="M265.345 260.555L260.139 263.575C259.192 264.121 258.425 263.681 258.425 262.587V250.093C258.456 249.499 258.627 248.921 258.925 248.406C259.223 247.891 259.639 247.454 260.139 247.131L265.345 244.103C266.292 243.556 267.059 243.997 267.059 245.09V257.593C267.026 258.186 266.854 258.764 266.556 259.279C266.258 259.793 265.843 260.231 265.345 260.555Z" fill="#455A64"/>
<path d="M269.987 262.627C270.498 262.961 270.923 263.41 271.228 263.939C271.533 264.468 271.709 265.061 271.742 265.671C271.742 266.789 270.925 267.246 269.987 266.683C269.475 266.351 269.048 265.901 268.743 265.372C268.438 264.843 268.263 264.249 268.232 263.639C268.241 262.521 269.024 262.064 269.987 262.627Z" fill="#37474F"/>
<path d="M263.828 268.51C263.602 268.51 263.379 268.451 263.183 268.339C262.985 268.226 262.821 268.062 262.707 267.864C262.594 267.666 262.536 267.441 262.538 267.213V254.515C262.538 254.4 262.584 254.29 262.665 254.209C262.746 254.128 262.856 254.082 262.971 254.082C263.085 254.082 263.195 254.128 263.277 254.209C263.358 254.29 263.403 254.4 263.403 254.515V267.213C263.402 267.289 263.421 267.363 263.458 267.429C263.495 267.495 263.55 267.55 263.615 267.588C263.681 267.628 263.755 267.649 263.832 267.649C263.908 267.649 263.983 267.628 264.048 267.588L269.761 264.283C269.859 264.226 269.976 264.211 270.086 264.24C270.196 264.269 270.29 264.34 270.348 264.438C270.405 264.538 270.421 264.656 270.392 264.768C270.363 264.879 270.292 264.974 270.193 265.034L264.48 268.339C264.281 268.452 264.056 268.511 263.828 268.51Z" fill="#263238"/>
<path opacity="0.2" d="M293.501 262.848L289.184 275.84C289.184 275.84 304.012 281.267 310.794 285.396C317.575 289.525 318.538 290.945 319.493 292.741C319.208 289.13 318.031 285.647 316.068 282.603C314.106 279.56 311.418 277.051 308.247 275.301C297.312 269.278 293.501 262.848 293.501 262.848Z" fill="black"/>
<path d="M362.973 263.671C362.777 258.097 360.59 254.735 355.065 250.613L337.152 237.271L293.5 262.847L311.103 276.777C315.95 279.535 318.644 284.179 319.19 289.728C319.296 290.781 319.362 291.442 319.492 292.731C337.185 287.582 350.504 278.466 362.981 267.082C362.981 267.082 363.022 265.001 362.973 263.671Z" fill="#FFC01D"/>
<path opacity="0.45" d="M362.973 263.671C362.777 258.097 360.59 254.735 355.065 250.613L337.152 237.271L293.5 262.847L311.103 276.777C315.95 279.535 318.644 284.179 319.19 289.728C319.296 290.781 319.362 291.442 319.492 292.731C337.185 287.582 350.504 278.466 362.981 267.082C362.981 267.082 363.022 265.001 362.973 263.671Z" fill="white"/>
<path opacity="0.1" d="M316.456 281.543L360.647 256.024C359.091 253.922 357.206 252.084 355.065 250.581L337.152 237.271L293.5 262.847L311.103 276.777C313.204 277.969 315.029 279.594 316.456 281.543Z" fill="white"/>
<path opacity="0.5" d="M362.973 263.671C362.777 258.097 360.59 254.735 355.065 250.613L337.152 237.271C343.232 242.167 348.757 246.443 352.878 249.618C355.088 251.241 357.143 253.066 359.015 255.069C361.121 257.591 361.464 258.334 362.19 261.067C362.641 263.044 362.915 265.057 363.006 267.082C363.006 267.082 363.022 265.001 362.973 263.671Z" fill="white"/>
<path d="M319.516 292.733C319.386 291.443 319.32 290.782 319.214 289.729C318.668 284.18 317.582 280.924 311.486 275.995C305.39 271.066 293.532 262.848 293.532 262.848L294.512 273.318C294.512 273.318 309.944 281.365 314.701 286.179C318.643 290.211 319.516 292.733 319.516 292.733Z" fill="#FFC01D"/>
<path opacity="0.3" d="M319.516 292.733C319.386 291.443 319.32 290.782 319.214 289.729C318.668 284.18 317.582 280.924 311.486 275.995C305.39 271.066 293.532 262.848 293.532 262.848L294.512 273.318C294.512 273.318 309.944 281.365 314.701 286.179C318.643 290.211 319.516 292.733 319.516 292.733Z" fill="white"/>
<path opacity="0.2" d="M319.516 292.733C319.386 291.443 319.32 290.782 319.214 289.729C318.668 284.18 317.582 280.924 311.486 275.995C305.39 271.066 293.532 262.848 293.532 262.848L294.512 273.318C294.512 273.318 309.944 281.365 314.701 286.179C318.643 290.211 319.516 292.733 319.516 292.733Z" fill="black"/>
<path d="M346.961 228.784C346.961 228.784 335.397 240.372 316.349 251.463C303.817 258.579 290.645 264.506 277.006 269.164L266.25 217.073L336.237 176.669L346.961 228.784Z" fill="#455A64"/>
<path d="M336.239 176.653C335.464 172.883 330.902 172.091 326.062 174.891L273.621 205.118C268.773 207.917 265.46 213.279 266.276 217.025L277.032 269.115L277.775 268.862C302.257 260.416 326.152 247.914 345.306 230.311C346.317 229.38 346.872 228.825 346.938 228.744L336.239 176.653ZM312.45 249.815V249.856C312.392 250.297 312.233 250.719 311.987 251.089C311.741 251.46 311.414 251.769 311.03 251.994C308.459 253.398 305.88 254.72 303.367 255.944C298.47 258.392 293.231 260.661 288.212 262.693C285.821 263.664 282.818 264.815 280.655 265.598C280.256 265.762 279.811 265.776 279.401 265.638C278.992 265.5 278.646 265.219 278.427 264.847C278.325 264.651 278.248 264.443 278.199 264.227L271.474 230.711C271.377 230.099 271.459 229.473 271.711 228.908C271.964 228.343 272.375 227.864 272.894 227.528L301.261 211.149C301.475 211.005 301.722 210.916 301.979 210.892C302.235 210.868 302.494 210.909 302.731 211.012C302.968 211.114 303.175 211.275 303.333 211.479C303.491 211.682 303.596 211.923 303.636 212.177L310.344 240.21L312.377 248.713C312.486 249.07 312.511 249.447 312.45 249.815ZM343.543 228.874C341.772 230.882 339.536 232.473 337.455 234.261C330.88 239.621 323.931 244.506 316.661 248.877C316.451 249.024 316.206 249.116 315.95 249.142C315.694 249.168 315.436 249.128 315.2 249.025C314.964 248.923 314.758 248.762 314.603 248.557C314.447 248.352 314.346 248.111 314.311 247.856L314.262 247.661L312.246 239.173L305.587 211.182C305.469 210.574 305.537 209.945 305.783 209.377C306.03 208.809 306.442 208.328 306.966 207.999L312.344 204.898L334.207 192.224L335.178 191.669L335.26 191.628C335.469 191.499 335.708 191.424 335.953 191.412C336.199 191.399 336.444 191.449 336.666 191.557C336.887 191.664 337.078 191.826 337.22 192.027C337.362 192.227 337.451 192.461 337.479 192.706L344.163 225.953C344.32 226.97 344.1 228.009 343.543 228.874Z" fill="#FFC01D"/>
<path opacity="0.45" d="M336.239 176.653C335.464 172.883 330.902 172.091 326.062 174.891L273.621 205.118C268.773 207.917 265.46 213.279 266.276 217.025L277.032 269.115L277.775 268.862C302.257 260.416 326.152 247.914 345.306 230.311C346.317 229.38 346.872 228.825 346.938 228.744L336.239 176.653ZM312.45 249.815V249.856C312.392 250.297 312.233 250.719 311.987 251.089C311.741 251.46 311.414 251.769 311.03 251.994C308.459 253.398 305.88 254.72 303.367 255.944C298.47 258.392 293.231 260.661 288.212 262.693C285.821 263.664 282.818 264.815 280.655 265.598C280.256 265.762 279.811 265.776 279.401 265.638C278.992 265.5 278.646 265.219 278.427 264.847C278.325 264.651 278.248 264.443 278.199 264.227L271.474 230.711C271.377 230.099 271.459 229.473 271.711 228.908C271.964 228.343 272.375 227.864 272.894 227.528L301.261 211.149C301.475 211.005 301.722 210.916 301.979 210.892C302.235 210.868 302.494 210.909 302.731 211.012C302.968 211.114 303.175 211.275 303.333 211.479C303.491 211.682 303.596 211.923 303.636 212.177L310.344 240.21L312.377 248.713C312.486 249.07 312.511 249.447 312.45 249.815ZM343.543 228.874C341.772 230.882 339.536 232.473 337.455 234.261C330.88 239.621 323.931 244.506 316.661 248.877C316.451 249.024 316.206 249.116 315.95 249.142C315.694 249.168 315.436 249.128 315.2 249.025C314.964 248.923 314.758 248.762 314.603 248.557C314.447 248.352 314.346 248.111 314.311 247.856L314.262 247.661L312.246 239.173L305.587 211.182C305.469 210.574 305.537 209.945 305.783 209.377C306.03 208.809 306.442 208.328 306.966 207.999L312.344 204.898L334.207 192.224L335.178 191.669L335.26 191.628C335.469 191.499 335.708 191.424 335.953 191.412C336.199 191.399 336.444 191.449 336.666 191.557C336.887 191.664 337.078 191.826 337.22 192.027C337.362 192.227 337.451 192.461 337.479 192.706L344.163 225.953C344.32 226.97 344.1 228.009 343.543 228.874Z" fill="white"/>
<path d="M335.929 187.727L270.552 225.471L268.741 216.543C268.243 214.16 270.642 209.785 274.886 207.345L327.327 177.085C328.601 176.292 330.056 175.834 331.555 175.755C333.464 175.755 333.676 176.783 333.758 177.159L335.929 187.727Z" fill="#37474F"/>
<path d="M275.057 209.599C275.456 209.503 275.872 209.497 276.274 209.581C276.676 209.664 277.054 209.835 277.383 210.081C277.712 210.327 277.982 210.642 278.175 211.005C278.368 211.367 278.48 211.767 278.501 212.177C278.6 213.079 278.373 213.986 277.861 214.734C277.349 215.483 276.586 216.023 275.71 216.258C275.31 216.358 274.893 216.367 274.489 216.285C274.085 216.204 273.705 216.034 273.375 215.787C273.045 215.54 272.775 215.222 272.583 214.858C272.391 214.493 272.283 214.091 272.266 213.679C272.182 212.78 272.415 211.88 272.924 211.135C273.434 210.39 274.189 209.846 275.057 209.599Z" fill="white"/>
<path d="M327.588 178.774C327.956 178.688 328.338 178.685 328.707 178.764C329.075 178.844 329.422 179.004 329.722 179.233C330.022 179.463 330.267 179.756 330.44 180.091C330.612 180.426 330.709 180.796 330.722 181.173C330.806 181.996 330.597 182.822 330.133 183.507C329.669 184.192 328.979 184.692 328.184 184.919C327.817 185.009 327.434 185.016 327.064 184.939C326.693 184.862 326.345 184.703 326.045 184.474C325.744 184.244 325.498 183.951 325.326 183.614C325.154 183.277 325.06 182.906 325.05 182.528C324.977 181.706 325.19 180.884 325.652 180.2C326.114 179.516 326.798 179.013 327.588 178.774Z" fill="white"/>
<path d="M272.894 217.694C273.139 217.636 273.395 217.633 273.642 217.685C273.889 217.737 274.122 217.843 274.323 217.995C274.525 218.147 274.691 218.341 274.809 218.564C274.927 218.787 274.995 219.033 275.007 219.285C275.053 219.831 274.905 220.374 274.591 220.822C274.276 221.269 273.814 221.592 273.285 221.734C273.04 221.796 272.784 221.802 272.535 221.753C272.287 221.703 272.053 221.599 271.85 221.447C271.648 221.295 271.482 221.1 271.364 220.876C271.247 220.651 271.181 220.404 271.172 220.15C271.134 219.606 271.284 219.064 271.598 218.617C271.911 218.17 272.369 217.844 272.894 217.694Z" fill="#FFC01D"/>
<path d="M331.986 184.193C332.212 184.141 332.446 184.14 332.673 184.189C332.899 184.239 333.112 184.337 333.296 184.479C333.48 184.62 333.631 184.8 333.737 185.006C333.843 185.212 333.903 185.439 333.912 185.67C333.964 186.176 333.836 186.684 333.551 187.105C333.266 187.525 332.842 187.832 332.353 187.972C332.127 188.026 331.892 188.03 331.665 187.982C331.438 187.935 331.224 187.837 331.04 187.696C330.855 187.556 330.704 187.375 330.598 187.169C330.492 186.962 330.434 186.735 330.427 186.503C330.384 185.998 330.515 185.493 330.799 185.073C331.082 184.653 331.501 184.342 331.986 184.193Z" fill="#FFC01D"/>
<path d="M281.324 219.269L326.021 193.448L323.279 179.42L278.386 205.331L281.324 219.269Z" fill="white"/>
<path d="M286.447 212.145C285.837 211.445 285.471 210.566 285.403 209.64C285.168 208.619 285.191 207.557 285.468 206.547C285.732 205.727 286.302 205.04 287.059 204.629C287.298 204.486 287.557 204.379 287.827 204.311C288.014 204.27 288.128 204.368 288.169 204.596C288.214 204.853 288.214 205.115 288.169 205.372C288.169 205.617 288.047 205.755 287.933 205.772C287.731 205.808 287.538 205.88 287.361 205.984C287.185 206.093 287.035 206.24 286.921 206.413C286.807 206.586 286.731 206.782 286.7 206.988C286.604 207.609 286.623 208.242 286.757 208.856C286.817 209.421 287.01 209.964 287.321 210.44C287.372 210.507 287.437 210.563 287.511 210.605C287.585 210.647 287.667 210.674 287.751 210.684C287.835 210.694 287.921 210.687 288.003 210.663C288.084 210.639 288.16 210.599 288.226 210.546C288.323 210.497 288.414 210.437 288.496 210.366C288.569 210.309 288.659 210.219 288.773 210.113C288.809 210.088 288.852 210.076 288.896 210.08C289.01 210.015 289.108 210.08 289.198 210.187C289.305 210.385 289.377 210.6 289.41 210.823C289.43 210.92 289.43 211.02 289.41 211.117C289.382 211.223 289.326 211.319 289.246 211.394C289.133 211.515 289.01 211.627 288.879 211.729C288.725 211.85 288.565 211.961 288.398 212.064C287.565 212.529 286.929 212.529 286.447 212.145Z" fill="#37474F"/>
<path d="M285.631 209.683C285.021 208.983 285.583 208.151 285.515 207.225C286.021 206.202 285.762 207.011 286.039 206.001C286.731 205.515 286.226 205.596 286.984 205.185C287.222 205.042 286.994 204.845 287.264 204.777C287.451 204.736 287.264 204.777 287.672 204.777C287.874 204.777 288.049 205.227 288.004 205.484C288.004 205.729 287.645 205.711 287.53 205.727C287.329 205.764 287.44 205.897 287.264 206.001C287.378 205.828 287.088 206.111 287.264 206.001C287.15 206.175 287.015 205.997 286.984 206.202C286.887 206.824 286.313 206.611 286.447 207.225C286.507 207.79 285.768 207.583 286.078 208.059C286.13 208.126 286.194 208.182 286.268 208.224C286.342 208.266 286.424 208.293 286.508 208.303C286.593 208.313 286.678 208.306 286.76 208.282C286.842 208.258 286.918 208.218 286.984 208.165C287.081 208.117 287.171 208.056 287.253 207.985C287.326 207.928 287.416 207.838 287.53 207.732C287.566 207.707 287.579 207.7 287.653 207.7C287.767 207.634 287.865 207.7 287.955 207.806C288.063 208.004 288.134 208.219 288.167 208.442C288.187 208.539 288.187 208.639 288.167 208.736C288.139 208.842 288.083 208.938 288.004 209.013C287.89 209.134 287.768 209.246 287.637 209.348C287.483 209.469 287.322 209.581 287.155 209.683C286.323 210.148 286.112 210.066 285.631 209.683Z" fill="#37474F"/>
<path d="M311.679 191.366C311.721 191.397 311.756 191.435 311.783 191.479C311.809 191.523 311.827 191.572 311.834 191.623L313.582 198.02C313.602 198.24 313.515 198.453 313.206 198.669L312.883 198.895C312.575 199.119 312.387 199.12 312.326 198.904L310.836 193.458L310.801 193.325L310.779 193.243C310.779 193.243 310.78 193.228 310.754 193.101L310.614 192.124C310.572 192.152 310.64 192.08 310.614 192.124L311.443 191.47C311.469 191.433 311.505 191.404 311.547 191.386C311.589 191.367 311.634 191.361 311.679 191.366Z" fill="#37474F"/>
<path d="M290.529 210.528L289.321 203.926C289.321 203.706 289.427 203.502 289.754 203.314L290.113 203.11C290.439 202.922 290.619 202.939 290.66 203.159L291.117 205.705L289.321 203.926C289.321 203.706 289.427 203.502 289.754 203.314L290.113 203.11C290.439 202.922 290.619 202.947 290.66 203.159L291.843 209.753C291.884 209.973 292.994 209.606 291.77 210.422L291.06 210.569C290.709 210.626 290.57 210.749 290.529 210.528L291.362 207.06L291.843 209.753C291.884 209.973 292.089 210.227 291.77 210.422L291.06 210.569C290.671 210.632 290.57 210.749 290.529 210.528Z" fill="#37474F"/>
<path d="M290.547 207.973C290.107 205.525 289.964 203.862 291.457 202.997C291.715 202.795 292.03 202.68 292.358 202.67C292.685 202.659 293.007 202.754 293.277 202.94C293.903 203.61 294.28 204.474 294.346 205.389C294.581 206.42 294.559 207.493 294.281 208.514C294.037 209.302 293.307 209.612 292.587 210.014C290.956 210.831 290.139 210.831 290.547 207.973ZM293.008 208.539C293.118 208.258 293.168 207.958 293.155 207.657C293.148 207.161 293.096 206.667 293 206.18C292.927 205.721 292.81 205.27 292.649 204.834C292.587 204.604 292.441 204.406 292.241 204.279C292.153 204.248 292.059 204.239 291.967 204.251C291.874 204.264 291.787 204.299 291.71 204.352C291.51 204.469 291.348 204.642 291.245 204.85C291.129 205.129 291.073 205.429 291.082 205.731C291.092 206.224 291.143 206.716 291.237 207.2C291.309 207.662 291.427 208.116 291.588 208.555C291.655 208.787 291.806 208.985 292.012 209.11C292.102 209.141 292.198 209.149 292.292 209.135C292.385 209.121 292.474 209.084 292.551 209.028C292.748 208.914 292.907 208.744 293.008 208.539Z" fill="#37474F"/>
<path d="M303.468 195.813C303.509 195.843 303.544 195.881 303.571 195.925C303.597 195.969 303.615 196.018 303.622 196.069L305.37 202.467C305.39 202.686 305.303 202.899 304.994 203.115L304.671 203.341C304.363 203.565 304.175 203.566 304.114 203.35L302.624 197.904L301.422 198.75C301.337 198.807 301.264 198.814 301.202 198.77C301.122 198.669 301.066 198.551 301.04 198.424L300.954 198.112C300.914 197.975 300.901 197.832 300.916 197.69C300.921 197.639 300.937 197.591 300.963 197.547C300.989 197.504 301.024 197.467 301.066 197.439L303.231 195.916C303.258 195.879 303.294 195.85 303.335 195.832C303.377 195.814 303.423 195.807 303.468 195.813Z" fill="#37474F"/>
<path d="M301.797 196.992C301.81 197.041 301.833 197.086 301.865 197.126C301.896 197.165 301.935 197.197 301.979 197.22L301.979 198.324C302.677 197.679 302.677 197.679 303.493 197.271C303.493 197.271 303.493 197.271 303.682 197.125L303.998 196.874L305.179 196.016C305.26 195.954 305.291 195.888 305.272 195.816C305.207 195.707 305.117 195.616 305.01 195.551L304.753 195.37C304.641 195.287 304.514 195.228 304.379 195.197C304.331 195.185 304.281 195.185 304.233 195.195C304.184 195.205 304.138 195.226 304.098 195.257L301.971 196.803C301.928 196.816 301.89 196.84 301.859 196.874C301.828 196.907 301.807 196.948 301.797 196.992Z" fill="#37474F"/>
<path d="M307.546 201.63C307.505 201.599 307.471 201.56 307.445 201.516C307.42 201.471 307.403 201.422 307.397 201.371L305.799 195.061C305.758 194.949 305.749 194.828 305.775 194.711C305.808 194.607 305.877 194.518 305.97 194.46L307.438 193.473C308.578 192.695 309.295 192.882 309.588 194.034C309.685 194.399 309.707 194.779 309.653 195.152C309.599 195.526 309.471 195.885 309.275 196.207C309.414 196.154 309.564 196.14 309.71 196.166C309.856 196.191 309.992 196.256 310.104 196.354C310.371 196.598 310.55 196.926 310.611 197.283C310.769 197.867 310.735 198.486 310.514 199.049C310.265 199.663 309.336 200.535 308.775 200.887L307.777 201.541C307.748 201.572 307.713 201.597 307.672 201.613C307.632 201.628 307.589 201.634 307.546 201.63ZM308.206 196.364C308.372 196.253 308.491 196.084 308.541 195.891C308.581 195.643 308.563 195.39 308.489 195.15C308.463 194.942 308.366 194.749 308.213 194.605C308.102 194.531 307.965 194.557 307.785 194.676L307.207 195.069L307.627 196.741L308.206 196.364ZM309.011 199.31C309.202 199.191 309.343 199.007 309.408 198.791C309.462 198.52 309.442 198.239 309.351 197.977C309.323 197.753 309.212 197.548 309.04 197.402C308.955 197.371 308.863 197.365 308.775 197.385C308.687 197.404 308.605 197.448 308.541 197.511L307.916 197.931L308.368 199.707L309.011 199.31Z" fill="#37474F"/>
<path d="M308.862 197.522C308.902 197.542 308.935 197.566 308.959 197.594C308.983 197.622 308.997 197.654 309.002 197.686L310.384 201.759C310.391 201.899 310.292 202.034 309.972 202.17L309.636 202.312C309.317 202.453 309.129 202.452 309.081 202.315L307.902 198.847L307.875 198.762L307.858 198.711C307.858 198.711 307.86 198.701 307.841 198.62L307.756 197.999C307.713 198.016 307.785 197.971 307.756 197.999L308.621 197.587C308.649 197.564 308.687 197.545 308.729 197.534C308.772 197.523 308.818 197.519 308.862 197.522Z" fill="white"/>
<path d="M309.266 196.85C309.338 196.849 309.399 196.857 309.446 196.873C309.493 196.889 309.524 196.912 309.539 196.941L312.776 200.247C312.819 200.38 312.68 200.561 312.166 200.852L311.627 201.156C311.115 201.452 310.795 201.544 310.683 201.433L307.924 198.62L307.859 198.55L307.819 198.508C307.819 198.508 307.82 198.498 307.77 198.428L307.491 197.861C307.421 197.9 307.533 197.82 307.491 197.861L308.869 197.032C308.913 196.995 308.972 196.959 309.042 196.927C309.112 196.895 309.189 196.868 309.266 196.85Z" fill="white"/>
<path d="M314.89 197.549C314.849 197.518 314.815 197.479 314.789 197.435C314.764 197.39 314.747 197.341 314.741 197.29L313.143 190.98C313.101 190.868 313.093 190.747 313.118 190.63C313.151 190.526 313.221 190.437 313.314 190.379L314.782 189.392C315.922 188.614 316.638 188.801 316.932 189.953C317.029 190.317 317.051 190.698 316.997 191.071C316.943 191.445 316.815 191.804 316.619 192.126C316.757 192.073 316.908 192.059 317.053 192.084C317.199 192.11 317.336 192.175 317.447 192.273C317.715 192.517 317.894 192.845 317.955 193.202C318.113 193.786 318.079 194.405 317.858 194.968C317.609 195.582 316.679 196.454 316.119 196.806L315.121 197.459C315.092 197.491 315.056 197.516 315.016 197.532C314.976 197.547 314.933 197.553 314.89 197.549ZM315.55 192.283C315.716 192.172 315.835 192.003 315.885 191.81C315.925 191.562 315.907 191.309 315.833 191.069C315.807 190.861 315.709 190.668 315.557 190.524C315.446 190.45 315.308 190.476 315.129 190.595L314.551 190.988L314.971 192.66L315.55 192.283ZM316.355 195.229C316.545 195.11 316.687 194.926 316.752 194.71C316.805 194.439 316.786 194.158 316.695 193.896C316.667 193.672 316.556 193.467 316.384 193.321C316.299 193.29 316.207 193.284 316.119 193.304C316.03 193.323 315.949 193.367 315.884 193.43L315.26 193.85L315.712 195.626L316.355 195.229Z" fill="#37474F"/>
<path d="M317.478 194.916C317.478 195.325 316.253 197.365 316.08 196.816L315.712 195.629L315.492 194.71L315.261 193.85C315.21 193.645 315.865 196.07 315.261 193.85C315.174 193.532 315.437 193.285 315.437 193.285L315.845 192.877L316.268 192.493L316.621 192.126C316.621 192.126 316.621 192.244 317.477 192.469C317.885 192.877 317.131 193.522 317.077 193.896C317.023 194.269 316.621 192.316 316.621 192.126C316.76 192.073 316.909 192.059 317.055 192.084C317.201 192.11 317.337 192.175 317.449 192.272C317.717 192.517 317.895 192.844 317.956 193.202C318.114 193.786 318.081 194.405 317.86 194.968C317.611 195.582 316.968 196.239 316.407 196.592C316.541 196.503 316.074 196.821 316.407 196.592C316.407 196.592 317.478 194.508 317.478 194.916ZM315.845 192.877C316.116 192.68 316.449 192.291 316.489 192.272C316.85 192.103 317.439 192.512 316.661 192.877C316.42 192.99 316.58 192.208 316.229 192.596C316.144 192.69 316.049 192.728 315.845 192.877ZM315.845 194.101C316.036 193.982 316.253 193.896 316.253 193.896L316.253 193.693L316.229 193.6L315.845 193.693L315.886 193.43L315.261 193.85L315.555 194.227L315.845 194.101Z" fill="white"/>
<path d="M296.724 207.305C296.486 207.177 296.285 206.989 296.142 206.76C295.999 206.531 295.918 206.269 295.908 205.999L295.043 201.2C294.999 200.983 295.146 200.779 295.483 200.588L295.818 200.392C296.152 200.196 296.34 200.213 296.373 200.392L297.189 205.085C297.197 205.198 297.229 205.307 297.284 205.406C297.339 205.505 297.415 205.59 297.507 205.656C297.596 205.707 297.697 205.73 297.799 205.723C297.901 205.715 297.998 205.678 298.078 205.615C298.301 205.488 298.472 205.285 298.56 205.044C298.665 204.785 298.693 204.502 298.642 204.228L297.825 199.527C297.787 199.31 297.934 199.106 298.266 198.915L298.593 198.719C298.927 198.532 299.115 198.548 299.148 198.768L300.013 203.567C300.142 204.219 300.053 204.896 299.76 205.493C299.448 206.107 298.959 206.613 298.356 206.945C298.13 207.127 297.865 207.253 297.582 207.316C297.299 207.378 297.005 207.374 296.724 207.305Z" fill="#37474F"/>
<path d="M306.878 197.28C306.72 197.487 306.616 197.707 306.577 197.916C306.538 198.125 306.618 198.244 306.656 198.473L307.275 201.446C307.318 201.592 307.816 201.724 308.177 201.636L308.567 201.636C308.928 201.552 308.649 201.087 308.611 200.969L308.091 198.59C308.056 198.523 308.053 198.097 308.064 198.011C308.075 197.924 308.109 197.833 308.164 197.744C308.221 197.665 308.301 197.594 308.391 197.539C308.482 197.485 308.579 197.45 308.672 197.438C308.912 197.381 309.134 197.395 309.299 197.478C309.485 197.561 309.614 197.702 309.671 197.884L311.01 200.969C311.058 201.112 310.953 201.133 311.31 201.048L311.664 200.969C312.022 200.881 311.817 200.77 311.764 200.629L310.694 197.539C310.564 197.103 310.539 196.78 310.168 196.54C309.673 196.378 309.063 196.378 308.42 196.541C308.158 196.57 307.882 196.652 307.615 196.78C307.347 196.908 307.095 197.079 306.878 197.28Z" fill="#37474F"/>
<path d="M310.343 240.209C310.303 240.209 310.254 240.258 310.205 240.29C298.78 246.893 283.886 257.526 277.749 261.99L278.19 264.194C278.234 264.459 278.337 264.712 278.492 264.933C278.647 265.154 278.849 265.337 279.084 265.469C279.319 265.602 279.58 265.68 279.849 265.697C280.118 265.715 280.388 265.673 280.638 265.573C291.078 261.771 301.232 257.225 311.021 251.969C311.547 251.657 311.963 251.19 312.212 250.631C312.46 250.073 312.529 249.451 312.408 248.851L310.343 240.209ZM339.967 226.507C330.408 230 321.132 234.223 312.22 239.14L314.285 247.831C314.321 248.086 314.421 248.327 314.577 248.532C314.733 248.736 314.938 248.898 315.174 249C315.41 249.102 315.668 249.142 315.924 249.116C316.18 249.09 316.425 248.999 316.635 248.851C326.01 243.23 334.838 236.744 343.003 229.477C343.206 229.294 343.382 229.082 343.525 228.849L339.967 226.507Z" fill="#37474F"/>
<path opacity="0.1" d="M311.184 205.559L320.903 211.166C321.948 211.77 322.788 211.28 322.788 210.081V198.843L312.334 204.89L311.184 205.559ZM340.832 220.477L335.283 191.629L335.193 191.67L334.222 192.233L328.354 195.62V211.851C328.414 212.939 328.73 213.998 329.276 214.941C329.822 215.884 330.582 216.685 331.496 217.278L339.134 221.685C340.342 222.379 341.101 221.84 340.832 220.477Z" fill="white"/>
<path d="M357.996 267.883L360.648 290.056C360.648 290.056 356.967 294.65 345.273 301.481C333.309 308.45 326.593 310.499 326.593 310.499L324.283 287.493C330.525 285.021 336.57 282.08 342.368 278.696C353.352 272.437 357.996 267.883 357.996 267.883Z" fill="#E0E0E0"/>
<path d="M328.592 307.381C328.455 307.38 328.324 307.331 328.219 307.244C328.114 307.157 328.042 307.036 328.015 306.903C327.989 306.769 328.009 306.63 328.072 306.509C328.135 306.388 328.238 306.293 328.363 306.239C340.376 301.171 350.022 295.328 357.873 288.359C357.989 288.259 358.139 288.209 358.291 288.218C358.443 288.227 358.586 288.295 358.689 288.408C358.786 288.524 358.835 288.672 358.828 288.824C358.82 288.975 358.756 289.117 358.648 289.224C350.716 296.275 340.964 302.191 328.828 307.308C328.755 307.348 328.675 307.373 328.592 307.381Z" fill="#37474F"/>
<path d="M327.988 303.35C327.852 303.348 327.72 303.3 327.615 303.213C327.511 303.125 327.439 303.005 327.412 302.871C327.385 302.738 327.405 302.599 327.468 302.478C327.532 302.357 327.635 302.262 327.76 302.208C339.544 297.311 349.084 291.533 356.927 284.637C356.985 284.584 357.053 284.542 357.128 284.515C357.202 284.488 357.281 284.476 357.361 284.479C357.44 284.482 357.518 284.501 357.589 284.535C357.661 284.568 357.726 284.616 357.779 284.674C357.833 284.732 357.875 284.801 357.902 284.875C357.929 284.95 357.941 285.029 357.938 285.108C357.934 285.187 357.915 285.265 357.882 285.337C357.848 285.409 357.801 285.473 357.743 285.527C349.802 292.504 340.156 298.323 328.249 303.301C328.167 303.337 328.078 303.354 327.988 303.35Z" fill="#37474F"/>
<path d="M327.767 299.099C327.65 299.097 327.536 299.061 327.439 298.996C327.342 298.931 327.266 298.839 327.22 298.731C327.161 298.588 327.161 298.426 327.221 298.282C327.28 298.138 327.395 298.024 327.539 297.964C339.282 293.068 348.822 287.355 356.697 280.427C356.814 280.329 356.963 280.28 357.115 280.289C357.267 280.298 357.409 280.365 357.513 280.476C357.608 280.594 357.655 280.744 357.644 280.895C357.633 281.046 357.566 281.188 357.456 281.292C349.483 288.302 339.837 294.104 327.971 299.033C327.907 299.065 327.838 299.087 327.767 299.099Z" fill="#37474F"/>
<path d="M327.4 294.886C327.282 294.886 327.166 294.851 327.067 294.786C326.969 294.721 326.891 294.628 326.845 294.519C326.816 294.447 326.801 294.371 326.802 294.293C326.802 294.216 326.818 294.139 326.849 294.068C326.879 293.996 326.923 293.932 326.979 293.878C327.034 293.824 327.1 293.781 327.172 293.752C338.727 289.035 348.577 283.143 356.453 276.329C356.573 276.243 356.722 276.205 356.869 276.223C357.016 276.241 357.152 276.313 357.248 276.425C357.345 276.537 357.397 276.682 357.393 276.83C357.389 276.978 357.33 277.119 357.228 277.226C349.263 284.155 339.274 290.08 327.62 294.846C327.551 294.875 327.476 294.889 327.4 294.886Z" fill="#37474F"/>
<path d="M326.951 290.668C326.833 290.669 326.718 290.635 326.62 290.569C326.522 290.504 326.447 290.41 326.404 290.3C326.345 290.154 326.346 289.991 326.407 289.845C326.468 289.7 326.585 289.585 326.73 289.525C338.303 284.841 348.177 279.079 356.11 272.387C356.229 272.294 356.379 272.249 356.53 272.261C356.682 272.273 356.823 272.341 356.926 272.453C357.02 272.572 357.065 272.724 357.051 272.875C357.038 273.027 356.966 273.168 356.852 273.269C348.846 280.018 338.898 285.845 327.171 290.578C327.105 290.624 327.03 290.655 326.951 290.668Z" fill="#37474F"/>
</svg>
