<svg width="500" height="500" viewBox="0 0 500 500" fill="none" xmlns="http://www.w3.org/2000/svg">
<path d="M417.69 76.89H91.9004V328.19H417.69V76.89Z" fill="#E6E6E6"/>
<path opacity="0.1" d="M393.391 95.63H116.201V309.44H393.391V95.63Z" fill="#000001"/>
<path d="M338.061 205.94H324.781V309.45H338.061V205.94Z" fill="#E6E6E6"/>
<path opacity="0.1" d="M311.111 76.89H398.931V78.9L355.021 153.7H332.771L311.111 76.89Z" fill="#000001"/>
<path d="M197.255 163.236L188.664 173.363L257.408 231.683L266 221.556L197.255 163.236Z" fill="#E6E6E6"/>
<path d="M335.008 200.353L327.846 211.536L395.347 254.771L402.509 243.588L335.008 200.353Z" fill="#E6E6E6"/>
<path d="M246.69 310.13H233.41V251.86L274.77 199.3H324.78V137.17H338.06V212.58H281.22L246.69 256.46V310.13Z" fill="white"/>
<path d="M199.6 174.95H110.5V161.67H186.32V89.11H199.6V174.95Z" fill="#E6E6E6"/>
<path d="M277.521 140.33H192.961V127.05H264.241V89.11H277.521V140.33Z" fill="#E6E6E6"/>
<path opacity="0.1" d="M198.311 222.38L218.231 232.6L205.431 257.69L218.231 263.07L185.511 328.19H125.721L131.911 271.93L141.271 256L164.641 222.38H188.831H198.311Z" fill="#000001"/>
<path opacity="0.02" d="M250 468.52C367.907 468.52 463.49 456.374 463.49 441.39C463.49 426.407 367.907 414.26 250 414.26C132.092 414.26 36.5098 426.407 36.5098 441.39C36.5098 456.374 132.092 468.52 250 468.52Z" fill="#000001"/>
<path opacity="0.58" d="M399.54 410.75C399.54 410.75 382.71 406.23 378.99 390.6C378.99 390.6 405.01 385.23 405.86 412.1L399.53 410.74L399.54 410.75Z" fill="#68E1FD"/>
<path opacity="0.73" d="M401.6 409.07C401.6 409.07 389.78 390.55 400.04 373.15C400.04 373.15 419.89 385.64 411.19 409.07H401.6Z" fill="#68E1FD"/>
<path d="M404.619 409.07C404.619 409.07 410.739 389.44 429.479 385.65C429.479 385.65 433.049 398.37 417.429 409.07H404.609H404.619Z" fill="#68E1FD"/>
<path d="M392.43 408.68L395.94 431.98H417.4L420.46 408.68H392.43Z" fill="#24285B"/>
<path d="M134.15 261.18L163.67 224.39L170.04 229.98L144.88 272.03L134.15 261.18Z" fill="#013FF6"/>
<path d="M85.2709 200.59L90.7209 216.93L77.7909 225.14L73.1309 196.82L85.2709 200.59Z" fill="#F4A28C"/>
<path d="M68.7003 181.03C71.4803 174.24 80.5103 172.85 85.5303 178.21C91.0303 184.08 97.6703 193.43 90.1603 198.51C78.6703 206.29 68.1303 191.75 68.1303 191.75C68.1303 191.75 66.5903 186.18 68.7003 181.03Z" fill="#F4A28C"/>
<path d="M77.1009 191.05C77.1009 191.05 74.1609 188.59 72.8209 192.08C71.4909 195.58 76.6909 197.27 78.2409 195.5C79.7909 193.73 77.1009 191.04 77.1009 191.04V191.05Z" fill="#F4A28C"/>
<path d="M62.7003 233.16C66.6003 224.39 74.2303 217.82 83.4303 215.06C101 209.78 133.35 215.56 143.21 231.99C156.71 254.49 136.95 325.96 136.95 325.96L77.9103 330.54C77.9103 330.54 45.4303 271.96 62.7003 233.15V233.16Z" fill="#013FF6"/>
<path d="M136.939 325.96L129.169 427.47H116.899L105.939 348.6L78.7891 330.55L136.939 325.96Z" fill="#24285B"/>
<path d="M78.7896 330.55L61.8496 427.47H75.0096L103.44 346.95L78.7896 330.55Z" fill="#24285B"/>
<path opacity="0.08" d="M88.5303 213.52C88.5303 213.52 60.9103 302.47 140.66 308.37L136.94 325.97L77.9003 330.55C77.9003 330.55 57.1003 297.88 57.9803 252C57.9803 252 58.4803 229.31 74.4503 219.28C74.4503 219.28 80.5503 214.79 88.5303 213.51V213.52Z" fill="#000001"/>
<path d="M64.9398 427.26L57.0098 433.1C55.6598 434.1 56.3598 436.25 58.0398 436.25H71.3298C72.2898 436.25 73.0698 435.47 73.0698 434.51V427.26H64.9398Z" fill="#013FF6"/>
<path d="M127.64 427.26L135.1 433.1C136.42 434.13 135.69 436.25 134.01 436.25H124.55C121.76 436.25 119.5 433.99 119.5 431.2V427.26H127.63H127.64Z" fill="#013FF6"/>
<path d="M112.61 214.59C112.61 214.59 102.47 228.97 112.61 246.08C119.05 256.95 137.78 278.11 150.59 292.1C156.82 298.91 167.89 297.62 172.39 289.56L199.9 241.06L190.56 235.08L165.35 272.05C165.35 272.05 148.1 215.32 112.61 214.61V214.59Z" fill="#013FF6"/>
<path opacity="0.2" d="M112.61 214.59C112.61 214.59 102.47 228.97 112.61 246.08C119.05 256.95 137.78 278.11 150.59 292.1C156.82 298.91 167.89 297.62 172.39 289.56L199.9 241.06L190.56 235.08L165.35 272.05C165.35 272.05 148.1 215.32 112.61 214.61V214.59Z" fill="white"/>
<path d="M196.641 238.97C196.641 238.97 212.261 233.23 205.891 224.4C199.521 215.56 190.561 235.07 190.561 235.07L196.641 238.97Z" fill="#F4A28C"/>
<path d="M210.845 213.293L196.764 206.985L187.565 227.519L201.647 233.827L210.845 213.293Z" fill="#FFC01D"/>
<path d="M55.97 234.08C64.95 229.74 79.48 224.33 93.64 226.02C99.5 226.72 104.47 230.66 106.5 236.2C110.26 246.46 116.13 265.21 115.8 281.66C115.67 288.17 111.66 293.99 105.55 296.24C98.04 299.01 86.03 302.53 70.37 304.14C62.79 304.92 55.73 300.18 53.58 292.86C50.76 283.27 47.54 268.23 47.09 248.62C46.95 242.46 50.42 236.76 55.97 234.08Z" fill="#24285B"/>
<path d="M71.7605 257.28C74.2623 257.28 76.2905 255.252 76.2905 252.75C76.2905 250.248 74.2623 248.22 71.7605 248.22C69.2586 248.22 67.2305 250.248 67.2305 252.75C67.2305 255.252 69.2586 257.28 71.7605 257.28Z" fill="white"/>
<path d="M93.6406 226.01C93.6406 226.01 103.201 211.19 114.521 213.16C125.841 215.13 126.681 217.99 126.681 217.99C126.681 217.99 109.721 218.15 103.441 232.74L93.6406 226.01Z" fill="#24285B"/>
<path d="M115.351 271.86C115.351 271.86 121.021 278.62 140.671 279.97L147.931 289.19C147.931 289.19 129.461 293.72 112.351 282.65C95.2408 271.58 115.351 271.86 115.351 271.86Z" fill="#24285B"/>
<path d="M73.9901 202.02L65.2401 192.96C63.4001 191.06 62.4501 188.49 62.5801 185.85C62.7901 181.24 63.7801 173.9 67.5901 168.38C73.5701 159.73 81.5401 156.46 83.5201 163.94C85.5001 171.42 85.9101 162.54 90.7301 166.51C95.5501 170.48 94.5601 172.81 90.7301 174.92C86.9001 177.03 78.9601 180.07 78.2601 186.38C77.5601 192.69 83.5301 197.77 74.0001 202.01L73.9901 202.02Z" fill="#24285B"/>
<path d="M165.15 225.7C165.15 225.7 167.1 212.21 180.18 213.52C193.26 214.82 188.48 218.16 183.2 218.41H183.16C180.96 218.84 179.26 220.49 178.56 222.62C177.79 224.98 175.66 228.05 170.03 229.99L165.15 225.71V225.7Z" fill="#F4A28C"/>
<path d="M331.421 164.45C349.718 164.45 364.551 159.637 364.551 153.7C364.551 147.763 349.718 142.95 331.421 142.95C313.124 142.95 298.291 147.763 298.291 153.7C298.291 159.637 313.124 164.45 331.421 164.45Z" fill="#161A23"/>
<path d="M380.081 62.51C380.081 33.82 355.241 10.93 325.901 14.16C303.691 16.61 285.741 34.4 283.121 56.6C281.761 68.09 284.421 78.91 289.871 87.83L331.431 155.92L372.781 88.16C377.411 80.71 380.091 71.93 380.091 62.52L380.081 62.51ZM331.421 88.33C318.281 88.33 307.631 77.68 307.631 64.54C307.631 51.4 318.281 40.75 331.421 40.75C344.561 40.75 355.211 51.4 355.211 64.54C355.211 77.68 344.561 88.33 331.421 88.33Z" fill="#FFC01D"/>
<path opacity="0.1" d="M438.55 273.84H331.99V327.91H438.55V273.84Z" fill="#000001"/>
<path d="M476.851 273.84H345.951V353.85H476.851V273.84Z" fill="#A5A5A5"/>
<path d="M375.27 321.13C375.27 321.13 373.22 332.31 382.2 330.8C391.18 329.28 386.9 324.53 385.62 318.4L375.27 321.13Z" fill="white"/>
<path d="M374.21 315.97L384.58 313.59C384.58 313.59 385 305.27 384.51 296.96C384.02 288.64 375.83 281.76 370.37 287.38C364.91 293 367.06 304.35 374.21 315.97Z" fill="white"/>
<path d="M393.85 331.4C393.85 331.4 387.95 339.7 395.81 341.87C403.67 344.04 402 338.56 403.29 333.1L393.85 331.39V331.4Z" fill="white"/>
<path d="M394.949 326.81L404.279 328.81C404.279 328.81 407.769 322.22 410.529 315.28C413.279 308.34 409.249 299.65 402.679 302.14C396.109 304.63 393.559 314.66 394.949 326.81Z" fill="white"/>
<path opacity="0.67" d="M460.9 303.05H429.32V311.83H460.9V303.05Z" fill="white"/>
<path opacity="0.31" d="M460.9 318.68H429.32V327.46H460.9V318.68Z" fill="white"/>
</svg>
