<svg width="641" height="621" viewBox="0 0 641 621" fill="none" xmlns="http://www.w3.org/2000/svg">
<g clip-path="url(#clip0_604_10171)">
<path d="M611.107 483.157H29.526C21.698 483.148 14.1932 480.034 8.65791 474.499C3.12266 468.964 0.00899865 461.459 0 453.631V29.5309C0.00899865 21.7028 3.12266 14.198 8.65791 8.66278C14.1932 3.12753 21.698 0.0138815 29.526 0.00488281H611.107C618.935 0.0138815 626.44 3.12753 631.975 8.66278C637.51 14.198 640.624 21.7028 640.633 29.5309V453.631C640.624 461.459 637.51 468.964 631.975 474.499C626.44 480.034 618.935 483.148 611.107 483.157Z" fill="#E6E6E6"/>
<path d="M570.178 482.262H566.187L504.558 358.109L502.769 354.53L457.191 262.695L379.958 107.095L378.186 103.516L327.24 0.894531H331.248L382.176 103.521L383.97 107.095L459.235 258.734L461.007 262.313L506.567 354.077L570.178 482.262Z" fill="white"/>
<path d="M639.735 103.529H0.894531V107.108H639.735V103.529Z" fill="white"/>
<path d="M639.735 258.748H457.959V262.327H639.735V258.748Z" fill="white"/>
<path d="M174.502 0.894531H170.923V484.051H174.502V0.894531Z" fill="white"/>
<path d="M505.664 354.523H172.712V358.102H505.664V354.523Z" fill="white"/>
<path d="M381.156 189.684C381.156 220.184 336.298 306.203 319.45 337.434C318.838 338.57 317.93 339.519 316.822 340.181C315.714 340.843 314.447 341.193 313.157 341.193C311.866 341.193 310.599 340.843 309.491 340.181C308.383 339.519 307.475 338.57 306.863 337.434C290.015 306.203 245.157 220.187 245.157 189.684C245.157 171.649 252.322 154.353 265.074 141.6C277.826 128.848 295.123 121.684 313.157 121.684C331.192 121.684 348.488 128.848 361.241 141.6C373.993 154.353 381.157 171.649 381.157 189.684H381.156Z" fill="#013FF6"/>
<path d="M313.508 220.194C330.192 220.194 343.718 206.669 343.718 189.984C343.718 173.3 330.192 159.774 313.508 159.774C296.823 159.774 283.298 173.3 283.298 189.984C283.298 206.669 296.823 220.194 313.508 220.194Z" fill="#E6E6E6"/>
<path d="M313.509 345.06C320.553 345.06 342.456 350.771 342.456 357.815C342.456 364.859 320.553 370.57 313.509 370.57C306.465 370.57 292.037 364.86 292.037 357.815C292.037 350.77 306.464 345.06 313.509 345.06Z" fill="#6C63FF"/>
<path d="M471.165 516.73C460.879 516.729 450.823 519.778 442.269 525.492C433.716 531.206 427.049 539.329 423.112 548.832C419.174 558.335 418.144 568.793 420.15 578.882C422.157 588.971 427.11 598.238 434.384 605.512C441.658 612.786 450.925 617.739 461.014 619.745C471.103 621.752 481.561 620.721 491.064 616.784C500.567 612.847 508.689 606.18 514.404 597.627C520.118 589.073 523.167 579.017 523.165 568.73C523.163 554.94 517.684 541.715 507.932 531.964C498.181 522.212 484.956 516.733 471.165 516.73ZM471.165 617.872C461.447 617.874 451.947 614.993 443.866 609.595C435.785 604.197 429.486 596.524 425.766 587.546C422.047 578.568 421.073 568.689 422.968 559.157C424.863 549.626 429.542 540.87 436.413 533.998C443.284 527.126 452.039 522.445 461.57 520.549C471.101 518.653 480.981 519.625 489.96 523.344C498.938 527.063 506.612 533.36 512.011 541.44C517.411 549.521 520.292 559.02 520.292 568.738C520.292 581.768 515.116 594.264 505.903 603.478C496.69 612.692 484.195 617.87 471.165 617.872Z" fill="#E6E6E6"/>
<path d="M496.756 543.799C495.339 542.713 493.548 542.235 491.778 542.469C490.008 542.704 488.404 543.631 487.317 545.048L464.117 575.298L454.302 567.779C453.6 567.241 452.8 566.847 451.945 566.618C451.091 566.39 450.2 566.332 449.324 566.448C448.447 566.564 447.602 566.852 446.837 567.294C446.072 567.737 445.401 568.326 444.863 569.028C444.325 569.73 443.931 570.53 443.703 571.385C443.475 572.239 443.417 573.129 443.533 574.006C443.649 574.882 443.936 575.727 444.379 576.493C444.821 577.258 445.41 577.929 446.112 578.467L461.271 590.067L461.339 590.121C462.5 590.994 463.914 591.465 465.367 591.464C466.402 591.464 467.423 591.227 468.352 590.771C469.281 590.315 470.092 589.651 470.724 588.832L498.006 553.238C499.091 551.82 499.569 550.029 499.335 548.259C499.101 546.49 498.173 544.885 496.756 543.799Z" fill="#E6E6E6"/>
<path d="M320.321 516.73C310.034 516.729 299.978 519.778 291.424 525.492C282.871 531.206 276.204 539.329 272.267 548.832C268.33 558.335 267.299 568.793 269.306 578.882C271.312 588.971 276.265 598.238 283.539 605.512C290.813 612.786 300.08 617.739 310.169 619.745C320.258 621.752 330.716 620.721 340.219 616.784C349.722 612.847 357.845 606.18 363.559 597.627C369.273 589.073 372.322 579.017 372.321 568.73C372.318 554.94 366.839 541.715 357.088 531.964C347.336 522.212 334.111 516.733 320.321 516.73ZM320.321 617.872C310.603 617.874 301.102 614.993 293.021 609.595C284.94 604.197 278.642 596.524 274.922 587.546C271.202 578.568 270.228 568.689 272.123 559.157C274.018 549.626 278.697 540.87 285.568 533.998C292.439 527.126 301.194 522.445 310.726 520.549C320.257 518.653 330.136 519.625 339.115 523.344C348.093 527.063 355.767 533.36 361.167 541.44C366.566 549.521 369.448 559.02 369.448 568.738C369.447 581.768 364.271 594.264 355.059 603.478C345.846 612.692 333.35 617.87 320.321 617.872Z" fill="#E6E6E6"/>
<path d="M345.913 543.799C344.496 542.713 342.705 542.235 340.935 542.469C339.165 542.704 337.561 543.631 336.474 545.048L313.274 575.298L303.459 567.779C302.758 567.241 301.957 566.847 301.103 566.618C300.248 566.39 299.358 566.332 298.481 566.448C297.605 566.564 296.76 566.852 295.994 567.294C295.229 567.737 294.558 568.326 294.02 569.028C293.483 569.73 293.088 570.53 292.86 571.385C292.632 572.239 292.574 573.129 292.69 574.006C292.806 574.882 293.093 575.727 293.536 576.493C293.979 577.258 294.568 577.929 295.269 578.467L310.428 590.067L310.496 590.121C311.658 590.994 313.072 591.465 314.524 591.464C315.559 591.464 316.58 591.227 317.509 590.771C318.438 590.315 319.249 589.651 319.881 588.832L347.163 553.238C348.249 551.82 348.727 550.029 348.492 548.259C348.258 546.49 347.33 544.885 345.913 543.799Z" fill="#6C63FF"/>
<path d="M169.478 516.73C159.191 516.729 149.135 519.778 140.582 525.492C132.028 531.206 125.361 539.329 121.424 548.832C117.487 558.335 116.456 568.793 118.463 578.882C120.469 588.971 125.423 598.238 132.696 605.512C139.97 612.786 149.238 617.739 159.327 619.745C169.416 621.752 179.873 620.721 189.376 616.784C198.88 612.847 207.002 606.18 212.716 597.627C218.43 589.073 221.479 579.017 221.478 568.73C221.476 554.94 215.996 541.715 206.245 531.964C196.493 522.212 183.268 516.733 169.478 516.73ZM169.478 617.872C159.76 617.874 150.26 614.993 142.179 609.595C134.098 604.197 127.799 596.524 124.079 587.546C120.359 578.568 119.385 568.689 121.28 559.157C123.175 549.626 127.854 540.87 134.725 533.998C141.597 527.126 150.351 522.445 159.883 520.549C169.414 518.653 179.294 519.625 188.272 523.344C197.251 527.063 204.925 533.36 210.324 541.44C215.723 549.521 218.605 559.02 218.605 568.738C218.604 581.768 213.429 594.264 204.216 603.478C195.003 612.692 182.508 617.87 169.478 617.872Z" fill="#E6E6E6"/>
<path d="M195.07 543.799C193.652 542.713 191.862 542.235 190.092 542.469C188.322 542.704 186.717 543.631 185.631 545.048L162.431 575.298L152.616 567.779C151.914 567.241 151.113 566.847 150.259 566.618C149.405 566.39 148.514 566.332 147.637 566.448C146.761 566.564 145.916 566.852 145.151 567.294C144.385 567.737 143.714 568.326 143.177 569.028C142.639 569.73 142.245 570.53 142.016 571.385C141.788 572.239 141.73 573.129 141.846 574.006C141.962 574.882 142.25 575.727 142.692 576.493C143.135 577.258 143.724 577.929 144.426 578.467L159.585 590.067L159.653 590.121C160.814 590.994 162.228 591.465 163.681 591.464C164.715 591.464 165.737 591.227 166.665 590.771C167.594 590.315 168.406 589.651 169.038 588.832L196.32 553.238C197.405 551.82 197.883 550.029 197.649 548.259C197.414 546.49 196.487 544.885 195.07 543.799Z" fill="#E6E6E6"/>
<path d="M558.205 221.861L524.049 190.333C523.807 190.109 523.489 189.985 523.16 189.985C522.83 189.985 522.512 190.109 522.27 190.333L506.653 204.754V198.354C506.653 198.006 506.515 197.672 506.269 197.426C506.023 197.18 505.689 197.042 505.341 197.042H502.718C502.546 197.042 502.375 197.076 502.216 197.142C502.057 197.207 501.912 197.304 501.79 197.426C501.668 197.548 501.572 197.692 501.506 197.852C501.44 198.011 501.406 198.182 501.406 198.354V209.597L488.125 221.86C487.931 222.039 487.796 222.272 487.737 222.529C487.678 222.786 487.698 223.055 487.794 223.301C487.89 223.547 488.058 223.757 488.276 223.906C488.494 224.055 488.751 224.135 489.015 224.135H495.588C495.936 224.135 496.269 224.273 496.515 224.519C496.761 224.765 496.9 225.098 496.9 225.446V257.435C496.9 257.607 496.934 257.778 497 257.937C497.066 258.096 497.162 258.241 497.284 258.363C497.406 258.485 497.551 258.581 497.71 258.647C497.869 258.713 498.04 258.747 498.212 258.747H548.103C548.451 258.747 548.785 258.609 549.031 258.363C549.277 258.117 549.415 257.783 549.415 257.435V225.448C549.415 225.276 549.449 225.105 549.515 224.946C549.58 224.787 549.677 224.642 549.799 224.52C549.92 224.398 550.065 224.302 550.224 224.236C550.383 224.17 550.554 224.136 550.726 224.136H557.313C557.577 224.136 557.834 224.056 558.052 223.907C558.27 223.758 558.438 223.548 558.534 223.302C558.63 223.056 558.65 222.787 558.591 222.53C558.532 222.273 558.397 222.04 558.203 221.861H558.205ZM515.815 235.661H530.504C530.852 235.661 531.186 235.799 531.432 236.045C531.678 236.291 531.816 236.625 531.816 236.973V256.122H514.503V236.976C514.503 236.628 514.642 236.295 514.888 236.049C515.134 235.803 515.467 235.665 515.815 235.665V235.661Z" fill="#013FF6"/>
</g>
<defs>
<clipPath id="clip0_604_10171">
<rect width="640.629" height="620.746" fill="white"/>
</clipPath>
</defs>
</svg>
