<svg width="599" height="482" viewBox="0 0 599 482" fill="none" xmlns="http://www.w3.org/2000/svg">
<g clip-path="url(#clip0_317_9621)">
<path d="M454.016 258.859L466.013 256.683L469.011 265.908L456.947 269.827L454.016 258.859Z" fill="#ED9DA0"/>
<path d="M370.928 480.774C370.928 480.774 361.412 457.352 389.96 439.786L370.928 480.774Z" fill="#E6E6E6"/>
<path d="M381.073 480.348C381.073 480.348 378.171 463.658 355.703 463.798L381.073 480.348Z" fill="#E6E6E6"/>
<path d="M573.857 480.774C573.857 480.774 561.282 449.831 599.001 426.624L573.857 480.774Z" fill="#E6E6E6"/>
<path d="M558.396 480.211C558.396 480.211 554.561 458.157 524.878 458.346L558.396 480.211Z" fill="#E6E6E6"/>
<path d="M366.167 137.356L346.474 126.896L347.947 126.112L367.641 136.574L366.167 137.356Z" fill="#013FF6"/>
<path d="M348.988 137.356L347.516 136.574L367.208 126.112L368.682 126.896L348.988 137.356Z" fill="#013FF6"/>
<path d="M257.333 82.8662L256.734 84.0352L260.242 85.8323L260.841 84.6633L257.333 82.8662Z" fill="#CBCBCB"/>
<path d="M330.05 121.603L323.069 118.026L323.668 116.857L330.649 120.434L330.05 121.603ZM316.088 114.449L309.106 110.872L309.705 109.703L316.686 113.28L316.088 114.449ZM302.126 107.295L295.145 103.718L295.744 102.549L302.724 106.126L302.126 107.295ZM288.163 100.141L281.182 96.5641L281.781 95.395L288.762 98.9719L288.163 100.141ZM274.201 92.9872L267.221 89.4103L267.82 88.2412L274.8 91.8181L274.201 92.9872Z" fill="#CBCBCB"/>
<path d="M337.632 124.011L337.033 125.18L340.54 126.977L341.14 125.808L337.632 124.011Z" fill="#CBCBCB"/>
<path d="M72.8059 170.805C72.8059 171.215 72.7926 171.622 72.7662 172.025C72.617 174.352 72.0291 176.63 71.0334 178.738C71.0259 178.756 71.0169 178.773 71.0087 178.79C70.9623 178.888 70.9144 178.985 70.8657 179.082C70.5695 179.678 70.2409 180.258 69.8814 180.818C68.2397 183.391 65.9894 185.52 63.3294 187.017C60.6695 188.514 57.6818 189.332 54.6304 189.4L54.8145 199.978L57.2098 198.715L57.6379 199.529L54.8287 201.008L55.1723 220.654L55.176 220.916L53.3212 221.33L53.325 221.066L53.9088 189.402C51.4527 189.366 49.0281 188.844 46.7757 187.864C44.5233 186.884 42.488 185.466 40.7881 183.693C40.6713 183.573 40.5553 183.448 40.4422 183.324L40.4295 183.31C39.0133 181.767 37.8678 179.995 37.041 178.071C37.0589 178.091 37.0784 178.11 37.0964 178.131C35.2287 173.765 35.102 168.849 36.7421 164.392C38.3822 159.935 41.6649 156.273 45.9176 154.158L46.1123 154.063C50.3189 152.037 55.1333 151.665 59.6012 153.022C64.0691 154.378 67.8643 157.363 70.2347 161.385C70.3477 161.575 70.4593 161.77 70.5626 161.965C72.035 164.68 72.8044 167.72 72.8006 170.808L72.8059 170.805Z" fill="#E5E5E5"/>
<path d="M70.3026 178.8C83.7677 178.8 94.6833 167.885 94.6833 154.421C94.6833 140.957 83.7677 130.042 70.3026 130.042C56.8375 130.042 45.9219 140.957 45.9219 154.421C45.9219 167.885 56.8375 178.8 70.3026 178.8Z" fill="#013FF6"/>
<path opacity="0.2" d="M52.3005 138.138C50.0263 143.457 49.7178 149.412 51.4301 154.937C53.1424 160.463 56.7639 165.2 61.6475 168.302C66.5311 171.404 72.3585 172.668 78.0885 171.869C83.8185 171.07 89.0777 168.259 92.9262 163.94C91.5369 167.19 89.4575 170.099 86.8323 172.465C84.2071 174.832 81.0987 176.599 77.7225 177.645C74.3464 178.691 70.7832 178.991 67.2797 178.523C63.7763 178.055 60.4164 176.832 57.4328 174.937C54.4493 173.042 51.9134 170.521 50.0009 167.549C48.0884 164.577 46.845 161.224 46.3568 157.724C45.8686 154.224 46.1473 150.659 47.1736 147.277C48.1999 143.895 49.9492 140.777 52.3005 138.138Z" fill="black"/>
<path d="M71.6221 222.335L69.1318 221.637L69.1371 221.369L69.8856 180.816L69.923 178.795V178.736L70.0533 171.651L70.2419 161.383L70.3699 154.422H70.4387L70.5697 161.963L70.7404 171.779L70.8624 178.739V178.791L70.8676 179.078L71.1042 192.654L71.1289 194.001L71.6177 222.061L71.6221 222.335Z" fill="#2D2F39"/>
<path d="M74.2481 191.003L70.2178 193.125L70.7795 194.192L74.8098 192.07L74.2481 191.003Z" fill="#2D2F39"/>
<path d="M386.353 75.5208C355.579 73.7025 324.714 74.1778 294.011 76.9429C279.213 78.2804 264.18 79.7249 249.655 82.953C237.955 85.5532 224.377 89.9466 217.088 100.181C215.562 102.243 214.533 104.631 214.082 107.156C213.632 109.682 213.772 112.278 214.492 114.741C216.23 120.579 220.554 125.432 225.158 129.236C235.755 137.993 248.905 143.082 260.65 150.043C282.096 162.742 301.723 179.858 314.319 201.601C319.863 211.169 325.136 223.891 318.96 234.434C312.913 244.763 299.413 248.321 288.404 250.002C274.605 252.105 260.391 251.535 246.535 250.357C231.344 248.94 216.237 246.727 201.278 243.728C171.971 238.101 142.932 230.944 113.219 227.689C98.3201 225.936 83.296 225.502 68.3211 226.39C54.7969 227.303 41.1567 229.442 28.4521 234.318C18.6615 238.075 8.22568 243.76 2.9374 253.241C-2.16 262.381 -0.171941 272.92 5.37906 281.352C12.0581 291.497 22.4722 298.45 33.2987 303.531C45.6268 309.317 58.8134 313.067 72.0158 316.255C78.712 317.872 85.4442 319.335 92.1771 320.79C93.5813 321.093 94.1816 318.936 92.7759 318.631C79.1978 315.697 65.5808 312.754 52.3403 308.507C40.0878 304.577 27.5486 299.543 17.5148 291.293C9.3971 284.617 1.67915 274.866 2.1582 263.779C2.64099 252.602 12.0192 244.799 21.2109 239.995C32.6984 233.992 45.7496 231.068 58.538 229.54C73.1813 227.908 87.9487 227.708 102.631 228.941C132.272 231.196 161.255 237.949 190.32 243.835C218.556 249.556 247.673 254.855 276.609 253.387C288.077 252.806 300.367 251.162 310.493 245.373C315.13 242.723 319.311 238.985 321.667 234.121C323.79 229.493 324.462 224.331 323.593 219.314C321.951 208.294 315.405 198.075 308.874 189.301C301.715 179.777 293.411 171.17 284.148 163.677C273.982 155.496 263.02 148.356 251.428 142.364C245.28 139.127 239.046 136.015 233.188 132.267C227.574 128.674 222.03 124.348 218.6 118.514C215.633 113.468 215.089 107.708 218.179 102.59C221.305 97.414 226.69 93.8034 232 91.1651C244.794 84.8084 259.669 83.1072 273.666 81.3603C303.722 77.6296 334.013 76.1193 364.291 76.8418C371.65 77.015 379.005 77.3196 386.355 77.7557C387.794 77.8403 387.789 75.6016 386.355 75.5171L386.353 75.5208Z" fill="black"/>
<path d="M366.831 3.7696L371.479 0.0520012C367.868 -0.346179 366.384 1.62377 365.777 3.18131C362.956 2.00997 359.885 3.54506 359.885 3.54506L369.185 6.92136C368.716 5.66833 367.899 4.575 366.831 3.7696Z" fill="#2D2F39"/>
<path d="M344.272 15.5391L348.921 11.8215C345.31 11.4234 343.826 13.3933 343.219 14.9508C340.397 13.7795 337.326 15.3146 337.326 15.3146L346.626 18.6909C346.157 17.4379 345.341 16.3445 344.272 15.5391Z" fill="#2D2F39"/>
<path d="M366.831 34.1729L371.479 30.4553C367.868 30.0571 366.384 32.0271 365.777 33.5846C362.956 32.4133 359.885 33.9484 359.885 33.9484L369.186 37.3284C368.717 36.0754 367.9 34.9821 366.832 34.1767L366.831 34.1729Z" fill="#2D2F39"/>
<path d="M297.146 39.6792C304.881 39.6792 311.151 33.4096 311.151 25.6756C311.151 17.9415 304.881 11.6719 297.146 11.6719C289.412 11.6719 283.142 17.9415 283.142 25.6756C283.142 33.4096 289.412 39.6792 297.146 39.6792Z" fill="#FFC01D"/>
<path d="M341.063 68.8283H272.359C272.273 68.8294 272.187 68.8226 272.103 68.8081L304.597 12.5321C304.795 12.1815 305.083 11.8898 305.431 11.6869C305.779 11.4839 306.175 11.377 306.577 11.377C306.98 11.377 307.376 11.4839 307.724 11.6869C308.072 11.8898 308.359 12.1815 308.558 12.5321L330.364 50.2964L331.412 52.1032L341.063 68.8283Z" fill="#013FF6"/>
<path d="M379.314 68.8286H319.893L331.407 52.1043L332.236 50.8993L347.24 29.1019C347.505 28.7684 347.837 28.4945 348.216 28.298C348.594 28.1016 349.009 27.9869 349.434 27.9615C349.86 27.936 350.286 28.0005 350.685 28.1505C351.084 28.3006 351.446 28.5329 351.749 28.8324C351.827 28.9176 351.899 29.0076 351.966 29.1019L379.314 68.8286Z" fill="#013FF6"/>
<path d="M281.294 197.9C287.806 201.155 291.773 205.453 291.773 210.168C291.773 220.325 273.393 228.558 250.722 228.558C240.864 228.558 231.822 227.001 224.748 224.406C232.265 228.163 243.175 230.528 255.323 230.528C277.995 230.528 296.374 222.295 296.374 212.138C296.368 206.398 290.493 201.273 281.294 197.9Z" fill="#F1F1F1"/>
<path d="M295.78 204.876C303.128 208.549 307.602 213.399 307.602 218.719C307.602 230.179 286.863 239.469 261.28 239.469C250.157 239.469 239.953 237.712 231.968 234.784C240.449 239.023 252.76 241.692 266.468 241.692C292.051 241.692 312.79 232.401 312.79 220.942C312.789 214.467 306.16 208.681 295.78 204.876Z" fill="#F1F1F1"/>
<path d="M275.75 200.973C280.338 203.266 283.131 206.294 283.131 209.616C283.131 216.771 270.182 222.572 254.209 222.572C247.986 222.652 241.796 221.663 235.908 219.647C241.203 222.293 248.89 223.959 257.449 223.959C273.422 223.959 286.371 218.159 286.371 211.004C286.371 206.96 282.232 203.349 275.75 200.973Z" fill="#F1F1F1"/>
<path d="M372.335 119.495L372.325 119.477L372.298 118.331L378.471 109.369L372.305 117.473L372.284 117.716L372.073 108.555L377.404 99.2639L372.058 106.946L372.114 87.9681V87.9053V87.9674L371.76 102.925L366.9 96.8494L371.744 104.213L371.638 112.407L367.166 104.41L371.621 113.612L371.562 118.168L371.399 130.791L371.387 131.734C371.799 131.737 372.206 131.73 372.61 131.713L372.33 119.588L372.335 119.495Z" fill="#CBCBCB"/>
<path d="M342.778 123.435L342.768 123.417L342.741 122.271L348.914 113.309L342.751 121.414L342.729 121.656L342.518 112.496L347.849 103.204L342.503 110.887L342.558 91.9087V91.8496V91.9117L342.204 106.869L337.345 100.794L342.188 108.158L342.082 116.351L337.61 108.355L342.066 117.556L342.006 122.112L341.843 134.735L341.831 135.678C342.243 135.681 342.651 135.674 343.054 135.658L342.774 123.533L342.778 123.435Z" fill="#CBCBCB"/>
<path d="M357.227 110.958L357.216 110.94L357.189 109.794L363.362 100.832L357.197 108.936L357.174 109.179L356.963 100.018L362.295 90.7268L356.948 98.409L357.004 79.431L356.65 94.3875L351.791 88.3123L356.635 95.6764L356.528 103.87L352.057 95.8732L356.512 105.075L356.453 109.631L356.29 122.253L356.278 123.196C356.689 123.199 357.097 123.193 357.501 123.176L357.221 111.051L357.227 110.958Z" fill="#CBCBCB"/>
<path d="M113.115 329.044C117.468 329.044 120.997 325.515 120.997 321.163C120.997 316.81 117.468 313.281 113.115 313.281C108.762 313.281 105.233 316.81 105.233 321.163C105.233 325.515 108.762 329.044 113.115 329.044Z" fill="#013FF6"/>
<path d="M511.973 466.643L504.676 469.354L490.746 442.501L501.517 438.501L511.973 466.643Z" fill="#ED9DA0"/>
<path d="M516.462 473.026L492.933 481.766L492.823 481.467C491.92 479.038 492.02 476.351 493.099 473.995C494.178 471.64 496.149 469.81 498.577 468.907L512.949 463.568L516.462 473.026Z" fill="#2F2E41"/>
<path d="M440.163 474.221H432.378L428.675 444.198H440.164L440.163 474.221Z" fill="#ED9DA0"/>
<path d="M441.513 481.766H416.413V481.449C416.413 478.858 417.442 476.373 419.274 474.541C421.106 472.709 423.591 471.68 426.182 471.68H441.513V481.766Z" fill="#2F2E41"/>
<path d="M475.805 265.999L473.26 260.922L451.672 271.715L452.306 276.16L448.179 281.556C448.179 281.556 441.195 285.366 442.465 298.063L443.737 310.126L445.325 325.682L434.213 364.093L428.498 414.88L424.371 455.831L444.372 454.879L462.786 388.215L495.168 459.958L517.39 454.249L486.913 383.138L483.103 353.298C483.103 353.298 485.642 337.425 473.579 326.632L475.484 320.918V313.877L481.833 280.285L475.805 265.999Z" fill="#2F2E41"/>
<path opacity="0.2" d="M476.394 338.594L462.426 388.115L463.144 388.318L477.113 338.796L476.394 338.594Z" fill="black"/>
<path d="M475.166 325.68H444.054V328.854H475.166V325.68Z" fill="#2D2F39"/>
<path d="M444.055 330.759C444.757 330.759 445.326 329.337 445.326 327.584C445.326 325.831 444.757 324.41 444.055 324.41C443.354 324.41 442.785 325.831 442.785 327.584C442.785 329.337 443.354 330.759 444.055 330.759Z" fill="#2D2F39"/>
<path d="M466.199 257.787C474.401 253.304 477.415 243.021 472.932 234.82C468.448 226.619 458.165 223.604 449.963 228.088C441.761 232.571 438.747 242.853 443.23 251.055C447.714 259.256 457.997 262.27 466.199 257.787Z" fill="#ED9DA0"/>
<path d="M483.984 236.896C492.253 236.896 498.957 230.193 498.957 221.925C498.957 213.656 492.253 206.953 483.984 206.953C475.715 206.953 469.012 213.656 469.012 221.925C469.012 230.193 475.715 236.896 483.984 236.896Z" fill="#2F2E41"/>
<path d="M502.984 220.321C503.569 222.303 503.736 224.384 503.477 226.434C503.218 228.484 502.537 230.458 501.477 232.232C500.418 234.005 499.002 235.54 497.32 236.741C495.638 237.941 493.726 238.779 491.704 239.204C489.682 239.629 487.594 239.631 485.571 239.209C483.548 238.788 481.634 237.952 479.95 236.755C478.266 235.558 476.848 234.025 475.786 232.253C474.723 230.481 474.039 228.508 473.776 226.459C474.841 230.069 477.227 233.146 480.458 235.076C483.69 237.006 487.53 237.648 491.214 236.874C494.898 236.1 498.155 233.967 500.336 230.899C502.517 227.831 503.463 224.055 502.984 220.321Z" fill="#2F2E41"/>
<path d="M443.833 238.24C443.393 242.109 444.243 246.016 446.249 249.354C448.255 252.693 451.307 255.276 454.931 256.704C458.554 258.132 462.548 258.326 466.293 257.254C470.038 256.182 473.324 253.906 475.644 250.777C477.963 247.648 479.186 243.841 479.122 239.947C479.059 236.053 477.712 232.288 475.292 229.237C472.872 226.185 469.512 224.017 465.735 223.068C461.957 222.12 457.972 222.443 454.396 223.989C451.44 221.604 447.774 222.342 444.793 224.86C441.425 227.704 440.422 229.66 437.809 234.339C440.379 234.7 441.262 237.879 443.833 238.24Z" fill="#2F2E41"/>
<path d="M506.044 289.131C505.855 294.146 505.479 304.019 505.479 304.523C505.479 305.053 497.994 320.549 494.761 327.219C494.531 327.689 494.325 328.117 494.142 328.491C493.892 329.009 493.499 329.444 493.009 329.745C492.519 330.045 491.953 330.2 491.379 330.189L477.248 329.935C476.472 329.921 475.732 329.609 475.181 329.062C474.63 328.516 474.311 327.779 474.291 327.003L472.714 264.84C472.709 264.635 472.745 264.431 472.82 264.24C472.894 264.049 473.007 263.875 473.15 263.728C473.293 263.581 473.464 263.465 473.653 263.385C473.842 263.305 474.045 263.264 474.25 263.264H492.473C493.243 263.264 493.997 263.481 494.649 263.891C495.301 264.3 495.824 264.884 496.159 265.577L504.906 283.67C505.726 285.371 506.118 287.247 506.046 289.134L506.044 289.131Z" fill="#013FF6"/>
<path d="M474.044 322.74C470.418 320.543 467.16 317.79 464.388 314.581C457.95 307.34 454.034 298.206 453.229 288.55C452.51 280.288 454.15 274.147 458.102 270.298C463.125 265.404 469.962 266.115 470.251 266.148L470.557 266.182L475.192 270.101L473.881 271.65L469.737 268.144C468.468 268.08 463.288 268.069 459.505 271.767C456.022 275.173 454.593 280.761 455.254 288.375C456.02 297.568 459.739 306.267 465.856 313.174C468.495 316.226 471.588 318.853 475.027 320.963L474.044 322.74Z" fill="#013FF6"/>
<path d="M500.348 299.128L475.646 304.194L475.782 304.857L500.484 299.791L500.348 299.128Z" fill="#2D2F39"/>
<path d="M484.066 263.255L483.39 263.283L485.002 302.561L485.678 302.533L484.066 263.255Z" fill="#2D2F39"/>
<path d="M506.046 289.134C505.856 294.149 505.481 304.022 505.481 304.525C505.481 305.056 497.996 320.552 494.763 327.222L500.79 292.229C501.023 290.883 501.61 289.622 502.49 288.577C503.37 287.532 504.512 286.739 505.799 286.28C506.001 287.217 506.084 288.176 506.046 289.134Z" fill="#2D2F39"/>
<path d="M469.015 362.47C469.549 361.782 469.925 360.986 470.118 360.137C470.31 359.289 470.315 358.408 470.13 357.557C469.945 356.707 469.577 355.907 469.049 355.215C468.522 354.522 467.85 353.954 467.079 353.549L468.303 340.002L460.25 337.249L458.789 356.41C458.201 357.749 458.124 359.256 458.571 360.648C459.019 362.04 459.96 363.221 461.218 363.966C462.476 364.712 463.963 364.972 465.4 364.697C466.836 364.421 468.122 363.63 469.015 362.472L469.015 362.47Z" fill="#ED9DA0"/>
<path d="M470.068 349.359L455.798 348.841L456.401 280.032C456.391 278.085 456.993 276.183 458.122 274.597C459.251 273.011 460.851 271.819 462.694 271.191C464.416 270.619 466.277 270.617 468.001 271.186C469.956 271.847 471.635 273.141 472.774 274.862C473.912 276.583 474.445 278.634 474.288 280.692L470.068 349.359Z" fill="#CBCBCB"/>
<path d="M595.251 482.001H310.951C310.763 481.986 310.588 481.901 310.46 481.763C310.332 481.624 310.261 481.443 310.261 481.254C310.261 481.066 310.332 480.884 310.46 480.746C310.588 480.608 310.763 480.523 310.951 480.508H595.251C595.354 480.5 595.457 480.513 595.555 480.547C595.652 480.581 595.741 480.635 595.817 480.705C595.893 480.775 595.953 480.86 595.995 480.955C596.036 481.049 596.057 481.151 596.057 481.254C596.057 481.357 596.036 481.46 595.995 481.554C595.953 481.649 595.893 481.734 595.817 481.804C595.741 481.874 595.652 481.927 595.555 481.961C595.457 481.995 595.354 482.009 595.251 482.001Z" fill="#CBCBCB"/>
<path d="M284.439 95.9542L210.206 53.1084C208.945 52.3822 207.516 52 206.061 52C204.607 52 203.177 52.3822 201.917 53.1084L171.149 70.8697C169.888 71.5962 168.84 72.6421 168.112 73.9021C167.384 75.1621 167 76.5917 167 78.0471V124.81C167 126.264 167.383 127.694 168.111 128.953C168.838 130.213 169.884 131.26 171.144 131.987L245.378 174.851V118.497L284.439 95.9542Z" fill="#FFC01D"/>
<path opacity="0.6" d="M284.439 95.9542L210.206 53.1084C208.945 52.3822 207.516 52 206.061 52C204.607 52 203.177 52.3822 201.917 53.1084L171.149 70.8697C169.888 71.5962 168.84 72.6421 168.112 73.9021C167.384 75.1621 167 76.5917 167 78.0471V124.81C167 126.264 167.383 127.694 168.111 128.953C168.838 130.213 169.884 131.26 171.144 131.987L245.378 174.851V118.497L284.439 95.9542Z" fill="white"/>
<path d="M181.377 137.898L189.575 134.104C189.575 134.104 188.928 126.362 183.513 128.225C178.098 130.087 181.377 137.898 181.377 137.898Z" fill="#FFC01D"/>
<g opacity="0.5">
<path d="M181.377 137.898L189.575 134.104C189.575 134.104 188.928 126.362 183.513 128.225C178.098 130.087 181.377 137.898 181.377 137.898Z" fill="black"/>
</g>
<path d="M185.891 136.933L184.124 133.422L188.328 130.99C189.666 130.22 191.447 130.307 193.401 131.445C197.554 133.841 200.92 140.025 200.92 145.253C200.92 147.986 200.009 149.926 198.52 150.805L198.461 150.841L194.148 153.328L192.281 149.612C188.737 146.92 186.028 141.596 185.891 136.933Z" fill="#263238"/>
<path d="M181.51 139.091C181.51 143.6 184.015 148.819 187.366 151.706C187.882 152.149 188.435 152.545 189.02 152.89C193.173 155.29 196.539 152.991 196.534 147.762C196.534 143.809 194.617 139.314 191.884 136.318L191.861 136.295C191.039 135.374 190.081 134.584 189.02 133.954C184.875 131.568 181.51 133.858 181.51 139.091Z" fill="#455A64"/>
<path d="M189.029 137.12C186.387 135.594 184.242 137.184 184.242 140.668C184.242 144.151 186.387 148.218 189.029 149.744C191.67 151.27 193.811 149.68 193.811 146.192C193.811 142.703 191.67 138.645 189.029 137.12Z" fill="#37474F"/>
<path d="M189.029 140.153C187.663 139.36 186.547 140.189 186.547 141.974C186.547 143.759 187.658 145.891 189.029 146.683C190.4 147.476 191.511 146.651 191.511 144.862C191.511 143.072 190.4 140.959 189.029 140.153Z" fill="#E0E0E0"/>
<path d="M188.236 140.121C188.067 140.021 187.882 139.947 187.69 139.902C187.002 140.085 186.547 140.841 186.547 141.997C186.591 143.365 187.08 144.681 187.94 145.745C188.035 145.818 188.134 145.885 188.236 145.946C189.452 146.647 190.441 145.914 190.441 144.306C190.441 142.699 189.452 140.827 188.236 140.121Z" fill="#F5F5F5"/>
<path opacity="0.05" d="M181.51 139.091C181.51 143.6 184.015 148.819 187.366 151.706C185.04 149.071 183.402 145.901 182.598 142.479C181.961 139.465 182.202 135.133 184.789 134.04C187.376 132.947 190.791 135.252 191.871 136.318C191.049 135.397 190.09 134.607 189.029 133.977C184.875 131.568 181.51 133.858 181.51 139.091Z" fill="white"/>
<path d="M167 78.174V124.827C167 126.277 167.382 127.7 168.107 128.956C168.832 130.211 169.875 131.253 171.131 131.977L181.378 137.898V137.151C181.378 132.232 184.324 129.832 188.277 131.025C188.487 131.089 188.696 131.162 188.915 131.244C189.42 131.445 189.91 131.683 190.381 131.954C195.391 134.833 199.426 141.828 199.426 147.58C199.425 147.814 199.399 148.048 199.348 148.277L245.391 174.85V118.497L171.263 75.7147C170.831 75.4654 170.341 75.3341 169.842 75.334C169.344 75.3339 168.854 75.4651 168.422 75.7143C167.99 75.9635 167.631 76.322 167.381 76.7537C167.132 77.1855 167 77.6753 167 78.174Z" fill="#FFC01D"/>
<path opacity="0.3" d="M167 78.174V124.827C167 126.277 167.382 127.7 168.107 128.956C168.832 130.211 169.875 131.253 171.131 131.977L181.378 137.898V137.151C181.378 132.232 184.324 129.832 188.277 131.025C188.487 131.089 188.696 131.162 188.915 131.244C189.42 131.445 189.91 131.683 190.381 131.954C195.391 134.833 199.426 141.828 199.426 147.58C199.425 147.814 199.399 148.048 199.348 148.277L245.391 174.85V118.497L171.263 75.7147C170.831 75.4654 170.341 75.3341 169.842 75.334C169.344 75.3339 168.854 75.4651 168.422 75.7143C167.99 75.9635 167.631 76.322 167.381 76.7537C167.132 77.1855 167 77.6753 167 78.174Z" fill="white"/>
<path d="M257.734 88.2173L228.332 71.2393L220.316 75.8709V76.4447L249.714 93.4227L257.734 88.7911V88.2173Z" fill="#FFC01D"/>
<path d="M220.316 75.8709L249.714 92.8443L257.734 88.2173L228.332 71.2393L220.316 75.8709Z" fill="#FFC01D"/>
<path opacity="0.4" d="M220.316 75.8704L249.714 92.8438L257.734 88.2168L228.332 71.4482L220.316 75.8704Z" fill="white"/>
<path opacity="0.15" d="M220.316 75.8701L249.714 92.8436V93.422L220.316 76.4439V75.8701Z" fill="black"/>
<path d="M249.713 92.8439L257.733 88.2168V88.7906L249.713 93.4222V92.8439Z" fill="#FFC01D"/>
<path d="M249.718 92.853L220.316 75.875L212.296 80.5066V82.0505L241.698 98.0585L249.718 93.4269V92.853Z" fill="#EBEBEB"/>
<path d="M212.296 80.5066L241.698 97.4801L249.718 92.853L220.316 75.875L212.296 80.5066Z" fill="#FFC01D"/>
<path opacity="0.6" d="M212.296 80.5066L241.698 97.4801L249.718 92.853L220.316 75.875L212.296 80.5066Z" fill="white"/>
<path d="M241.697 97.4796L249.717 92.8525V93.4264L241.697 98.058V97.4796Z" fill="#FFC01D"/>
<path opacity="0.3" d="M241.697 97.4796L249.717 92.8525V93.4264L241.697 98.058V97.4796Z" fill="white"/>
<path d="M241.698 97.4751L212.297 80.4971L204.281 85.1287V85.7071L233.679 102.681L241.698 98.0489V97.4751Z" fill="#FFC01D"/>
<path d="M204.281 85.1287L233.679 102.102L241.698 97.4751L212.297 80.4971L204.281 85.1287Z" fill="#FFC01D"/>
<path opacity="0.4" d="M204.69 85.1287L233.678 102.102L241.698 97.4751L212.296 80.4971L204.69 85.1287Z" fill="white"/>
<path opacity="0.15" d="M204.281 85.1289L233.679 102.102V102.681L204.281 85.7073V85.1289Z" fill="white"/>
<path d="M233.678 102.103L241.698 97.4756V98.0494L233.678 102.681V102.103Z" fill="#FFC01D"/>
<path d="M241.151 95.5399L246.379 92.5205C246.693 92.3429 246.857 92.1425 246.743 92.0651C246.468 92.0378 246.193 92.1124 245.969 92.2746L240.736 95.294C240.422 95.4762 240.258 95.672 240.372 95.7494C240.649 95.7761 240.925 95.7017 241.151 95.5399Z" fill="#455A64"/>
<path d="M238.866 94.2192L244.098 91.2043C244.413 91.0222 244.554 90.8218 244.463 90.7489C244.186 90.7236 243.909 90.7996 243.684 90.963L238.456 93.9778C238.137 94.16 237.978 94.3604 238.091 94.4333C238.367 94.4579 238.642 94.3819 238.866 94.2192Z" fill="#455A64"/>
<path d="M236.579 92.8986L241.812 89.8838C242.126 89.7016 242.267 89.5012 242.176 89.4283C241.899 89.4038 241.623 89.4798 241.397 89.6424L236.169 92.6846C235.855 92.8668 235.714 93.0671 235.805 93.14C236.083 93.1569 236.359 93.071 236.579 92.8986Z" fill="#455A64"/>
<path d="M234.279 91.5771L239.526 88.585C239.844 88.4028 240.004 88.207 239.89 88.1296C239.614 88.1049 239.339 88.1809 239.116 88.3436L233.883 91.3585C233.569 91.5406 233.405 91.741 233.519 91.8139C233.792 91.8279 234.062 91.7439 234.279 91.5771Z" fill="#455A64"/>
<path d="M232.002 90.2618L237.235 87.2424C237.549 87.0648 237.713 86.8644 237.599 86.787C237.323 86.762 237.047 86.8362 236.82 86.9965L231.592 90.0159C231.278 90.1981 231.114 90.3939 231.228 90.4713C231.503 90.4986 231.778 90.424 232.002 90.2618Z" fill="#455A64"/>
<path d="M229.725 88.9407L234.953 85.9258C235.267 85.7436 235.431 85.5432 235.318 85.4704C235.042 85.4457 234.767 85.5218 234.543 85.6844L229.311 88.6993C228.996 88.8815 228.855 89.0818 228.946 89.1547C229.223 89.1797 229.5 89.1036 229.725 88.9407Z" fill="#455A64"/>
<path d="M227.448 87.6205L232.681 84.6056C232.995 84.4234 233.136 84.223 233.045 84.1502C232.768 84.1252 232.492 84.2012 232.266 84.3642L227.038 87.3791C226.724 87.5613 226.56 87.7616 226.674 87.8345C226.949 87.8592 227.224 87.7831 227.448 87.6205Z" fill="#455A64"/>
<path d="M225.17 86.3088L230.398 83.294C230.713 83.1118 230.854 82.916 230.763 82.8385C230.487 82.8139 230.212 82.8899 229.989 83.0526L224.756 86.0675C224.442 86.2496 224.3 86.45 224.392 86.5229C224.668 86.5474 224.945 86.4714 225.17 86.3088Z" fill="#455A64"/>
<path d="M222.894 84.9834L228.127 81.964C228.441 81.7864 228.582 81.586 228.486 81.5086C228.212 81.4838 227.937 81.5581 227.712 81.7181L222.484 84.7375C222.165 84.9197 222.006 85.1155 222.12 85.1929C222.395 85.2201 222.67 85.1456 222.894 84.9834Z" fill="#455A64"/>
<path d="M220.589 83.6623L225.822 80.6474C226.136 80.4653 226.277 80.2649 226.186 80.192C225.909 80.1675 225.633 80.2435 225.408 80.4061L220.161 83.43C219.847 83.6122 219.706 83.8126 219.797 83.8855C220.079 83.9121 220.362 83.8325 220.589 83.6623Z" fill="#455A64"/>
<path d="M218.307 82.342L223.536 79.3272C223.854 79.145 224.014 78.9446 223.9 78.8717C223.625 78.8471 223.349 78.9231 223.126 79.0858L217.884 82.1098C217.57 82.2919 217.406 82.4923 217.52 82.5652C217.801 82.5898 218.081 82.5104 218.307 82.342Z" fill="#455A64"/>
<path d="M216.021 81.0254L221.254 78.006C221.568 77.8238 221.709 77.628 221.618 77.5505C221.341 77.5256 221.064 77.6016 220.839 77.7646L215.606 80.7886C215.292 80.9707 215.151 81.1711 215.242 81.244C215.52 81.2672 215.796 81.1896 216.021 81.0254Z" fill="#455A64"/>
<path d="M178.581 131.217V132.62C178.581 132.907 178.376 133.025 178.126 132.879L172.66 129.732C172.528 129.647 172.418 129.531 172.339 129.395C172.26 129.259 172.214 129.106 172.205 128.949V127.542C172.205 127.255 172.405 127.136 172.66 127.282L178.126 130.434C178.258 130.518 178.369 130.634 178.448 130.77C178.528 130.906 178.573 131.06 178.581 131.217Z" fill="white"/>
<g opacity="0.2">
<path d="M243.884 172.145L231.337 164.899C231.313 164.886 231.294 164.866 231.28 164.842C231.266 164.818 231.259 164.79 231.26 164.763V156.069C231.259 156.042 231.266 156.015 231.28 155.992C231.293 155.968 231.313 155.949 231.337 155.937C231.361 155.923 231.387 155.916 231.415 155.916C231.442 155.916 231.469 155.923 231.492 155.937L244.039 163.182C244.063 163.195 244.083 163.214 244.096 163.238C244.11 163.261 244.117 163.288 244.116 163.315V172.008C244.117 172.036 244.11 172.063 244.096 172.087C244.083 172.111 244.063 172.131 244.039 172.145C244.013 172.152 243.987 172.152 243.961 172.145C243.936 172.151 243.909 172.151 243.884 172.145ZM231.588 156.338V164.676L243.829 171.744V163.406L231.588 156.338Z" fill="black"/>
</g>
<path opacity="0.3" d="M237.882 161.221L237.499 161.002V166.854L237.872 167.082L237.882 161.221ZM240.036 162.464L239.653 162.246V168.098L240.027 168.321L240.036 162.464ZM242.19 163.707L241.807 163.489V169.341L242.181 169.564L242.19 163.707ZM241.11 163.088L240.723 162.865V168.717L241.097 168.945L241.11 163.088ZM238.952 161.845L238.569 161.622V167.474L238.943 167.701L238.952 161.845ZM233.182 158.516V164.368L233.555 164.595V158.721L233.182 158.516ZM234.644 159.358L234.261 159.14V164.992L234.634 165.215L234.644 159.358ZM236.798 160.601L236.415 160.383V166.23L236.789 166.458L236.798 160.601ZM235.718 159.982L235.336 159.759V165.611L235.709 165.839L235.718 159.982Z" fill="black"/>
<path d="M245.391 160.378L167 115.118V116.776L245.391 162.035V160.378Z" fill="#263238"/>
<path d="M167 106.374V108.032L245.391 153.291V151.634L167 106.374Z" fill="#263238"/>
<path d="M171.572 82.21V88.1304L181.851 94.0509V88.1304L171.572 82.21ZM171.572 103.578L181.851 109.499V95.8999L171.572 89.9521V103.578Z" fill="#455A64"/>
<path d="M183.787 89.2598V95.1802L194.066 101.11V95.1893L183.787 89.2598ZM183.787 110.628L194.066 116.548V102.95L183.787 97.0292V110.628Z" fill="#455A64"/>
<path d="M195.996 96.3281V102.249L206.275 108.169V102.249L195.996 96.3281ZM195.996 117.696L206.275 123.617V109.991L195.996 104.07V117.696Z" fill="#455A64"/>
<path d="M208.211 103.359V109.28L218.49 115.2V109.28L208.211 103.359ZM208.211 124.723L218.49 130.644V117.049L208.211 111.106V124.723Z" fill="#455A64"/>
<path d="M220.425 110.409V116.33L230.704 122.273V116.366L220.425 110.409ZM220.425 131.773L230.704 137.693V124.108L220.425 118.188V131.773Z" fill="#455A64"/>
<path d="M232.635 117.454V123.375L242.914 129.295V123.375L232.635 117.454ZM232.635 138.822L242.914 144.743V131.144L232.635 125.224V138.822Z" fill="#455A64"/>
<path d="M321.674 136.636L321.187 136.358L317.234 138.64L314.442 143.978V149.251L317.234 151.364L317.721 151.642L321.674 149.361L324.471 144.019V138.749L321.674 136.636Z" fill="#455A64"/>
<path d="M321.674 136.637L317.721 138.918L314.925 144.26V149.53L317.721 151.643L321.674 149.361L324.47 144.019V138.75L321.674 136.637Z" fill="#F5F5F5"/>
<path d="M321.669 136.71L324.402 138.782V144.005L321.619 149.316L317.716 151.57L314.984 149.502V144.274L317.766 138.964L321.669 136.71ZM321.669 136.637L317.716 138.914L314.92 144.256V149.525L317.716 151.638L321.669 149.361L324.452 144.019V138.75L321.656 136.637H321.669Z" fill="#E0E0E0"/>
<path d="M315.284 149.353V144.348L317.989 139.179L321.646 137.065L324.11 138.928V143.933L321.405 149.102L317.748 151.215L315.284 149.353Z" fill="#FFC01D"/>
<path d="M318.031 143.751L318.536 143.459V147.03L318.992 146.752V143.186L319.497 142.894V142.257L318.012 143.113L318.031 143.751ZM317.575 145.946C317.508 145.825 317.416 145.72 317.306 145.636C317.235 145.586 317.161 145.542 317.083 145.504C317.005 145.468 316.935 145.419 316.874 145.358C316.813 145.295 316.765 145.22 316.732 145.138C316.7 145.056 316.685 144.968 316.687 144.88C316.686 144.764 316.704 144.648 316.742 144.538C316.774 144.428 316.845 144.332 316.942 144.27C317.024 144.22 317.088 144.22 317.129 144.27C317.205 144.365 317.246 144.484 317.243 144.607L317.698 144.233C317.693 144.085 317.658 143.939 317.593 143.805C317.571 143.759 317.539 143.717 317.5 143.684C317.461 143.65 317.415 143.625 317.366 143.609C317.287 143.595 317.206 143.596 317.128 143.613C317.05 143.631 316.976 143.663 316.91 143.71C316.721 143.819 316.564 143.976 316.455 144.165C316.259 144.476 316.158 144.836 316.163 145.203C316.158 145.387 316.194 145.569 316.268 145.736C316.353 145.878 316.468 145.999 316.605 146.091L317.029 146.378C317.087 146.431 317.134 146.495 317.164 146.568C317.195 146.64 317.209 146.719 317.206 146.797C317.21 146.901 317.194 147.004 317.161 147.102C317.118 147.244 317.03 147.367 316.91 147.453C316.883 147.476 316.848 147.489 316.812 147.489C316.776 147.489 316.742 147.476 316.714 147.453C316.612 147.324 316.56 147.162 316.569 146.998L316.113 147.303C316.116 147.487 316.152 147.669 316.218 147.84C316.238 147.899 316.271 147.954 316.313 148C316.355 148.046 316.407 148.083 316.464 148.109C316.541 148.132 316.622 148.137 316.702 148.123C316.781 148.109 316.855 148.076 316.919 148.027C317.016 147.973 317.105 147.905 317.184 147.826C317.325 147.688 317.437 147.522 317.511 147.339C317.629 147.071 317.688 146.781 317.684 146.488C317.679 146.365 317.655 146.243 317.612 146.128C317.598 146.073 317.58 146.02 317.557 145.968L317.575 145.946ZM323.086 140.503C322.949 140.385 322.762 140.394 322.53 140.531L321.779 140.963V145.171L322.257 144.894V143.309L322.53 143.149C322.759 143.005 322.942 142.798 323.058 142.553C323.198 142.295 323.273 142.008 323.277 141.715V141.095C323.288 140.989 323.277 140.881 323.244 140.779C323.211 140.677 323.157 140.583 323.086 140.503ZM322.817 141.993C322.816 142.1 322.788 142.204 322.735 142.298C322.694 142.388 322.628 142.464 322.544 142.516L322.257 142.68V141.337L322.544 141.168C322.573 141.148 322.607 141.138 322.642 141.138C322.677 141.138 322.711 141.148 322.74 141.168C322.768 141.197 322.79 141.232 322.804 141.271C322.817 141.31 322.822 141.351 322.817 141.391V141.993ZM321.141 141.574C321.063 141.517 320.969 141.486 320.872 141.486C320.776 141.486 320.682 141.517 320.604 141.574C320.373 141.72 320.189 141.928 320.071 142.175C319.931 142.434 319.856 142.723 319.852 143.017V145.294C319.841 145.403 319.854 145.512 319.892 145.614C319.93 145.716 319.991 145.808 320.071 145.882C320.148 145.938 320.242 145.968 320.337 145.968C320.433 145.968 320.526 145.938 320.604 145.882C320.834 145.736 321.019 145.527 321.137 145.281C321.28 145.023 321.356 144.733 321.36 144.438V142.138C321.368 142.032 321.352 141.924 321.312 141.825C321.273 141.726 321.211 141.636 321.132 141.564L321.141 141.574ZM320.891 144.734C320.889 144.846 320.861 144.955 320.809 145.053C320.764 145.146 320.695 145.225 320.608 145.281C320.569 145.303 320.526 145.315 320.481 145.317C320.445 145.318 320.41 145.307 320.381 145.285C320.348 145.256 320.323 145.219 320.307 145.178C320.291 145.137 320.285 145.092 320.289 145.048V142.771C320.291 142.66 320.319 142.551 320.371 142.453C320.419 142.36 320.489 142.282 320.576 142.225C320.609 142.201 320.648 142.189 320.688 142.189C320.728 142.189 320.767 142.201 320.8 142.225C320.833 142.253 320.858 142.289 320.874 142.33C320.89 142.37 320.896 142.414 320.891 142.457V144.734Z" fill="#F5F5F5"/>
<path d="M314.01 124.395L316.915 122.71C317.012 122.638 317.126 122.594 317.246 122.583C317.365 122.572 317.486 122.594 317.594 122.646L318.277 123.051C318.376 123.119 318.455 123.212 318.506 123.322C318.556 123.431 318.576 123.551 318.564 123.671V130.648C318.548 130.979 318.454 131.301 318.291 131.589C318.127 131.877 317.897 132.123 317.621 132.306L314.716 133.991C314.619 134.062 314.505 134.106 314.386 134.118C314.266 134.13 314.146 134.109 314.037 134.059L313.349 133.649C313.252 133.58 313.174 133.486 313.124 133.378C313.075 133.269 313.055 133.149 313.067 133.03V126.048C313.084 125.718 313.178 125.397 313.342 125.109C313.505 124.822 313.734 124.578 314.01 124.395Z" fill="#37474F"/>
<path d="M313.066 126.049V133.026C313.054 133.145 313.073 133.265 313.123 133.374C313.172 133.483 313.25 133.576 313.349 133.645C313.517 133.741 313.777 133.904 314.018 134.041C313.928 133.97 313.857 133.877 313.812 133.771C313.766 133.665 313.748 133.55 313.758 133.435V126.458C313.769 126.126 313.867 125.803 314.041 125.52L313.344 125.11C313.174 125.395 313.079 125.717 313.066 126.049Z" fill="#263238"/>
<path d="M317.621 132.306L314.715 133.991C314.187 134.296 313.759 134.05 313.759 133.44V126.463C313.777 126.131 313.873 125.808 314.039 125.52C314.205 125.232 314.437 124.987 314.715 124.805L317.621 123.12C318.149 122.815 318.577 123.061 318.577 123.671V130.648C318.56 130.98 318.464 131.304 318.298 131.592C318.132 131.88 317.9 132.125 317.621 132.306Z" fill="#455A64"/>
<path d="M313.841 138.094C313.786 138.097 313.732 138.081 313.687 138.048C313.643 138.016 313.611 137.969 313.596 137.916C313.582 137.863 313.586 137.806 313.608 137.756C313.631 137.706 313.669 137.664 313.718 137.639L315.745 136.473C315.781 136.451 315.811 136.42 315.831 136.384C315.852 136.347 315.863 136.306 315.863 136.264V128.626C315.863 128.562 315.889 128.501 315.934 128.455C315.979 128.41 316.041 128.385 316.105 128.385C316.169 128.385 316.23 128.41 316.275 128.455C316.321 128.501 316.346 128.562 316.346 128.626V136.268C316.346 136.395 316.313 136.52 316.248 136.629C316.184 136.739 316.092 136.83 315.982 136.892L313.978 138.062C313.937 138.088 313.889 138.099 313.841 138.094Z" fill="#263238"/>
<path d="M329.662 174.428C329.662 174.428 324.529 181.992 312.301 189.297C302.159 195.359 291.101 196.78 291.101 196.78L290.004 179.893L324.985 159.954L329.156 157.55C329.611 158.328 329.901 159.192 330.008 160.086L329.858 170.871L329.662 174.428Z" fill="#FFC01D"/>
<path opacity="0.45" d="M329.662 174.428C329.662 174.428 324.529 181.992 312.301 189.297C302.159 195.359 291.101 196.78 291.101 196.78L290.004 179.893L324.985 159.954L329.156 157.55C329.611 158.328 329.901 159.192 330.008 160.086L329.858 170.871L329.662 174.428Z" fill="white"/>
<path d="M329.298 157.809C328.213 159.133 327.057 160.398 325.837 161.599C321.651 165.697 316.985 169.275 311.942 172.255C301.8 178.317 290.004 179.897 290.004 179.897L276.597 170.561L315.635 148.022L327.185 155.423C327.214 155.442 327.241 155.463 327.267 155.487C328.119 156.088 328.815 156.885 329.298 157.809Z" fill="#FFC01D"/>
<path opacity="0.6" d="M329.298 157.809C328.213 159.133 327.057 160.398 325.837 161.599C321.651 165.697 316.985 169.275 311.942 172.255C301.8 178.317 290.004 179.897 290.004 179.897L276.597 170.561L315.635 148.022L327.185 155.423C327.214 155.442 327.241 155.463 327.267 155.487C328.119 156.088 328.815 156.885 329.298 157.809Z" fill="white"/>
<path d="M276.137 164.395L315.175 141.87L315.631 148.018C306.718 156.926 293.028 164.186 276.597 170.562L276.137 164.395Z" fill="#FFC01D"/>
<path opacity="0.4" d="M276.137 164.395L315.175 141.87L315.631 148.018C306.718 156.926 293.028 164.186 276.597 170.562L276.137 164.395Z" fill="white"/>
<path d="M296.425 180.467C296.784 180.381 297.158 180.375 297.519 180.449C297.881 180.524 298.221 180.678 298.516 180.899C298.812 181.12 299.055 181.404 299.228 181.73C299.401 182.056 299.5 182.416 299.518 182.785C299.602 183.591 299.395 184.401 298.935 185.069C298.475 185.737 297.792 186.219 297.008 186.428C296.649 186.518 296.275 186.526 295.912 186.453C295.549 186.38 295.207 186.227 294.911 186.004C294.615 185.782 294.372 185.497 294.2 185.17C294.028 184.842 293.931 184.48 293.916 184.11C293.844 183.306 294.056 182.501 294.514 181.836C294.972 181.171 295.648 180.687 296.425 180.467Z" fill="white"/>
<path d="M327.321 161.653C326.41 162.564 325.804 164.554 325.995 166.075C326.187 167.596 327.056 168.07 327.935 167.141C328.814 166.212 329.402 164.23 329.261 162.718C329.119 161.206 328.25 160.728 327.321 161.653Z" fill="white"/>
<path d="M260.725 183.704L268.923 179.883C268.923 179.883 268.276 172.141 262.861 174.008C257.446 175.876 260.725 183.704 260.725 183.704Z" fill="#FFC01D"/>
<g opacity="0.5">
<path d="M260.725 183.704L268.923 179.883C268.923 179.883 268.276 172.141 262.861 174.008C257.446 175.876 260.725 183.704 260.725 183.704Z" fill="black"/>
</g>
<path d="M265.247 182.712L263.48 179.205L267.684 176.773C269.018 176.003 270.799 176.09 272.753 177.228C276.902 179.624 280.267 185.808 280.267 191.037C280.267 193.769 279.356 195.705 277.872 196.579L277.813 196.611L273.504 199.098L271.623 195.4C268.103 192.699 265.38 187.375 265.247 182.712Z" fill="#263238"/>
<path d="M260.861 184.871C260.861 189.379 263.362 194.594 266.713 197.481C267.226 197.927 267.78 198.323 268.367 198.665C272.516 201.065 275.886 198.77 275.881 193.542C275.881 189.593 273.959 185.094 271.231 182.102L271.208 182.079C270.387 181.157 269.428 180.366 268.367 179.734C264.222 177.352 260.861 179.642 260.861 184.871Z" fill="#455A64"/>
<path d="M268.376 182.898C265.734 181.372 263.594 182.962 263.594 186.45C263.594 189.939 265.734 193.997 268.376 195.522C271.017 197.048 273.158 195.459 273.158 191.97C273.158 188.481 271.017 184.424 268.376 182.898Z" fill="#37474F"/>
<path d="M268.377 185.936C267.01 185.144 265.895 185.968 265.895 187.758C265.895 189.548 267.006 191.675 268.377 192.467C269.747 193.26 270.859 192.435 270.859 190.645C270.859 188.856 269.747 186.729 268.377 185.936Z" fill="#E0E0E0"/>
<path d="M267.584 185.904C267.414 185.802 267.23 185.727 267.038 185.681C266.35 185.867 265.895 186.619 265.895 187.776C265.938 189.143 266.428 190.46 267.288 191.524C267.383 191.596 267.482 191.663 267.584 191.724C268.8 192.425 269.788 191.692 269.788 190.085C269.788 188.477 268.8 186.605 267.584 185.904Z" fill="#F5F5F5"/>
<path opacity="0.05" d="M260.861 184.871C260.861 189.379 263.362 194.594 266.713 197.481C264.388 194.847 262.75 191.679 261.945 188.259C261.312 185.244 261.549 180.918 264.136 179.825C266.723 178.732 270.138 181.036 271.218 182.102C270.396 181.179 269.437 180.388 268.376 179.756C264.222 177.352 260.861 179.642 260.861 184.871Z" fill="white"/>
<path d="M288.474 199.707L288.146 199.516L287.172 198.951L279.598 194.557L278.715 194.042C278.744 193.957 278.757 193.867 278.751 193.778C278.783 193.644 278.795 193.506 278.787 193.368C278.787 187.611 274.752 180.616 269.743 177.747C269.274 177.475 268.785 177.237 268.281 177.037C268.062 176.95 267.853 176.877 267.643 176.813C263.69 175.616 260.744 178.02 260.744 182.939V183.713L245.392 174.851V118.497L256.595 124.969L270.125 134.505L276.11 164.399L276.588 170.547L288.137 177.966C288.948 178.516 289.626 179.241 290.121 180.087C290.616 180.934 290.915 181.88 290.997 182.857L291.166 196.77L291.275 197.945C291.304 198.285 291.239 198.627 291.086 198.933C290.934 199.239 290.7 199.497 290.411 199.679C290.122 199.861 289.788 199.96 289.447 199.965C289.105 199.97 288.769 199.881 288.474 199.707Z" fill="#FFC01D"/>
<g opacity="0.3">
<path d="M288.474 199.707L288.146 199.516L287.172 198.951L279.598 194.557L278.715 194.042C278.744 193.957 278.757 193.867 278.751 193.778C278.783 193.644 278.795 193.506 278.787 193.368C278.787 187.611 274.752 180.616 269.743 177.747C269.274 177.475 268.785 177.237 268.281 177.037C268.062 176.95 267.853 176.877 267.643 176.813C263.69 175.616 260.744 178.02 260.744 182.939V183.713L245.392 174.851V118.497L256.595 124.969L270.125 134.505L276.11 164.399L276.588 170.547L288.137 177.966C288.948 178.516 289.626 179.241 290.121 180.087C290.616 180.934 290.915 181.88 290.997 182.857L291.166 196.77L291.275 197.945C291.304 198.285 291.239 198.627 291.086 198.933C290.934 199.239 290.7 199.497 290.411 199.679C290.122 199.861 289.788 199.96 289.447 199.965C289.105 199.97 288.769 199.881 288.474 199.707Z" fill="white"/>
</g>
<path d="M246.803 174.036V123.653L255.843 128.872L261.982 133.199V176.345C260.57 177.466 259.705 179.132 259.418 181.318L246.803 174.036Z" fill="#455A64"/>
<path d="M252.628 170.675L246.803 174.036L259.418 181.323C259.714 179.136 260.57 177.47 261.982 176.349V176.081L252.628 170.675Z" fill="#37474F"/>
<path d="M261.982 169.796V163.074L258.448 161.034L252.628 164.395L261.982 169.796Z" fill="#37474F"/>
<path d="M252.628 164.395V170.675L261.982 176.076V169.8L252.628 164.395Z" fill="#263238"/>
<path d="M261.982 156.798L258.448 154.758V161.033L261.982 163.074V156.798Z" fill="#263238"/>
<path d="M256.112 139.965L246.803 145.344V173.58L252.268 170.392V164.153L258.093 160.792V141.118C258.091 140.886 258.03 140.659 257.914 140.459C257.798 140.258 257.631 140.092 257.431 139.975C257.231 139.859 257.004 139.797 256.773 139.795C256.541 139.793 256.313 139.852 256.112 139.965Z" fill="#FFC01D"/>
<path opacity="0.8" d="M256.112 139.965L246.803 145.344V173.58L252.268 170.392V164.153L258.093 160.792V141.118C258.091 140.886 258.03 140.659 257.914 140.459C257.798 140.258 257.631 140.092 257.431 139.975C257.231 139.859 257.004 139.797 256.773 139.795C256.541 139.793 256.313 139.852 256.112 139.965Z" fill="white"/>
<path d="M246.803 174.036L252.628 170.675V164.395L258.448 161.034V141.36C258.448 141.127 258.387 140.898 258.27 140.696C258.154 140.494 257.986 140.327 257.785 140.21C257.583 140.094 257.354 140.033 257.121 140.033C256.888 140.033 256.659 140.095 256.458 140.212L246.803 145.786V174.036Z" fill="#FFC01D"/>
<path opacity="0.6" d="M246.803 174.036L252.628 170.675V164.395L258.448 161.034V141.36C258.448 141.127 258.387 140.898 258.27 140.696C258.154 140.494 257.986 140.327 257.785 140.21C257.583 140.094 257.354 140.033 257.121 140.033C256.888 140.033 256.659 140.095 256.458 140.212L246.803 145.786V174.036Z" fill="white"/>
<path opacity="0.2" d="M246.803 174.036L252.628 170.675V164.395L258.448 161.034V141.36C258.448 141.127 258.387 140.898 258.27 140.696C258.154 140.494 257.986 140.327 257.785 140.21C257.583 140.094 257.354 140.033 257.121 140.033C256.888 140.033 256.659 140.095 256.458 140.212L246.803 145.786V174.036Z" fill="black"/>
<path d="M246.803 174.036L247.691 173.526V124.177L246.803 123.662V174.036Z" fill="#263238"/>
<path d="M258.106 130.484V153.834C258.11 153.884 258.128 153.932 258.156 153.972C258.185 154.013 258.225 154.046 258.27 154.066C258.396 154.128 258.534 154.16 258.673 154.16C258.813 154.16 258.951 154.128 259.076 154.066C259.123 154.046 259.163 154.014 259.193 153.973C259.223 153.932 259.241 153.884 259.245 153.834V131.277L258.106 130.484Z" fill="#EBEBEB"/>
<path d="M265.753 156.284C265.243 155.953 264.819 155.506 264.514 154.98C264.209 154.453 264.033 153.862 264 153.255V137.138C264 136.022 264.414 135.426 264.911 135.808L267.584 137.516C268.264 138.091 268.742 138.868 268.95 139.734L272.676 159.085C272.826 159.841 272.402 160.146 271.733 159.759L265.753 156.284Z" fill="#37474F"/>
<path d="M330.828 171.659C330.759 171.586 330.695 171.595 330.623 171.722C330.623 171.722 325.016 179.465 312.793 186.774C302.646 192.84 291.589 194.243 291.589 194.243C288.856 194.812 283.059 191.223 283.059 191.223L283.924 190.864C283.924 190.864 288.196 193.141 290.35 193.378C292.745 193.637 301.184 192.162 312.893 185.549C324.602 178.936 329.889 170.907 329.889 170.907C330.097 170.941 330.293 171.028 330.457 171.16C330.621 171.292 330.749 171.463 330.828 171.659Z" fill="#37474F"/>
<path d="M330.623 171.718C330.623 171.718 325.016 179.46 312.793 186.774C302.646 192.84 291.589 194.243 291.589 194.243C289.079 194.699 283.059 191.224 283.059 191.224V197.914C288.414 200.938 289.23 201.165 291.589 200.933C291.589 200.933 302.45 198.715 312.665 192.772C326.67 184.629 330.623 178.399 330.623 178.399C331.588 176.755 331.187 170.725 330.623 171.718Z" fill="#455A64"/>
<path d="M308.262 111.329L270.139 134.505L256.604 124.969L245.392 118.497L284.439 95.9541L295.652 102.426L308.262 111.329Z" fill="#FFC01D"/>
<path opacity="0.6" d="M308.262 111.329L270.139 134.505L256.604 124.969L245.392 118.497L284.439 95.9541L295.652 102.426L308.262 111.329Z" fill="white"/>
<path d="M266.03 151.693L268.936 150.008C269.032 149.936 269.147 149.892 269.266 149.881C269.386 149.87 269.506 149.891 269.615 149.944L270.302 150.349C270.4 150.418 270.478 150.512 270.527 150.621C270.577 150.73 270.597 150.85 270.585 150.969V157.946C270.566 158.277 270.47 158.599 270.304 158.887C270.138 159.174 269.906 159.418 269.628 159.599L266.723 161.284C266.627 161.355 266.514 161.398 266.395 161.41C266.276 161.422 266.157 161.402 266.049 161.352L265.356 160.942C265.258 160.874 265.18 160.78 265.131 160.671C265.081 160.562 265.061 160.442 265.074 160.323V153.351C265.092 153.019 265.188 152.695 265.354 152.407C265.52 152.119 265.752 151.875 266.03 151.693Z" fill="#37474F"/>
<path d="M265.074 153.346V160.323C265.061 160.442 265.081 160.563 265.13 160.672C265.18 160.781 265.258 160.875 265.357 160.943C265.525 161.038 265.785 161.202 266.026 161.344C265.936 161.271 265.865 161.177 265.82 161.071C265.775 160.964 265.757 160.848 265.767 160.733V153.761C265.779 153.428 265.876 153.103 266.049 152.818L265.352 152.408C265.183 152.693 265.087 153.015 265.074 153.346Z" fill="#263238"/>
<path d="M269.629 159.599L266.723 161.284C266.195 161.59 265.767 161.344 265.767 160.733V153.761C265.784 153.429 265.88 153.107 266.046 152.819C266.212 152.532 266.444 152.288 266.723 152.108L269.629 150.418C270.157 150.113 270.585 150.359 270.585 150.969V157.946C270.566 158.277 270.47 158.6 270.304 158.887C270.138 159.174 269.907 159.418 269.629 159.599Z" fill="#455A64"/>
<path d="M272.219 160.756C272.505 160.942 272.742 161.193 272.912 161.488C273.082 161.783 273.18 162.114 273.199 162.454C273.199 163.078 272.743 163.333 272.219 163.019C271.933 162.834 271.696 162.583 271.525 162.288C271.355 161.992 271.257 161.661 271.24 161.32C271.245 160.697 271.682 160.442 272.219 160.756Z" fill="#37474F"/>
<path d="M268.782 164.039C268.656 164.039 268.532 164.006 268.422 163.943C268.312 163.88 268.22 163.789 268.157 163.678C268.094 163.568 268.061 163.442 268.063 163.315V156.229C268.063 156.165 268.088 156.103 268.133 156.058C268.179 156.013 268.24 155.987 268.304 155.987C268.368 155.987 268.429 156.013 268.475 156.058C268.52 156.103 268.545 156.165 268.545 156.229V163.315C268.545 163.357 268.555 163.399 268.576 163.436C268.597 163.473 268.627 163.503 268.664 163.524C268.7 163.547 268.742 163.558 268.784 163.558C268.827 163.558 268.869 163.547 268.905 163.524L272.093 161.68C272.148 161.648 272.213 161.64 272.275 161.656C272.336 161.672 272.389 161.712 272.421 161.767C272.453 161.822 272.461 161.888 272.445 161.95C272.429 162.013 272.389 162.066 272.334 162.099L269.146 163.943C269.035 164.006 268.91 164.039 268.782 164.039Z" fill="#263238"/>
<path opacity="0.2" d="M285.341 160.879L282.932 168.129C282.932 168.129 291.207 171.158 294.991 173.462C298.776 175.767 299.313 176.559 299.846 177.561C299.687 175.546 299.03 173.602 297.935 171.904C296.839 170.205 295.34 168.805 293.57 167.829C287.468 164.468 285.341 160.879 285.341 160.879Z" fill="black"/>
<path d="M324.111 161.338C324.001 158.228 322.781 156.351 319.698 154.052L309.701 146.605L285.341 160.878L295.164 168.652C297.869 170.192 299.372 172.783 299.677 175.88C299.737 176.467 299.773 176.836 299.846 177.556C309.719 174.682 317.152 169.595 324.115 163.242C324.115 163.242 324.138 162.081 324.111 161.338Z" fill="#FFC01D"/>
<path opacity="0.45" d="M324.111 161.338C324.001 158.228 322.781 156.351 319.698 154.052L309.701 146.605L285.341 160.878L295.164 168.652C297.869 170.192 299.372 172.783 299.677 175.88C299.737 176.467 299.773 176.836 299.846 177.556C309.719 174.682 317.152 169.595 324.115 163.242C324.115 163.242 324.138 162.081 324.111 161.338Z" fill="white"/>
<path opacity="0.1" d="M298.152 171.312L322.813 157.071C321.944 155.898 320.892 154.872 319.698 154.033L309.701 146.605L285.341 160.878L295.164 168.652C296.337 169.318 297.355 170.224 298.152 171.312Z" fill="white"/>
<path opacity="0.5" d="M324.111 161.338C324.001 158.228 322.781 156.351 319.698 154.052L309.701 146.605C313.094 149.338 316.177 151.724 318.477 153.496C319.711 154.402 320.857 155.42 321.902 156.538C323.077 157.945 323.268 158.36 323.673 159.885C323.925 160.988 324.078 162.112 324.129 163.242C324.129 163.242 324.138 162.081 324.111 161.338Z" fill="white"/>
<path d="M299.859 177.556C299.786 176.837 299.75 176.468 299.69 175.88C299.385 172.784 298.78 170.966 295.378 168.216C291.976 165.465 285.358 160.879 285.358 160.879L285.905 166.722C285.905 166.722 294.517 171.212 297.172 173.899C299.372 176.149 299.859 177.556 299.859 177.556Z" fill="#FFC01D"/>
<path opacity="0.3" d="M299.859 177.556C299.786 176.837 299.75 176.468 299.69 175.88C299.385 172.784 298.78 170.966 295.378 168.216C291.976 165.465 285.358 160.879 285.358 160.879L285.905 166.722C285.905 166.722 294.517 171.212 297.172 173.899C299.372 176.149 299.859 177.556 299.859 177.556Z" fill="white"/>
<path opacity="0.2" d="M299.859 177.556C299.786 176.837 299.75 176.468 299.69 175.88C299.385 172.784 298.78 170.966 295.378 168.216C291.976 165.465 285.358 160.879 285.358 160.879L285.905 166.722C285.905 166.722 294.517 171.212 297.172 173.899C299.372 176.149 299.859 177.556 299.859 177.556Z" fill="black"/>
<path d="M315.175 141.869C315.175 141.869 308.721 148.336 298.092 154.525C291.098 158.497 283.747 161.804 276.136 164.403L270.134 135.334L309.191 112.786L315.175 141.869Z" fill="#455A64"/>
<path d="M309.191 112.778C308.758 110.674 306.213 110.232 303.512 111.794L274.247 128.663C271.542 130.225 269.693 133.217 270.148 135.307L276.15 164.377L276.565 164.235C290.227 159.522 303.562 152.545 314.251 142.721C314.816 142.202 315.125 141.893 315.162 141.847L309.191 112.778ZM295.916 153.606V153.629C295.883 153.875 295.795 154.11 295.658 154.317C295.52 154.524 295.337 154.697 295.123 154.822C293.689 155.605 292.25 156.343 290.847 157.026C288.114 158.392 285.191 159.659 282.39 160.793C281.055 161.334 279.379 161.977 278.173 162.414C277.95 162.505 277.701 162.513 277.473 162.436C277.244 162.359 277.051 162.202 276.929 161.995C276.872 161.885 276.829 161.769 276.802 161.649L273.049 142.945C272.995 142.604 273.041 142.254 273.181 141.939C273.322 141.623 273.551 141.356 273.842 141.168L289.672 132.028C289.791 131.948 289.929 131.898 290.072 131.885C290.215 131.871 290.36 131.894 290.492 131.952C290.624 132.009 290.74 132.098 290.828 132.212C290.916 132.326 290.974 132.46 290.997 132.602L294.741 148.246L295.875 152.991C295.936 153.19 295.95 153.401 295.916 153.606ZM313.267 141.92C312.279 143.04 311.031 143.928 309.87 144.926C306.201 147.917 302.323 150.643 298.266 153.082C298.148 153.165 298.012 153.216 297.869 153.23C297.726 153.245 297.582 153.222 297.45 153.165C297.319 153.108 297.204 153.018 297.117 152.904C297.03 152.79 296.974 152.655 296.954 152.513L296.927 152.404L295.802 147.667L292.086 132.046C292.02 131.707 292.058 131.356 292.195 131.039C292.333 130.722 292.563 130.454 292.855 130.27L295.856 128.54L308.057 121.467L308.599 121.157L308.645 121.135C308.761 121.062 308.895 121.021 309.032 121.014C309.169 121.007 309.306 121.035 309.429 121.095C309.553 121.155 309.659 121.245 309.739 121.357C309.818 121.469 309.868 121.599 309.883 121.736L313.613 140.29C313.701 140.857 313.578 141.437 313.267 141.92Z" fill="#FFC01D"/>
<path opacity="0.45" d="M309.191 112.778C308.758 110.674 306.213 110.232 303.512 111.794L274.247 128.663C271.542 130.225 269.693 133.217 270.148 135.307L276.15 164.377L276.565 164.235C290.227 159.522 303.562 152.545 314.251 142.721C314.816 142.202 315.125 141.893 315.162 141.847L309.191 112.778ZM295.916 153.606V153.629C295.883 153.875 295.795 154.11 295.658 154.317C295.52 154.524 295.337 154.697 295.123 154.822C293.689 155.605 292.25 156.343 290.847 157.026C288.114 158.392 285.191 159.659 282.39 160.793C281.055 161.334 279.379 161.977 278.173 162.414C277.95 162.505 277.701 162.513 277.473 162.436C277.244 162.359 277.051 162.202 276.929 161.995C276.872 161.885 276.829 161.769 276.802 161.649L273.049 142.945C272.995 142.604 273.041 142.254 273.181 141.939C273.322 141.623 273.551 141.356 273.842 141.168L289.672 132.028C289.791 131.948 289.929 131.898 290.072 131.885C290.215 131.871 290.36 131.894 290.492 131.952C290.624 132.009 290.74 132.098 290.828 132.212C290.916 132.326 290.974 132.46 290.997 132.602L294.741 148.246L295.875 152.991C295.936 153.19 295.95 153.401 295.916 153.606ZM313.267 141.92C312.279 143.04 311.031 143.928 309.87 144.926C306.201 147.917 302.323 150.643 298.266 153.082C298.148 153.165 298.012 153.216 297.869 153.23C297.726 153.245 297.582 153.222 297.45 153.165C297.319 153.108 297.204 153.018 297.117 152.904C297.03 152.79 296.974 152.655 296.954 152.513L296.927 152.404L295.802 147.667L292.086 132.046C292.02 131.707 292.058 131.356 292.195 131.039C292.333 130.722 292.563 130.454 292.855 130.27L295.856 128.54L308.057 121.467L308.599 121.157L308.645 121.135C308.761 121.062 308.895 121.021 309.032 121.014C309.169 121.007 309.306 121.035 309.429 121.095C309.553 121.155 309.659 121.245 309.739 121.357C309.818 121.469 309.868 121.599 309.883 121.736L313.613 140.29C313.701 140.857 313.578 141.437 313.267 141.92Z" fill="white"/>
<path d="M309.018 118.957L272.535 140.02L271.523 135.038C271.246 133.708 272.585 131.267 274.953 129.906L304.218 113.019C304.929 112.576 305.741 112.32 306.577 112.276C307.643 112.276 307.761 112.85 307.807 113.06L309.018 118.957Z" fill="#37474F"/>
<path d="M275.048 131.163C275.271 131.11 275.503 131.106 275.727 131.153C275.952 131.199 276.163 131.294 276.347 131.432C276.53 131.569 276.681 131.745 276.789 131.947C276.896 132.15 276.958 132.373 276.97 132.602C277.026 133.105 276.899 133.611 276.613 134.029C276.327 134.446 275.902 134.748 275.413 134.879C275.19 134.934 274.957 134.94 274.732 134.894C274.506 134.849 274.294 134.754 274.11 134.616C273.926 134.478 273.775 134.301 273.668 134.098C273.561 133.894 273.5 133.669 273.491 133.44C273.444 132.938 273.574 132.436 273.858 132.02C274.143 131.604 274.564 131.301 275.048 131.163Z" fill="white"/>
<path d="M304.364 113.961C304.569 113.913 304.782 113.911 304.988 113.956C305.194 114 305.387 114.089 305.554 114.217C305.722 114.345 305.858 114.509 305.955 114.696C306.051 114.883 306.105 115.09 306.112 115.3C306.159 115.759 306.043 116.22 305.784 116.602C305.525 116.985 305.14 117.264 304.696 117.39C304.491 117.441 304.278 117.445 304.071 117.402C303.864 117.359 303.67 117.27 303.502 117.142C303.334 117.014 303.197 116.85 303.101 116.662C303.005 116.474 302.953 116.267 302.947 116.056C302.907 115.597 303.025 115.139 303.283 114.757C303.541 114.375 303.923 114.094 304.364 113.961Z" fill="white"/>
<path d="M273.841 135.681C273.978 135.649 274.121 135.647 274.259 135.676C274.396 135.705 274.526 135.764 274.639 135.849C274.751 135.933 274.844 136.042 274.91 136.166C274.976 136.291 275.014 136.428 275.021 136.569C275.046 136.873 274.964 137.177 274.788 137.426C274.612 137.676 274.355 137.856 274.06 137.935C273.923 137.97 273.78 137.973 273.641 137.946C273.503 137.918 273.372 137.86 273.259 137.775C273.146 137.69 273.053 137.581 272.988 137.456C272.922 137.331 272.885 137.193 272.88 137.052C272.859 136.748 272.943 136.446 273.118 136.196C273.293 135.946 273.548 135.765 273.841 135.681Z" fill="#FFC01D"/>
<path d="M306.818 116.985C306.944 116.956 307.075 116.955 307.201 116.983C307.328 117.011 307.446 117.066 307.549 117.144C307.652 117.223 307.736 117.324 307.795 117.439C307.854 117.553 307.888 117.68 307.892 117.809C307.922 118.092 307.85 118.375 307.691 118.61C307.532 118.845 307.295 119.016 307.023 119.094C306.897 119.124 306.766 119.126 306.639 119.1C306.512 119.073 306.393 119.019 306.29 118.94C306.187 118.862 306.103 118.761 306.043 118.646C305.984 118.53 305.952 118.403 305.948 118.274C305.924 117.992 305.997 117.711 306.155 117.476C306.314 117.242 306.547 117.068 306.818 116.985Z" fill="#FFC01D"/>
<path d="M278.546 136.559L303.489 122.15L301.959 114.321L276.906 128.781L278.546 136.559Z" fill="white"/>
<path d="M281.405 132.584C281.065 132.193 280.86 131.703 280.822 131.186C280.691 130.616 280.704 130.023 280.858 129.46C281.006 129.002 281.324 128.619 281.747 128.39C281.88 128.31 282.024 128.25 282.175 128.212C282.279 128.189 282.343 128.244 282.366 128.371C282.391 128.515 282.391 128.661 282.366 128.804C282.366 128.941 282.298 129.018 282.234 129.027C282.121 129.048 282.013 129.088 281.915 129.146C281.817 129.207 281.733 129.289 281.669 129.385C281.605 129.482 281.564 129.591 281.546 129.706C281.492 130.052 281.503 130.406 281.578 130.749C281.611 131.064 281.719 131.367 281.892 131.632C281.921 131.67 281.957 131.701 281.999 131.725C282.04 131.748 282.085 131.763 282.133 131.769C282.18 131.774 282.227 131.77 282.273 131.757C282.318 131.744 282.361 131.721 282.398 131.691C282.452 131.665 282.502 131.631 282.548 131.591C282.589 131.559 282.639 131.509 282.703 131.45C282.723 131.436 282.747 131.429 282.771 131.432C282.835 131.395 282.89 131.432 282.94 131.491C283 131.602 283.04 131.722 283.058 131.846C283.07 131.9 283.07 131.956 283.058 132.01C283.043 132.069 283.011 132.123 282.967 132.165C282.904 132.233 282.835 132.295 282.762 132.352C282.676 132.419 282.587 132.482 282.493 132.539C282.029 132.798 281.674 132.798 281.405 132.584Z" fill="#37474F"/>
<path d="M280.949 131.21C280.609 130.819 280.923 130.355 280.885 129.838C281.167 129.268 281.023 129.719 281.177 129.155C281.563 128.884 281.281 128.929 281.704 128.7C281.837 128.62 281.71 128.51 281.86 128.472C281.965 128.449 281.86 128.472 282.088 128.472C282.201 128.472 282.298 128.723 282.273 128.867C282.273 129.003 282.073 128.993 282.009 129.002C281.897 129.023 281.959 129.097 281.861 129.155C281.924 129.059 281.762 129.216 281.861 129.155C281.797 129.252 281.722 129.153 281.704 129.268C281.65 129.614 281.33 129.496 281.405 129.838C281.438 130.154 281.026 130.038 281.199 130.303C281.228 130.341 281.264 130.372 281.305 130.396C281.346 130.419 281.392 130.434 281.439 130.44C281.486 130.445 281.534 130.441 281.579 130.428C281.625 130.415 281.667 130.393 281.704 130.363C281.758 130.336 281.809 130.302 281.855 130.262C281.895 130.231 281.946 130.18 282.009 130.121C282.029 130.107 282.037 130.103 282.078 130.103C282.141 130.067 282.196 130.103 282.246 130.162C282.306 130.273 282.346 130.393 282.365 130.517C282.376 130.572 282.376 130.627 282.365 130.681C282.349 130.741 282.318 130.794 282.273 130.836C282.21 130.904 282.142 130.966 282.069 131.023C281.983 131.09 281.893 131.153 281.8 131.21C281.335 131.469 281.218 131.424 280.949 131.21Z" fill="#37474F"/>
<path d="M295.486 120.988C295.509 121.005 295.528 121.027 295.543 121.051C295.558 121.076 295.568 121.103 295.572 121.132L296.547 124.702C296.558 124.824 296.51 124.943 296.338 125.064L296.157 125.19C295.985 125.315 295.88 125.315 295.847 125.195L295.015 122.156L294.995 122.081L294.983 122.036C294.983 122.036 294.984 122.027 294.969 121.956L294.891 121.411C294.868 121.427 294.905 121.387 294.891 121.411L295.354 121.046C295.368 121.025 295.388 121.009 295.412 120.999C295.435 120.989 295.46 120.985 295.486 120.988Z" fill="#37474F"/>
<path d="M283.683 131.682L283.009 127.997C283.009 127.874 283.068 127.761 283.25 127.656L283.451 127.542C283.633 127.437 283.733 127.446 283.756 127.569L284.011 128.99L283.009 127.997C283.009 127.874 283.068 127.761 283.25 127.656L283.451 127.542C283.633 127.437 283.733 127.451 283.756 127.569L284.416 131.249C284.439 131.372 285.059 131.167 284.375 131.623L283.979 131.705C283.783 131.736 283.706 131.805 283.683 131.682L284.147 129.746L284.416 131.249C284.439 131.372 284.553 131.513 284.375 131.623L283.979 131.705C283.762 131.74 283.706 131.805 283.683 131.682Z" fill="#37474F"/>
<path d="M283.693 130.256C283.447 128.89 283.367 127.962 284.201 127.479C284.344 127.366 284.521 127.302 284.703 127.296C284.886 127.291 285.066 127.343 285.216 127.447C285.565 127.821 285.776 128.303 285.813 128.814C285.944 129.389 285.932 129.988 285.777 130.558C285.64 130.997 285.233 131.171 284.831 131.395C283.921 131.851 283.465 131.851 283.693 130.256ZM285.066 130.571C285.128 130.415 285.156 130.248 285.148 130.08C285.144 129.803 285.115 129.527 285.061 129.255C285.021 128.999 284.956 128.747 284.866 128.504C284.831 128.376 284.75 128.266 284.638 128.194C284.589 128.177 284.536 128.172 284.485 128.179C284.434 128.186 284.384 128.205 284.342 128.235C284.23 128.301 284.14 128.397 284.082 128.513C284.017 128.669 283.986 128.836 283.991 129.005C283.997 129.28 284.026 129.554 284.078 129.825C284.118 130.082 284.184 130.336 284.274 130.581C284.311 130.71 284.396 130.82 284.51 130.89C284.56 130.908 284.614 130.912 284.666 130.904C284.719 130.897 284.768 130.876 284.811 130.845C284.921 130.781 285.01 130.686 285.066 130.571Z" fill="#37474F"/>
<path d="M290.904 123.47C290.927 123.487 290.946 123.508 290.961 123.533C290.976 123.557 290.986 123.585 290.99 123.613L291.965 127.183C291.976 127.306 291.928 127.424 291.756 127.545L291.575 127.671C291.403 127.796 291.298 127.797 291.264 127.676L290.433 124.637L289.762 125.109C289.714 125.141 289.674 125.145 289.639 125.12C289.594 125.064 289.563 124.998 289.549 124.927L289.501 124.753C289.478 124.677 289.471 124.597 289.48 124.517C289.483 124.489 289.491 124.462 289.506 124.438C289.52 124.414 289.54 124.393 289.563 124.377L290.772 123.527C290.786 123.507 290.806 123.491 290.83 123.481C290.853 123.47 290.878 123.467 290.904 123.47Z" fill="#37474F"/>
<path d="M289.971 124.128C289.978 124.155 289.991 124.181 290.009 124.203C290.026 124.224 290.048 124.242 290.073 124.255L290.073 124.871C290.462 124.511 290.462 124.511 290.917 124.283C290.917 124.283 290.917 124.283 291.023 124.202L291.199 124.062L291.858 123.583C291.903 123.549 291.921 123.512 291.91 123.472C291.874 123.411 291.824 123.36 291.764 123.324L291.62 123.223C291.558 123.176 291.487 123.144 291.412 123.126C291.385 123.12 291.357 123.119 291.33 123.125C291.303 123.131 291.277 123.143 291.255 123.159L290.068 124.022C290.044 124.03 290.023 124.043 290.005 124.062C289.988 124.08 289.976 124.103 289.971 124.128Z" fill="#37474F"/>
<path d="M293.179 126.716C293.156 126.699 293.137 126.677 293.123 126.652C293.108 126.627 293.099 126.6 293.096 126.571L292.204 123.05C292.181 122.988 292.176 122.92 292.19 122.855C292.209 122.797 292.247 122.747 292.299 122.715L293.119 122.164C293.755 121.73 294.155 121.834 294.319 122.477C294.373 122.68 294.385 122.893 294.355 123.101C294.325 123.31 294.253 123.51 294.144 123.69C294.221 123.66 294.305 123.652 294.386 123.667C294.468 123.681 294.544 123.717 294.606 123.771C294.756 123.908 294.855 124.091 294.889 124.29C294.978 124.616 294.959 124.961 294.835 125.276C294.696 125.618 294.178 126.105 293.865 126.302L293.308 126.666C293.292 126.684 293.272 126.698 293.249 126.706C293.227 126.715 293.203 126.718 293.179 126.716ZM293.547 123.778C293.64 123.715 293.706 123.621 293.734 123.513C293.756 123.375 293.746 123.234 293.705 123.1C293.691 122.984 293.636 122.876 293.551 122.796C293.489 122.754 293.412 122.769 293.312 122.835L292.99 123.054L293.224 123.987L293.547 123.778ZM293.996 125.421C294.103 125.355 294.182 125.252 294.218 125.132C294.248 124.98 294.237 124.824 294.186 124.678C294.171 124.553 294.109 124.438 294.013 124.357C293.965 124.339 293.914 124.336 293.865 124.347C293.815 124.358 293.77 124.382 293.734 124.417L293.385 124.652L293.638 125.643L293.996 125.421Z" fill="#37474F"/>
<path d="M293.914 124.424C293.936 124.435 293.954 124.448 293.968 124.464C293.981 124.48 293.989 124.497 293.992 124.515L294.763 126.788C294.767 126.866 294.712 126.941 294.533 127.017L294.346 127.097C294.167 127.175 294.062 127.175 294.036 127.098L293.378 125.163L293.363 125.116L293.353 125.087C293.353 125.087 293.354 125.081 293.344 125.036L293.297 124.69C293.272 124.699 293.312 124.674 293.297 124.69L293.779 124.46C293.795 124.447 293.816 124.437 293.839 124.43C293.863 124.424 293.889 124.422 293.914 124.424Z" fill="white"/>
<path d="M294.139 124.049C294.179 124.048 294.213 124.053 294.239 124.061C294.265 124.07 294.283 124.083 294.291 124.1L296.098 125.945C296.122 126.019 296.044 126.12 295.757 126.282L295.456 126.452C295.17 126.617 294.992 126.668 294.93 126.606L293.39 125.037L293.354 124.998L293.331 124.974C293.331 124.974 293.332 124.968 293.304 124.929L293.148 124.613C293.109 124.635 293.171 124.59 293.148 124.613L293.917 124.15C293.942 124.13 293.975 124.109 294.014 124.092C294.053 124.074 294.096 124.059 294.139 124.049Z" fill="white"/>
<path d="M297.278 124.439C297.255 124.422 297.236 124.4 297.221 124.375C297.207 124.35 297.198 124.323 297.194 124.294L296.303 120.773C296.279 120.711 296.275 120.643 296.289 120.578C296.307 120.519 296.346 120.47 296.398 120.438L297.217 119.887C297.853 119.452 298.253 119.557 298.417 120.2C298.471 120.403 298.483 120.615 298.453 120.824C298.423 121.032 298.352 121.232 298.242 121.413C298.32 121.383 298.404 121.375 298.485 121.389C298.566 121.404 298.642 121.44 298.705 121.494C298.854 121.631 298.954 121.813 298.988 122.013C299.076 122.339 299.057 122.684 298.934 122.998C298.795 123.341 298.276 123.827 297.963 124.024L297.407 124.389C297.39 124.407 297.37 124.42 297.348 124.429C297.326 124.438 297.302 124.441 297.278 124.439ZM297.646 121.5C297.739 121.438 297.805 121.344 297.833 121.236C297.855 121.098 297.845 120.956 297.804 120.823C297.789 120.706 297.735 120.599 297.65 120.518C297.588 120.477 297.511 120.492 297.411 120.558L297.088 120.777L297.323 121.71L297.646 121.5ZM298.095 123.144C298.201 123.078 298.28 122.975 298.317 122.855C298.347 122.703 298.335 122.546 298.285 122.4C298.269 122.275 298.207 122.161 298.111 122.079C298.064 122.062 298.013 122.059 297.963 122.07C297.914 122.08 297.869 122.105 297.833 122.14L297.484 122.374L297.736 123.366L298.095 123.144Z" fill="#37474F"/>
<path d="M298.721 122.97C298.721 123.197 298.038 124.336 297.941 124.03L297.736 123.367L297.613 122.855L297.485 122.375C297.456 122.26 297.822 123.613 297.485 122.375C297.436 122.197 297.583 122.059 297.583 122.059L297.81 121.831L298.046 121.617L298.244 121.413C298.244 121.413 298.244 121.478 298.721 121.604C298.949 121.832 298.528 122.192 298.498 122.4C298.468 122.609 298.244 121.518 298.244 121.413C298.321 121.383 298.404 121.375 298.486 121.389C298.567 121.404 298.643 121.44 298.706 121.494C298.855 121.631 298.955 121.813 298.989 122.013C299.077 122.339 299.058 122.684 298.935 122.998C298.796 123.341 298.437 123.708 298.124 123.905C298.199 123.855 297.938 124.033 298.124 123.905C298.124 123.905 298.721 122.742 298.721 122.97ZM297.81 121.831C297.962 121.721 298.148 121.505 298.17 121.494C298.371 121.4 298.7 121.628 298.266 121.831C298.131 121.895 298.221 121.458 298.025 121.675C297.977 121.727 297.925 121.748 297.81 121.831ZM297.811 122.515C297.917 122.448 298.038 122.4 298.038 122.4L298.038 122.287L298.025 122.235L297.81 122.287L297.833 122.14L297.485 122.375L297.649 122.585L297.811 122.515Z" fill="white"/>
<path d="M287.14 129.883C287.007 129.812 286.895 129.707 286.815 129.579C286.735 129.451 286.69 129.305 286.684 129.154L286.201 126.476C286.177 126.355 286.259 126.241 286.447 126.135L286.634 126.025C286.821 125.916 286.926 125.925 286.944 126.025L287.399 128.644C287.403 128.707 287.422 128.768 287.452 128.823C287.483 128.878 287.526 128.926 287.577 128.963C287.626 128.991 287.683 129.004 287.74 129C287.796 128.996 287.851 128.975 287.896 128.94C288.02 128.869 288.115 128.756 288.164 128.621C288.223 128.477 288.239 128.319 288.21 128.166L287.754 125.543C287.733 125.421 287.815 125.307 288 125.201L288.183 125.092C288.369 124.987 288.474 124.996 288.492 125.119L288.975 127.797C289.047 128.161 288.998 128.539 288.834 128.872C288.66 129.215 288.387 129.497 288.05 129.682C287.924 129.784 287.776 129.854 287.618 129.889C287.46 129.924 287.297 129.922 287.14 129.883Z" fill="#37474F"/>
<path d="M292.807 124.288C292.718 124.404 292.66 124.527 292.639 124.643C292.617 124.76 292.661 124.826 292.683 124.954L293.028 126.613C293.052 126.695 293.33 126.769 293.531 126.719L293.749 126.719C293.95 126.673 293.795 126.413 293.774 126.347L293.483 125.019C293.464 124.982 293.462 124.745 293.468 124.696C293.474 124.648 293.493 124.597 293.524 124.547C293.556 124.503 293.6 124.464 293.651 124.433C293.701 124.403 293.756 124.383 293.807 124.377C293.941 124.345 294.065 124.353 294.157 124.399C294.261 124.446 294.333 124.524 294.365 124.626L295.113 126.347C295.139 126.427 295.08 126.439 295.28 126.391L295.477 126.347C295.677 126.298 295.563 126.236 295.533 126.158L294.936 124.433C294.864 124.19 294.85 124.01 294.643 123.875C294.366 123.785 294.026 123.785 293.667 123.876C293.52 123.892 293.367 123.938 293.218 124.01C293.068 124.081 292.928 124.176 292.807 124.288Z" fill="#37474F"/>
<path d="M294.74 148.245C294.717 148.245 294.69 148.272 294.663 148.291C288.287 151.975 279.976 157.909 276.551 160.4L276.797 161.63C276.821 161.778 276.879 161.919 276.965 162.042C277.052 162.166 277.165 162.268 277.296 162.342C277.427 162.416 277.573 162.459 277.723 162.469C277.873 162.479 278.023 162.455 278.163 162.4C283.989 160.278 289.655 157.741 295.118 154.808C295.412 154.634 295.644 154.373 295.783 154.061C295.922 153.75 295.96 153.402 295.892 153.068L294.74 148.245ZM311.272 140.599C305.937 142.548 300.761 144.905 295.788 147.649L296.94 152.499C296.96 152.641 297.016 152.775 297.103 152.89C297.19 153.004 297.304 153.094 297.436 153.151C297.568 153.208 297.712 153.231 297.855 153.216C297.997 153.201 298.134 153.151 298.251 153.068C303.483 149.931 308.409 146.312 312.966 142.256C313.08 142.154 313.178 142.036 313.258 141.906L311.272 140.599Z" fill="#37474F"/>
<path opacity="0.1" d="M295.209 128.909L300.633 132.037C301.216 132.375 301.685 132.101 301.685 131.432V125.161L295.851 128.535L295.209 128.909ZM311.754 137.234L308.658 121.135L308.607 121.158L308.065 121.472L304.791 123.362V132.42C304.825 133.027 305.001 133.618 305.305 134.144C305.61 134.67 306.035 135.117 306.544 135.449L310.807 137.908C311.481 138.295 311.905 137.994 311.754 137.234Z" fill="white"/>
<path d="M321.333 163.688L322.813 176.062C322.813 176.062 320.759 178.626 314.233 182.438C307.556 186.327 303.808 187.47 303.808 187.47L302.52 174.632C306.003 173.253 309.376 171.611 312.612 169.723C318.742 166.23 321.333 163.688 321.333 163.688Z" fill="#E0E0E0"/>
<path d="M304.924 185.731C304.848 185.73 304.774 185.703 304.716 185.654C304.657 185.606 304.617 185.538 304.602 185.464C304.587 185.389 304.598 185.312 304.634 185.244C304.669 185.177 304.726 185.124 304.796 185.093C311.5 182.265 316.883 179.005 321.264 175.115C321.329 175.06 321.412 175.032 321.497 175.037C321.582 175.042 321.662 175.08 321.72 175.143C321.774 175.208 321.801 175.29 321.797 175.375C321.793 175.459 321.757 175.539 321.697 175.598C317.27 179.533 311.828 182.835 305.056 185.69C305.015 185.713 304.97 185.727 304.924 185.731Z" fill="#37474F"/>
<path d="M304.587 183.482C304.511 183.481 304.437 183.454 304.379 183.405C304.32 183.356 304.28 183.289 304.265 183.214C304.25 183.14 304.261 183.062 304.297 182.995C304.332 182.927 304.389 182.874 304.459 182.844C311.036 180.111 316.359 176.887 320.736 173.039C320.769 173.009 320.807 172.986 320.848 172.971C320.89 172.955 320.934 172.949 320.978 172.951C321.022 172.952 321.066 172.963 321.106 172.982C321.146 173 321.182 173.027 321.212 173.059C321.242 173.092 321.265 173.13 321.28 173.172C321.295 173.213 321.302 173.257 321.3 173.302C321.298 173.346 321.288 173.389 321.269 173.429C321.25 173.469 321.224 173.505 321.191 173.535C316.76 177.429 311.377 180.676 304.733 183.454C304.687 183.475 304.637 183.484 304.587 183.482Z" fill="#37474F"/>
<path d="M304.464 181.109C304.398 181.108 304.335 181.088 304.281 181.051C304.227 181.015 304.184 180.964 304.159 180.904C304.125 180.823 304.126 180.733 304.159 180.653C304.192 180.573 304.256 180.509 304.336 180.476C310.89 177.743 316.214 174.555 320.608 170.689C320.673 170.634 320.757 170.607 320.841 170.612C320.926 170.617 321.006 170.654 321.064 170.716C321.117 170.782 321.143 170.866 321.137 170.95C321.131 171.034 321.093 171.113 321.032 171.171C316.582 175.084 311.199 178.322 304.578 181.072C304.542 181.09 304.503 181.102 304.464 181.109Z" fill="#37474F"/>
<path d="M304.259 178.758C304.193 178.758 304.128 178.739 304.073 178.702C304.018 178.666 303.975 178.614 303.949 178.554C303.933 178.513 303.924 178.471 303.925 178.427C303.925 178.384 303.934 178.341 303.951 178.302C303.968 178.262 303.993 178.226 304.023 178.196C304.054 178.165 304.091 178.141 304.131 178.125C310.58 175.493 316.077 172.205 320.472 168.402C320.539 168.354 320.622 168.333 320.704 168.343C320.786 168.353 320.862 168.393 320.916 168.456C320.97 168.519 320.999 168.599 320.996 168.682C320.994 168.764 320.961 168.843 320.904 168.903C316.459 172.77 310.885 176.076 304.382 178.736C304.343 178.752 304.301 178.76 304.259 178.758Z" fill="#37474F"/>
<path d="M304.008 176.404C303.943 176.405 303.878 176.386 303.824 176.349C303.769 176.313 303.727 176.26 303.703 176.199C303.67 176.118 303.671 176.026 303.705 175.945C303.739 175.864 303.804 175.8 303.885 175.766C310.343 173.152 315.854 169.937 320.28 166.203C320.347 166.15 320.431 166.125 320.515 166.132C320.6 166.139 320.678 166.177 320.736 166.239C320.788 166.306 320.814 166.39 320.806 166.475C320.798 166.56 320.759 166.638 320.695 166.695C316.227 170.461 310.676 173.713 304.131 176.354C304.095 176.38 304.052 176.397 304.008 176.404Z" fill="#37474F"/>
</g>
<defs>
<clipPath id="clip0_317_9621">
<rect width="599" height="482" fill="white"/>
</clipPath>
</defs>
</svg>
