<svg width="11" height="14" viewBox="0 0 11 14" fill="none" xmlns="http://www.w3.org/2000/svg">
<mask id="mask0_327_9310" style="mask-type:luminance" maskUnits="userSpaceOnUse" x="2" y="0" width="7" height="6">
<path d="M2.52588 0H8.46185V5.54393H2.52588V0Z" fill="white"/>
</mask>
<g mask="url(#mask0_327_9310)">
<path d="M5.49955 5.50879C7.11427 5.50879 8.42292 3.63537 8.42292 2.31065C8.42292 0.985573 7.11427 0.000488281 5.49955 0.000488281C3.88527 0.000488281 2.57617 0.985573 2.57617 2.31065C2.57617 3.63537 3.88527 5.50879 5.49955 5.50879Z" fill="#2D2F39"/>
</g>
<path d="M6.93356 9.99246L6.1326 10.3731C5.97029 10.4484 5.68741 10.5117 5.50213 10.5099H5.49771C5.31044 10.5117 5.02756 10.4484 4.86723 10.3731L4.06628 9.99246C3.82446 9.87798 3.8079 9.59966 4.03271 9.46149C4.44059 9.20884 4.94828 9.05856 5.49992 9.05856C6.04913 9.05856 6.55704 9.20884 6.96669 9.46149C7.18973 9.59966 7.17493 9.87798 6.93356 9.99246ZM7.89065 10.7267C8.00725 10.7063 8.12826 10.6961 8.25083 10.6961H8.74593C8.52554 9.38806 7.15417 8.37549 5.49992 8.37549C3.84368 8.37549 2.4743 9.38806 2.25391 10.6961H2.74857C2.87157 10.6961 2.99259 10.7063 3.10654 10.7267C3.19664 10.5629 3.44574 10.4876 3.64979 10.5833L4.02476 10.7609C4.42999 10.954 4.72568 11.1879 5.0004 11.4391C5.1234 11.5496 5.30029 11.6201 5.49992 11.6201C5.69756 11.6201 5.87644 11.5496 5.99944 11.4391C6.27372 11.1879 6.56941 10.954 6.92296 10.7848L7.3474 10.5851C7.55145 10.4876 7.799 10.5647 7.89065 10.7267Z" fill="#2D2F39"/>
<mask id="mask1_327_9310" style="mask-type:luminance" maskUnits="userSpaceOnUse" x="3" y="12" width="5" height="2">
<path d="M3.71387 12.8125H7.27545V13.7498H3.71387V12.8125Z" fill="white"/>
</mask>
<g mask="url(#mask1_327_9310)">
<path d="M6.69848 12.8135C6.24113 13.0251 5.69369 13.1189 5.11732 13.0473C4.82604 13.0115 4.54912 12.9298 4.29936 12.8135C4.1662 13.022 3.97076 13.1994 3.73535 13.3309C4.24547 13.5989 4.851 13.7544 5.50024 13.7544C6.14949 13.7544 6.75501 13.5989 7.26469 13.3309C7.02774 13.1994 6.83385 13.022 6.69848 12.8135Z" fill="#2D2F39"/>
</g>
<path d="M2.70343 11.4638H1.31506C1.29849 11.3324 1.28635 11.1994 1.28635 11.0643C1.28635 10.7826 1.32786 10.5093 1.4067 10.248C1.85411 8.73338 3.51896 7.60669 5.50005 7.60669C6.02629 7.60669 6.53001 7.68481 6.99398 7.83166L8.71315 5.99622C8.42386 5.89694 8.11337 5.83238 7.79339 5.80525C7.75342 5.80163 7.7119 5.8 7.67237 5.79639C7.06045 6.23006 6.32618 6.5102 5.50005 6.5102C4.67193 6.5102 3.93898 6.23006 3.32551 5.79639C3.28554 5.8 3.24623 5.80163 3.2067 5.80525C1.82098 5.9228 0.663601 6.74386 0.341407 7.85409C0.11682 8.62577 0 9.42512 0 10.248V11.9574C0 12.4288 0.466177 12.8112 1.04078 12.8112H2.7487C3.21752 12.8112 3.59184 12.4883 3.56688 12.1011C3.54391 11.7371 3.14664 11.4638 2.70343 11.4638Z" fill="#2D2F39"/>
<mask id="mask2_327_9310" style="mask-type:luminance" maskUnits="userSpaceOnUse" x="7" y="6" width="4" height="7">
<path d="M7.38818 6.51611H11.0001V12.8126H7.38818V6.51611Z" fill="white"/>
</mask>
<g mask="url(#mask2_327_9310)">
<path d="M10.6591 7.85458C10.5109 7.35109 10.1931 6.9053 9.75785 6.56006L8.09101 8.34142C8.82594 8.81253 9.36654 9.48023 9.59333 10.2485C9.67261 10.5098 9.71435 10.7831 9.71435 11.0648C9.71435 11.1999 9.70353 11.3328 9.68498 11.4643H8.25134C7.78317 11.4643 7.40864 11.7839 7.43382 12.1733C7.45656 12.5386 7.85384 12.8116 8.29926 12.8116H9.95969C10.5339 12.8116 11.0005 12.4293 11.0005 11.9579V10.2485C11.0005 9.42561 10.8817 8.62626 10.6591 7.85458Z" fill="#2D2F39"/>
</g>
</svg>
