<svg width="50" height="50" viewBox="0 0 50 50" fill="none" xmlns="http://www.w3.org/2000/svg">
<rect width="50" height="50" rx="12" fill="#FFC01D"/>
<mask id="mask0_43_1179" style="mask-type:luminance" maskUnits="userSpaceOnUse" x="10" y="13" width="30" height="24">
<path d="M10 13H40V37H10V13Z" fill="white"/>
</mask>
<g mask="url(#mask0_43_1179)">
<path d="M13.2715 13C11.4747 13 10.0137 14.6818 10.0137 16.7503V33.25C10.0137 35.3185 11.4747 37.0003 13.2715 37.0003H36.7281C38.5249 37.0003 39.986 35.3185 39.986 33.25V16.7503C39.986 14.6818 38.5249 13 36.7281 13H13.2715ZM23.6967 15.2501C24.0556 15.2501 24.3483 15.587 24.3483 16C24.3483 16.4131 24.0556 16.7503 23.6967 16.7503C23.3378 16.7503 23.0451 16.4131 23.0451 16C23.0451 15.587 23.3378 15.2501 23.6967 15.2501ZM17.4661 16.7503L17.6291 17.172C18.7793 17.172 18.8304 19.0322 18.5249 19.4922C18.6063 19.5186 18.6928 19.668 18.6674 19.9142C18.6217 20.3742 18.4637 20.4913 18.3619 20.5002C18.3239 20.9307 18.0845 21.4524 17.9548 21.5314C17.9548 21.8391 17.9497 22.0615 17.9751 22.3987C18.2857 23.3801 20.3423 23.1075 20.4388 25.0001H13.9231C14.0199 23.1075 15.9364 23.3801 16.2445 22.3987C16.2699 22.0615 16.2648 21.8391 16.2648 21.5314C16.1351 21.4524 15.8957 20.9307 15.8575 20.5002C15.7559 20.4913 15.5979 20.3742 15.5522 19.9142C15.5268 19.668 15.6133 19.5362 15.6744 19.4922C15.1958 18.2325 15.8117 16.7503 17.4661 16.7503ZM23.6967 17.5002C24.0556 17.5002 24.3483 17.8371 24.3483 18.2501C24.3483 18.6632 24.0556 19.0001 23.6967 19.0001C23.3378 19.0001 23.0451 18.6632 23.0451 18.2501C23.0451 17.8371 23.3378 17.5002 23.6967 17.5002ZM23.6967 19.75C24.0556 19.75 24.3483 20.0872 24.3483 20.5002C24.3483 20.9133 24.0556 21.2502 23.6967 21.2502C23.3378 21.2502 23.0451 20.9133 23.0451 20.5002C23.0451 20.0872 23.3378 19.75 23.6967 19.75ZM26.9546 19.75H35.425C35.7864 19.75 36.0766 20.0872 36.0766 20.5002C36.0766 20.9133 35.7864 21.2502 35.425 21.2502H26.9546C26.5932 21.2502 26.303 20.9133 26.303 20.5002C26.303 20.0872 26.5932 19.75 26.9546 19.75ZM23.6967 22.0001C24.0556 22.0001 24.3483 22.337 24.3483 22.75C24.3483 23.1631 24.0556 23.5003 23.6967 23.5003C23.3378 23.5003 23.0451 23.1631 23.0451 22.75C23.0451 22.337 23.3378 22.0001 23.6967 22.0001ZM26.9546 22.75H33.4703C33.8317 22.75 34.1219 23.0869 34.1219 23.5003C34.1219 23.9133 33.8317 24.2502 33.4703 24.2502H26.9546C26.5932 24.2502 26.303 23.9133 26.303 23.5003C26.303 23.0869 26.5932 22.75 26.9546 22.75ZM23.6967 24.2502C24.0556 24.2502 24.3483 24.5871 24.3483 25.0001C24.3483 25.4132 24.0556 25.7501 23.6967 25.7501C23.3378 25.7501 23.0451 25.4132 23.0451 25.0001C23.0451 24.5871 23.3378 24.2502 23.6967 24.2502ZM26.9546 25.7501H35.425C35.7864 25.7501 36.0766 26.0841 36.0766 26.5C36.0766 26.9163 35.7864 27.2502 35.425 27.2502H26.9546C26.5932 27.2502 26.303 26.9163 26.303 26.5C26.303 26.0841 26.5932 25.7501 26.9546 25.7501ZM15.6948 26.5H18.6674C19.23 26.5 19.7314 26.9192 19.9095 27.5315L20.4388 29.383V32.8752C20.4388 33.0832 20.2937 33.25 20.1132 33.25H19.4616C19.2808 33.25 19.1357 33.0832 19.1357 32.8752V32.5001H15.2263V32.8752C15.2263 33.0832 15.0812 33.25 14.9006 33.25H14.249C14.0682 33.25 13.9231 33.0832 13.9231 32.8752V29.383L14.4527 27.5315C14.6308 26.9192 15.1322 26.5 15.6948 26.5ZM23.6967 26.5C24.0556 26.5 24.3483 26.8372 24.3483 27.2502C24.3483 27.6633 24.0556 28.0002 23.6967 28.0002C23.3378 28.0002 23.0451 27.6633 23.0451 27.2502C23.0451 26.8372 23.3378 26.5 23.6967 26.5ZM15.6948 28.0002L15.267 29.5001H19.0949L18.6674 28.0002H15.6948ZM23.6967 28.7501C24.0556 28.7501 24.3483 29.087 24.3483 29.5001C24.3483 29.9131 24.0556 30.2503 23.6967 30.2503C23.3378 30.2503 23.0451 29.9131 23.0451 29.5001C23.0451 29.087 23.3378 28.7501 23.6967 28.7501ZM26.9546 28.7501H33.4703C33.8317 28.7501 34.1219 29.0841 34.1219 29.5001C34.1219 29.9163 33.8317 30.2503 33.4703 30.2503H26.9546C26.5932 30.2503 26.303 29.9163 26.303 29.5001C26.303 29.0841 26.5932 28.7501 26.9546 28.7501ZM15.2263 30.2503C14.8674 30.2503 14.5747 30.5872 14.5747 31.0002C14.5747 31.4133 14.8674 31.7502 15.2263 31.7502C15.5851 31.7502 15.8778 31.4133 15.8778 31.0002C15.8778 30.5872 15.5851 30.2503 15.2263 30.2503ZM19.1357 30.2503C18.7768 30.2503 18.4841 30.5872 18.4841 31.0002C18.4841 31.4133 18.7768 31.7502 19.1357 31.7502C19.4945 31.7502 19.7873 31.4133 19.7873 31.0002C19.7873 30.5872 19.4945 30.2503 19.1357 30.2503ZM23.6967 31.0002C24.0556 31.0002 24.3483 31.3371 24.3483 31.7502C24.3483 32.1632 24.0556 32.5001 23.6967 32.5001C23.3378 32.5001 23.0451 32.1632 23.0451 31.7502C23.0451 31.3371 23.3378 31.0002 23.6967 31.0002ZM23.6967 33.25C24.0556 33.25 24.3483 33.5872 24.3483 34.0003C24.3483 34.4133 24.0556 34.7502 23.6967 34.7502C23.3378 34.7502 23.0451 34.4133 23.0451 34.0003C23.0451 33.5872 23.3378 33.25 23.6967 33.25Z" fill="#161A23"/>
</g>
</svg>
