<svg width="50" height="50" viewBox="0 0 50 50" fill="none" xmlns="http://www.w3.org/2000/svg">
<rect width="50" height="50" rx="12" fill="#FFC01D"/>
<g clipPath="url(#clip0_43_1167)">
<mask id="mask0_43_1167" style="mask-type:luminance" maskUnits="userSpaceOnUse" x="19" y="11" width="12" height="12">
<path d="M19.0391 11.0239H30.7948V22.2847H19.0391V11.0239Z" fill="white"/>
</mask>
<g mask="url(#mask0_43_1167)">
<path d="M24.9282 22.2128C28.126 22.2128 30.7177 18.4075 30.7177 15.7168C30.7177 13.0253 28.126 11.0244 24.9282 11.0244C21.7312 11.0244 19.1387 13.0253 19.1387 15.7168C19.1387 18.4075 21.7312 22.2128 24.9282 22.2128Z" fill="#161A23"/>
</g>
<path d="M27.7657 31.3207L26.1795 32.094C25.8581 32.2468 25.2978 32.3754 24.9309 32.3717H24.9221C24.5513 32.3754 23.991 32.2468 23.6735 32.094L22.0873 31.3207C21.6084 31.0882 21.5756 30.5229 22.0208 30.2422C22.8286 29.7291 23.834 29.4238 24.9265 29.4238C26.0142 29.4238 27.0201 29.7291 27.8313 30.2422C28.2731 30.5229 28.2438 31.0882 27.7657 31.3207ZM29.6612 32.8121C29.8921 32.7706 30.1318 32.7501 30.3745 32.7501H31.355C30.9185 30.0931 28.2026 28.0364 24.9265 28.0364C21.6465 28.0364 18.9345 30.0931 18.498 32.7501H19.4777C19.7213 32.7501 19.961 32.7706 20.1866 32.8121C20.3651 32.4793 20.8584 32.3265 21.2625 32.5208L22.0051 32.8816C22.8076 33.2739 23.3932 33.7489 23.9373 34.2591C24.1809 34.4835 24.5312 34.6268 24.9265 34.6268C25.3179 34.6268 25.6722 34.4835 25.9158 34.2591C26.459 33.7489 27.0446 33.2739 27.7447 32.9301L28.5853 32.5245C28.9894 32.3265 29.4797 32.483 29.6612 32.8121Z" fill="#161A23"/>
<mask id="mask1_43_1167" style="mask-type:luminance" maskUnits="userSpaceOnUse" x="21" y="37" width="8" height="2">
<path d="M21.3887 37.0486H28.4421V38.9525H21.3887V37.0486Z" fill="white"/>
</mask>
<g mask="url(#mask1_43_1167)">
<path d="M27.2999 37.0503C26.3941 37.4801 25.31 37.6707 24.1685 37.5253C23.5917 37.4525 23.0432 37.2865 22.5486 37.0503C22.2849 37.4738 21.8978 37.8342 21.4316 38.1012C22.4419 38.6456 23.6411 38.9616 24.9269 38.9616C26.2127 38.9616 27.4118 38.6456 28.4212 38.1012C27.952 37.8342 27.568 37.4738 27.2999 37.0503Z" fill="#161A23"/>
</g>
<path d="M19.3891 34.3105H16.6395C16.6067 34.0434 16.5827 33.7734 16.5827 33.499C16.5827 32.9267 16.6649 32.3717 16.821 31.8409C17.7071 28.7644 21.0042 26.4759 24.9276 26.4759C25.9698 26.4759 26.9673 26.6346 27.8862 26.9329L31.2909 23.2047C30.718 23.0031 30.1031 22.8719 29.4694 22.8168C29.3902 22.8095 29.308 22.8062 29.2297 22.7988C28.0178 23.6797 26.5637 24.2487 24.9276 24.2487C23.2875 24.2487 21.836 23.6797 20.6211 22.7988C20.5419 22.8062 20.4641 22.8095 20.3858 22.8168C17.6415 23.0556 15.3494 24.7233 14.7113 26.9784C14.2665 28.5458 14.0352 30.1695 14.0352 31.8409V35.3129C14.0352 36.2706 14.9584 37.0471 16.0963 37.0471H19.4787C20.4072 37.0471 21.1485 36.3915 21.0991 35.605C21.0536 34.8655 20.2668 34.3105 19.3891 34.3105Z" fill="#161A23"/>
<mask id="mask2_43_1167" style="mask-type:luminance" maskUnits="userSpaceOnUse" x="28" y="24" width="8" height="14">
<path d="M28.666 24.2595H35.8192V37.0488H28.666V24.2595Z" fill="white"/>
</mask>
<g mask="url(#mask2_43_1167)">
<path d="M35.1436 26.9785C34.8502 25.9559 34.2209 25.0504 33.3589 24.3491L30.0578 27.9674C31.5133 28.9243 32.5839 30.2805 33.033 31.841C33.19 32.3718 33.2727 32.9268 33.2727 33.4992C33.2727 33.7736 33.2513 34.0435 33.2145 34.3106H30.3753C29.4482 34.3106 28.7064 34.9597 28.7563 35.7506C28.8013 36.4926 29.5881 37.0473 30.4702 37.0473H33.7586C34.8957 37.0473 35.8198 36.2707 35.8198 35.3131V31.841C35.8198 30.1696 35.5845 28.546 35.1436 26.9785Z" fill="#161A23"/>
</g>
</g>
<defs>
<clipPath id="clip0_43_1167">
<rect width="22" height="28" fill="white" transform="translate(14 11)"/>
</clipPath>
</defs>
</svg>
