<svg width="50" height="50" viewBox="0 0 50 50" fill="none" xmlns="http://www.w3.org/2000/svg">
<rect width="50" height="50" rx="12" fill="#FFC01D"/>
<g clip-path="url(#clip0_52_525)">
<path d="M17.0078 35.6875V35.875C17.0078 36.4936 17.5608 37 18.2373 37H31.7619C32.4384 37 32.9914 36.4936 32.9914 35.875V35.6875C32.9914 35.0689 32.4384 34.5625 31.7619 34.5625V31.1499C31.7619 29.9876 30.9425 28.5437 29.9384 27.8686L26.0242 25.2251V24.7749L29.9384 22.1499C30.9627 21.4563 31.7619 20.0124 31.7619 18.8686V15.4375C32.4384 15.4375 32.9914 14.9311 32.9914 14.3125V14.125C32.9914 13.5064 32.4384 13 31.7619 13H18.2373C17.5608 13 17.0078 13.5064 17.0078 14.125V14.3125C17.0078 14.9311 17.5608 15.4375 18.2373 15.4375V18.8501C18.2373 20.0124 19.0365 21.4563 20.0608 22.1314L23.975 24.7564V25.2063L20.0608 27.8313C19.0365 28.5249 18.2373 29.9688 18.2373 31.1126V34.5625C17.5608 34.5625 17.0078 35.0689 17.0078 35.6875ZM19.0567 31.1499C19.0567 30.2312 19.7332 29.0124 20.553 28.4688L24.6306 25.7312C24.7332 25.6562 24.7947 25.5437 24.7947 25.4311V24.6062C24.7947 24.4936 24.7332 24.3814 24.6306 24.3061L20.553 21.5501C19.7537 21.0064 19.0567 19.7876 19.0567 18.8686V15.4375H30.9425V18.8501C30.9425 19.7688 30.2455 20.9876 29.4463 21.5312L25.3686 24.2876C25.266 24.3626 25.2045 24.4751 25.2045 24.5874V25.4126C25.2045 25.5249 25.266 25.6374 25.3686 25.7124L29.4463 28.4499C30.2455 28.9936 30.9425 30.2312 30.9425 31.1314V34.5625H29.9179V31.6186C29.9179 30.7564 29.3235 29.7063 28.5858 29.1811L25.266 26.9311C25.1227 26.8374 24.9175 26.8374 24.7742 26.9311L21.4339 29.1811C20.6757 29.6875 20.0814 30.7564 20.0814 31.6001V34.5625H19.0567V31.1499Z" fill="#161A23"/>
<path d="M25.2462 23.0501L28.566 20.8001C28.7093 20.7063 28.7709 20.5376 28.7093 20.3874C28.6481 20.2376 28.5044 20.125 28.3201 20.125H21.6395C21.4552 20.125 21.3119 20.2376 21.2503 20.3874C21.1888 20.5376 21.2503 20.7063 21.3936 20.8001L24.7339 23.0501C24.816 23.1062 24.8977 23.125 24.9798 23.125C25.1029 23.125 25.1847 23.1062 25.2462 23.0501Z" fill="#161A23"/>
</g>
<defs>
<clipPath id="clip0_52_525">
<rect width="16" height="24" fill="white" transform="translate(17 13)"/>
</clipPath>
</defs>
</svg>
