<svg width="50" height="50" viewBox="0 0 50 50" fill="none" xmlns="http://www.w3.org/2000/svg">
<rect width="50" height="50" rx="12" fill="#FFC01D"/>
<g clip-path="url(#clip0_52_551)">
<mask id="mask0_52_551" style="mask-type:luminance" maskUnits="userSpaceOnUse" x="11" y="11" width="28" height="28">
<path d="M11 11.0325H38.935V38.9136H11V11.0325Z" fill="white"/>
</mask>
<g mask="url(#mask0_52_551)">
<path fill-rule="evenodd" clip-rule="evenodd" d="M16.2801 37.7462C16.3143 37.8286 16.3143 37.9116 16.2818 37.994C16.2469 38.076 16.1877 38.1344 16.1055 38.1696L16.1041 38.1699L14.3782 38.8839C14.2137 38.9524 14.0242 38.8741 13.9562 38.7107V38.7104C12.9821 36.3753 12.0066 34.0406 11.0325 31.7056L11.0318 31.7043C10.9969 31.6226 10.9976 31.5409 11.0314 31.4599C11.0653 31.3775 11.1245 31.3184 11.2064 31.2843L12.934 30.5693C13.0982 30.5012 13.288 30.5791 13.357 30.7432C13.4609 30.9927 16.1732 37.49 16.2801 37.7462ZM16.5532 36.2541C15.8971 34.6827 15.241 33.1116 14.5852 31.5402C15.4413 31.1368 16.2963 30.7304 17.1473 30.3151C18.1231 29.8388 18.8817 29.4827 19.7781 29.6035C20.3759 29.6839 21.028 29.9762 21.8441 30.5542C21.8844 30.5825 21.929 30.6034 21.9764 30.6163L25.2334 31.4865C25.8259 31.6449 26.1812 32.2579 26.0225 32.8487C25.8642 33.4394 25.2497 33.7939 24.6576 33.6345H24.6569L20.3282 32.4783C20.108 32.4196 19.8809 32.5502 19.8221 32.77C19.7628 32.9898 19.8941 33.2159 20.1144 33.275L24.443 34.4312C25.474 34.7084 26.5449 34.0913 26.8214 33.0624C26.8755 32.8598 26.8955 32.6559 26.884 32.4567L31.3442 31.1517C32.1072 30.9282 32.7011 30.8708 33.1518 30.94C33.5141 30.9957 33.7676 31.1331 33.9171 31.3343C34.0924 31.5706 34.1178 31.8802 34.0521 32.1823C33.9425 32.688 33.5767 33.1856 33.0668 33.382L26.3257 35.9729C25.8093 36.1711 25.2077 36.4182 24.5963 36.5745C24.0434 36.716 23.4824 36.7872 22.981 36.642L19.3893 35.6026C18.765 35.421 18.1654 35.4713 17.5794 35.7562L16.5532 36.2541ZM31.9682 28.0409C30.4513 29.0992 28.6076 29.7207 26.6231 29.7207C21.4675 29.7207 17.2634 25.5273 17.2634 20.385C17.2634 15.2433 21.4675 11.0503 26.6231 11.0503C31.5696 11.0503 35.6404 14.9115 35.9612 19.7669H34.3895C34.0721 15.7737 30.7057 12.6136 26.6231 12.6136C22.332 12.6136 18.831 16.1045 18.831 20.385C18.831 24.6651 22.332 28.156 26.6231 28.156C28.2814 28.156 29.8216 27.6344 31.0874 26.7476C31.3145 27.2138 31.6166 27.649 31.9682 28.0409ZM30.7839 25.9493C29.6216 26.8168 28.1806 27.3313 26.6231 27.3313C22.7871 27.3313 19.6576 24.2111 19.6576 20.385C19.6576 16.5589 22.7871 13.4383 26.6231 13.4383C30.3143 13.4383 33.3504 16.328 33.574 19.9552C32.9998 20.3559 32.2541 20.7293 31.397 20.7972C30.9673 20.8313 30.6357 21.1891 30.6357 21.6192V24.8748C30.6357 25.242 30.6882 25.6016 30.7839 25.9493ZM27.0362 15.0911V14.7252C27.0362 14.4976 26.8511 14.313 26.6231 14.313C26.395 14.313 26.2096 14.4976 26.2096 14.7252V15.0911C26.2096 15.3186 26.395 15.5036 26.6231 15.5036C26.8511 15.5036 27.0362 15.3186 27.0362 15.0911ZM21.3149 19.9725H20.9478C20.7197 19.9725 20.5346 20.1575 20.5346 20.385C20.5346 20.6125 20.7197 20.7972 20.9478 20.7972H21.3149C21.543 20.7972 21.728 20.6125 21.728 20.385C21.728 20.1575 21.543 19.9725 21.3149 19.9725ZM26.2096 25.6785V26.0458C26.2096 26.2733 26.395 26.458 26.6231 26.458C26.8511 26.458 27.0362 26.2733 27.0362 26.0458V25.6785C27.0362 25.451 26.8511 25.2663 26.6231 25.2663C26.395 25.2663 26.2096 25.451 26.2096 25.6785ZM22.578 23.8367L22.3181 24.096C22.1567 24.2566 22.1567 24.5179 22.3181 24.679C22.4795 24.8396 22.7414 24.8396 22.9028 24.679L23.1623 24.4197C23.3237 24.2587 23.3237 23.9977 23.1623 23.8367C23.0009 23.6757 22.7394 23.6757 22.578 23.8367ZM23.1623 16.3499L22.9028 16.091C22.7414 15.93 22.4795 15.93 22.3181 16.091C22.1567 16.2517 22.1567 16.513 22.3181 16.674L22.578 16.9329C22.7394 17.0939 23.0009 17.0939 23.1623 16.9329C23.3237 16.7722 23.3237 16.5109 23.1623 16.3499ZM26.2096 19.5606C25.9071 19.7125 25.699 20.0255 25.699 20.385C25.699 20.893 26.1135 21.3066 26.6231 21.3066C26.8105 21.3066 26.9855 21.2502 27.1313 21.1536L29.5854 22.5678C29.783 22.6815 30.0361 22.614 30.1502 22.4169C30.2642 22.22 30.1965 21.9675 29.9989 21.8538L27.5444 20.4397C27.5455 20.4214 27.5461 20.4032 27.5461 20.385C27.5461 20.0258 27.3384 19.7129 27.0362 19.561V16.0262C27.0362 15.7987 26.8511 15.614 26.6231 15.614C26.395 15.614 26.2096 15.7987 26.2096 16.0262V19.5606ZM30.6665 16.9336L30.9274 16.6747C31.0891 16.514 31.0895 16.2527 30.9287 16.0913C30.7677 15.9303 30.5058 15.9296 30.344 16.0903L30.0832 16.3492C29.9214 16.5099 29.9211 16.7712 30.0818 16.9322C30.2429 17.0936 30.5048 17.0943 30.6665 16.9336ZM31.4623 21.8818C31.4623 21.7336 31.5726 21.6087 31.7198 21.5895C32.6564 21.4605 33.4735 21.0406 34.1036 20.5916H36.2924C36.9228 21.0406 37.7396 21.4605 38.6762 21.5911C38.8227 21.6097 38.9323 21.7343 38.9323 21.8818C38.9337 22.6559 38.9337 24.8748 38.9337 24.8748C38.9337 26.9755 36.7959 28.7404 35.1985 29.1677C33.6004 28.7404 31.4623 26.9755 31.4623 24.8748V21.8818ZM36.5462 23.571L34.7255 25.0601L33.8721 24.2543C33.7067 24.0977 33.4448 24.1047 33.2878 24.2698C33.1311 24.4352 33.1382 24.6962 33.3037 24.8528L34.4213 25.9088C34.5725 26.0515 34.8067 26.06 34.9677 25.9283L37.0703 24.2087C37.2469 24.0642 37.2726 23.8043 37.1282 23.6284C36.9834 23.4525 36.7228 23.4269 36.5462 23.571Z" fill="#161A23"/>
</g>
</g>
<defs>
<clipPath id="clip0_52_551">
<rect width="28" height="28" fill="white" transform="translate(11 11)"/>
</clipPath>
</defs>
</svg>
