<svg width="905" height="587" viewBox="0 0 905 587" fill="none" xmlns="http://www.w3.org/2000/svg">
<g clip-path="url(#clip0_607_9822)">
<path d="M28.6618 450.064C33.1436 404.317 60.2321 358.652 103.333 342.679C87.4062 390.06 88.7524 441.548 107.133 488.032C114.287 505.934 124.107 525.1 118.297 543.481C114.681 554.918 105.34 563.84 94.787 569.542C84.2333 575.244 72.4313 578.138 60.7766 580.976L58.5196 582.944C38.8176 541.415 24.18 495.811 28.6618 450.064Z" fill="#F0F0F0"/>
<path d="M103.788 343.53C79.4522 372.253 64.1356 408.937 61.4576 446.545C60.8786 454.675 60.9989 462.974 62.9801 470.921C64.9708 478.653 68.9957 485.711 74.6366 491.361C79.7903 496.735 85.6843 501.636 89.4419 508.169C93.4026 515.055 93.7547 522.988 91.3614 530.475C88.433 539.635 82.3878 547.197 76.2191 554.386C69.37 562.369 62.1294 570.552 59.4011 580.969C59.0706 582.231 57.1314 581.644 57.4615 580.384C62.2082 562.26 79.4034 551.587 87.3084 535.169C90.997 527.507 92.3991 518.688 88.5482 510.803C85.1808 503.908 79.1072 498.849 73.8419 493.453C68.3133 487.787 64.0242 481.524 61.6998 473.891C59.322 466.084 58.8771 457.773 59.2457 449.664C60.2186 431.28 64.076 413.164 70.6765 395.978C78.1008 376.323 88.8328 358.082 102.408 342.046C103.249 341.054 104.623 342.544 103.788 343.53Z" fill="white"/>
<path d="M61.6832 434.275C55.3856 432.918 49.7751 429.368 45.8537 424.257C41.9323 419.146 39.9553 412.808 40.2758 406.374C40.2913 406.111 40.408 405.865 40.6013 405.687C40.7946 405.51 41.0494 405.414 41.3121 405.42C41.5747 405.426 41.8247 405.534 42.0093 405.721C42.1939 405.908 42.2987 406.159 42.3017 406.422C41.9921 412.413 43.8343 418.317 47.4956 423.069C51.157 427.82 56.3963 431.107 62.268 432.335C63.5437 432.603 62.9516 434.541 61.6832 434.275Z" fill="white"/>
<path d="M71.6635 488.981C82.7903 481.937 90.8534 470.959 94.2453 458.234C94.5803 456.973 96.5195 457.56 96.1849 458.819C92.6306 472.054 84.2164 483.461 72.6215 490.766C71.5159 491.461 70.5639 489.672 71.6635 488.981Z" fill="white"/>
<path d="M80.0301 378.192C82.3575 379.225 84.9048 379.663 87.4434 379.468C89.9819 379.272 92.4322 378.45 94.5742 377.073C95.6705 376.364 96.6214 378.154 95.5323 378.858C93.1586 380.368 90.4514 381.273 87.6471 381.495C84.8428 381.717 82.0269 381.249 79.4452 380.132C79.1931 380.047 78.9827 379.869 78.8569 379.635C78.7311 379.4 78.6992 379.127 78.7678 378.87C78.8466 378.613 79.0233 378.398 79.2597 378.271C79.496 378.145 79.7729 378.116 80.0301 378.192Z" fill="white"/>
<path d="M238.014 420.668C237.342 421.131 236.67 421.593 235.998 422.072C226.996 428.333 218.518 435.316 210.647 442.95C210.029 443.53 209.412 444.128 208.812 444.725C190.045 463.32 174.894 485.237 164.129 509.363C159.854 518.967 156.315 528.883 153.545 539.023C149.719 553.029 146.685 568.518 138.692 580.101C137.871 581.319 136.976 582.484 136.012 583.592L61.0961 585.545C60.9236 585.464 60.7508 585.4 60.5774 585.319L57.5898 585.534C57.6962 585.001 57.818 584.45 57.9244 583.917C57.9848 583.608 58.0619 583.298 58.1223 582.988C58.1679 582.782 58.2143 582.575 58.2436 582.387C58.2585 582.318 58.2742 582.249 58.2896 582.197C58.3189 582.008 58.3662 581.836 58.3959 581.664C59.0681 578.585 59.7631 575.505 60.4809 572.425C60.4805 572.408 60.4805 572.408 60.4967 572.39C66.026 548.934 73.5622 525.732 84.3802 504.412C84.7059 503.771 85.0304 503.113 85.3903 502.47C90.3199 492.887 96.0245 483.724 102.447 475.07C105.979 470.343 109.748 465.798 113.74 461.452C124.075 450.242 136.11 440.728 149.402 433.258C175.901 418.371 206.867 412.125 235.809 420.042C236.549 420.245 237.273 420.448 238.014 420.668Z" fill="#F0F0F0"/>
<path d="M237.87 421.624C201.146 429.906 166.83 449.974 142.05 478.389C136.693 484.533 131.793 491.231 128.589 498.769C125.524 506.141 124.488 514.2 125.59 522.108C126.469 529.501 128.225 536.963 127.292 544.441C126.308 552.324 121.814 558.87 115.395 563.407C107.542 568.958 98.162 571.356 88.9081 573.383C78.6334 575.632 67.9256 577.807 59.4754 584.482C58.4515 585.29 57.2565 583.654 58.2788 582.847C72.9807 571.234 93.1358 573.065 109.333 564.715C116.89 560.818 123.32 554.621 124.993 546.006C126.455 538.473 124.651 530.778 123.696 523.299C122.693 515.446 123.04 507.863 125.779 500.37C128.581 492.705 133.229 485.801 138.406 479.548C150.251 465.455 164.238 453.313 179.855 443.565C197.617 432.342 217.168 424.239 237.662 419.608C238.931 419.322 239.131 421.339 237.87 421.624Z" fill="white"/>
<path d="M149.616 468.728C145.405 463.854 143.063 457.641 143.009 451.199C142.955 444.758 145.193 438.507 149.322 433.562C150.161 432.565 151.751 433.822 150.911 434.821C147.057 439.417 144.973 445.241 145.035 451.239C145.098 457.238 147.302 463.016 151.251 467.532C152.108 468.514 150.468 469.705 149.616 468.728Z" fill="white"/>
<path d="M124.65 518.417C137.775 519.493 150.823 515.582 161.192 507.464C162.219 506.659 163.414 508.295 162.388 509.099C151.582 517.526 137.996 521.568 124.34 520.419C123.039 520.309 123.356 518.308 124.65 518.417Z" fill="white"/>
<path d="M198.03 434.996C199.267 437.221 201.037 439.105 203.182 440.477C205.326 441.85 207.778 442.668 210.317 442.859C211.619 442.953 211.301 444.954 210.007 444.861C207.203 444.637 204.496 443.73 202.123 442.219C199.751 440.708 197.784 438.639 196.396 436.192C196.245 435.973 196.185 435.704 196.225 435.441C196.266 435.178 196.405 434.941 196.615 434.777C196.832 434.619 197.103 434.554 197.368 434.595C197.633 434.636 197.871 434.78 198.03 434.996Z" fill="white"/>
<path d="M677.702 40.1378C676.584 36.835 662.557 25.6079 671.152 23.7209L678.201 33.1195L710.607 0.713501L713.867 3.97279L677.702 40.1378Z" fill="#013FF6"/>
<path d="M677.702 150.332C676.584 147.029 662.557 135.802 671.152 133.915L678.201 143.313L710.607 110.907L713.867 114.167L677.702 150.332Z" fill="#013FF6"/>
<path d="M677.702 262.1C676.584 258.797 662.557 247.57 671.152 245.683L678.201 255.082L710.607 222.676L713.867 225.935L677.702 262.1Z" fill="#013FF6"/>
<path d="M647.861 171.738C653.384 171.738 657.861 167.261 657.861 161.738C657.861 156.215 653.384 151.738 647.861 151.738C642.338 151.738 637.861 156.215 637.861 161.738C637.861 167.261 642.338 171.738 647.861 171.738Z" fill="#161A23"/>
<path d="M647.861 62.7383C653.384 62.7383 657.861 58.2611 657.861 52.7383C657.861 47.2154 653.384 42.7383 647.861 42.7383C642.338 42.7383 637.861 47.2154 637.861 52.7383C637.861 58.2611 642.338 62.7383 647.861 62.7383Z" fill="#161A23"/>
<path d="M904.361 29.7382H743.361V31.7382H904.361V29.7382Z" fill="#161A23"/>
<path d="M652.861 287.932C658.384 287.932 662.861 283.455 662.861 277.932C662.861 272.409 658.384 267.932 652.861 267.932C647.338 267.932 642.861 272.409 642.861 277.932C642.861 283.455 647.338 287.932 652.861 287.932Z" fill="#161A23"/>
<path d="M904.361 139.932H743.361V141.932H904.361V139.932Z" fill="#161A23"/>
<path d="M904.361 251.7H743.361V253.7H904.361V251.7Z" fill="#161A23"/>
<path d="M702.961 277H652.961V226H686.961V228H654.961V275H700.961V252H702.961V277Z" fill="#161A23"/>
<path d="M702.961 165H652.961V114H686.961V116H654.961V163H700.961V140H702.961V165Z" fill="#161A23"/>
<path d="M702.961 51H652.961V0H686.961V2H654.961V49H700.961V26H702.961V51Z" fill="#161A23"/>
<path d="M376.506 181.772C376.506 181.772 363.143 238.193 379.475 238.193C395.808 238.193 434.412 174.348 434.412 174.348L421.049 158.015L397.064 191.315L395.808 174.348L376.506 181.772Z" fill="#A0616A"/>
<path d="M430.85 176.801C438.029 176.801 443.85 170.98 443.85 163.801C443.85 156.621 438.029 150.801 430.85 150.801C423.67 150.801 417.85 156.621 417.85 163.801C417.85 170.98 423.67 176.801 430.85 176.801Z" fill="#A0616A"/>
<path d="M365.176 566.048L382.479 566.047L390.712 499.301L365.172 499.302L365.176 566.048Z" fill="#A0616A"/>
<path d="M364.565 584.1L417.778 584.098V583.425C417.778 577.932 415.595 572.664 411.711 568.78C407.827 564.895 402.559 562.713 397.066 562.713H397.065L387.345 555.339L369.21 562.714L364.564 562.714L364.565 584.1Z" fill="#161A23"/>
<path d="M179.037 544.459L194.52 552.185L231.692 496.14L208.84 484.736L179.037 544.459Z" fill="#A0616A"/>
<path d="M170.432 560.338L218.045 584.1L218.345 583.497C220.798 578.582 221.198 572.894 219.457 567.685C217.716 562.475 213.977 558.17 209.062 555.716L209.061 555.716L203.657 544.777L184.137 543.278L179.981 541.203L170.432 560.338Z" fill="#161A23"/>
<path d="M569.85 584.165H0V586.406H569.85V584.165Z" fill="#CCCCCC"/>
<path d="M253.298 284.128C253.298 284.128 246.383 367.276 244.898 385.094C243.88 396.262 241.383 407.247 237.474 417.759C237.474 417.759 234.504 423.698 234.504 429.637L200.85 490.801C200.85 490.801 190.565 498.36 192.05 504.299C193.535 510.238 185.85 513.801 185.85 513.801L221.291 520.631C221.291 520.631 219.806 516.177 224.261 514.692C228.715 513.208 232.261 500.329 232.261 500.329L282.017 419.243L317.651 345.005C317.651 345.005 338.438 411.82 342.892 419.243C342.892 419.243 359.225 502.39 362.194 509.814C365.164 517.238 366.649 517.238 365.164 520.208C363.679 523.177 363.679 526.147 365.164 527.631C366.649 529.116 394.859 527.631 394.859 527.631L387.436 422.213L374.073 296.007L305.773 275.221L253.298 284.128Z" fill="#161A23"/>
<path d="M320.166 85.6318C337.387 85.6318 351.347 71.6719 351.347 54.4516C351.347 37.2313 337.387 23.2715 320.166 23.2715C302.946 23.2715 288.986 37.2313 288.986 54.4516C288.986 71.6719 302.946 85.6318 320.166 85.6318Z" fill="#A0616A"/>
<path d="M377.043 131.198L339.925 108.709C339.925 108.709 338.896 94.7447 328.321 94.0876C323.011 93.7577 315.043 93.2533 303.086 92.4824C300.559 92.3195 298.854 106.145 295.958 105.957L256.777 116.35L262.716 217.315C262.716 217.315 253.808 257.403 256.777 264.827C259.747 272.251 249.353 275.221 252.323 276.705C255.292 278.19 252.323 288.584 252.323 288.584C252.323 288.584 310.229 318.279 374.074 296.007L368.135 276.705C368.943 274.182 369.094 271.495 368.575 268.897C368.055 266.299 366.882 263.876 365.165 261.858C365.165 261.858 371.104 252.949 363.68 245.525C363.68 245.525 366.65 232.162 359.226 226.223L357.741 205.436L362.196 195.043L377.043 131.198Z" fill="#E6E6E6"/>
<path d="M293.111 72.264L292.239 70.2396C292.127 69.9779 281.1 43.9105 290.874 27.8314C295.398 20.3875 303.625 16.1849 315.326 15.3411C333.633 14.0174 346.163 18.3601 352.577 28.2396C353.652 29.9139 354.257 31.8472 354.327 33.8359C354.397 35.8247 353.929 37.7956 352.974 39.5414C352.019 41.2872 350.611 42.7433 348.898 43.7568C347.186 44.7702 345.232 45.3035 343.242 45.3006H342.996L339.632 40.9329L339.436 41.3577C338.218 43.9925 335.421 45.4349 332.146 45.1189C331.588 45.0789 331.095 45.5599 330.698 46.5892C330.565 47.0394 330.313 47.4455 329.968 47.7646C329.624 48.0838 329.2 48.3044 328.741 48.4032C326.32 48.8744 322.87 45.8255 321.326 44.306C321.266 44.6557 321.132 44.9886 320.933 45.2821C320.734 45.5756 320.474 45.8228 320.17 46.0072C318.543 46.9462 316.01 45.7196 315.283 45.3289C309.492 46.5594 305.743 46.2303 304.137 44.3519C303.048 52.0555 300.711 65.9217 297.909 66.6903C297.616 66.7576 297.309 66.729 297.034 66.6086C296.758 66.4883 296.529 66.2825 296.379 66.0218C295.705 65.1458 295.102 64.7093 294.725 64.8319C293.814 65.1219 293.275 68.1239 293.198 70.0614L293.111 72.264Z" fill="#161A23"/>
<path d="M360.711 132.683L375.522 130.276C386.191 140.528 393.459 153.805 396.345 168.317C400.799 192.074 402.284 196.528 402.284 196.528L366.65 205.436L347.348 168.317L360.711 132.683Z" fill="#E6E6E6"/>
<path d="M294.987 163.583L285.834 279.617L519.419 298.043L528.572 182.008L294.987 163.583Z" fill="white"/>
<path d="M319.944 172.572C314.227 168.49 306.97 168.195 304.197 168.254C305.043 170.894 307.672 177.665 313.388 181.749C319.118 185.842 326.367 186.128 329.135 186.071C328.29 183.431 325.661 176.657 319.944 172.572Z" fill="#013FF6"/>
<path d="M342.493 246.407L304.986 243.449C303.878 243.361 302.764 243.493 301.706 243.836C300.649 244.18 299.67 244.728 298.824 245.45C297.979 246.171 297.284 247.053 296.779 248.043C296.274 249.034 295.969 250.114 295.882 251.222C295.794 252.33 295.926 253.445 296.269 254.502C296.613 255.559 297.161 256.539 297.883 257.384C298.605 258.23 299.486 258.925 300.476 259.43C301.467 259.934 302.547 260.239 303.655 260.327L341.162 263.285C343.4 263.462 345.617 262.742 347.324 261.284C349.032 259.827 350.09 257.75 350.267 255.512C350.443 253.274 349.724 251.057 348.266 249.35C346.808 247.642 344.732 246.584 342.493 246.407Z" fill="#013FF6"/>
<path d="M519.363 170.73L309.073 154.14C306.627 153.947 304.167 154.238 301.833 154.996C299.5 155.754 297.339 156.965 295.473 158.558C293.607 160.152 292.074 162.097 290.96 164.283C289.846 166.469 289.174 168.853 288.981 171.299L280.894 273.75C280.505 278.691 282.094 283.584 285.313 287.354C288.531 291.123 293.114 293.46 298.055 293.851L508.345 310.441C510.791 310.634 513.251 310.343 515.584 309.585C517.918 308.827 520.079 307.616 521.945 306.023C523.811 304.43 525.344 302.484 526.458 300.298C527.572 298.112 528.244 295.728 528.437 293.282L536.122 195.907L536.277 193.917L536.522 190.822C536.714 188.376 536.423 185.916 535.665 183.582C534.907 181.249 533.697 179.088 532.104 177.222C530.51 175.356 528.565 173.823 526.379 172.709C524.193 171.595 521.809 170.922 519.363 170.73ZM513.153 259.868L511.821 276.746C511.577 279.727 510.163 282.491 507.888 284.432C505.613 286.374 502.661 287.335 499.679 287.107L471.546 284.89C468.564 284.647 465.801 283.233 463.86 280.958C461.918 278.682 460.956 275.731 461.185 272.749L462.517 255.87C462.762 252.889 464.176 250.127 466.451 248.185C468.726 246.244 471.677 245.282 474.659 245.509L502.783 247.729C505.764 247.973 508.527 249.387 510.47 251.661C512.412 253.935 513.377 256.885 513.153 259.868ZM294.019 251.067C294.238 248.335 295.53 245.802 297.614 244.023C299.698 242.244 302.402 241.363 305.134 241.576L342.639 244.536C343.994 244.641 345.315 245.011 346.527 245.627C347.738 246.242 348.817 247.09 349.7 248.123C350.584 249.155 351.256 250.351 351.677 251.643C352.098 252.935 352.26 254.298 352.154 255.652C352.049 257.007 351.677 258.328 351.061 259.539C350.444 260.75 349.595 261.828 348.562 262.71C347.529 263.593 346.332 264.264 345.04 264.684C343.748 265.104 342.385 265.265 341.031 265.158L341.011 265.163L303.506 262.203C302.151 262.096 300.831 261.722 299.621 261.105C298.411 260.487 297.334 259.636 296.453 258.602C295.572 257.568 294.903 256.37 294.486 255.077C294.068 253.784 293.91 252.421 294.019 251.067ZM302.049 167.585L301.792 166.536L302.871 166.437C303.293 166.391 313.27 165.496 321.036 171.043C328.802 176.591 331.184 186.324 331.287 186.731L331.534 187.783L330.458 187.891C328.93 188.005 327.395 187.995 325.869 187.861C321.013 187.577 316.324 185.993 312.29 183.275C304.524 177.728 302.142 167.994 302.049 167.585Z" fill="#013FF6"/>
<path d="M481.604 271.062L469.414 270.1C468.545 270.033 467.684 270.314 467.021 270.881C466.359 271.448 465.948 272.254 465.879 273.124C465.811 273.993 466.09 274.854 466.656 275.518C467.221 276.181 468.027 276.594 468.896 276.664L481.086 277.625C481.956 277.692 482.816 277.412 483.479 276.845C484.142 276.278 484.553 275.471 484.621 274.602C484.69 273.733 484.411 272.871 483.845 272.208C483.279 271.544 482.473 271.132 481.604 271.062Z" fill="#013FF6"/>
<path d="M504.108 272.837L491.918 271.875C491.049 271.809 490.189 272.09 489.526 272.657C488.864 273.223 488.454 274.03 488.385 274.899C488.317 275.768 488.596 276.629 489.161 277.292C489.726 277.956 490.531 278.368 491.4 278.439L503.59 279.4C504.459 279.467 505.319 279.186 505.981 278.619C506.643 278.052 507.054 277.246 507.122 276.377C507.191 275.508 506.912 274.647 506.347 273.984C505.782 273.32 504.976 272.907 504.108 272.837Z" fill="#013FF6"/>
<path d="M482.27 262.623L470.08 261.661C469.211 261.595 468.351 261.876 467.689 262.442C467.026 263.009 466.616 263.816 466.547 264.685C466.479 265.554 466.758 266.414 467.323 267.078C467.888 267.742 468.693 268.154 469.562 268.225L481.752 269.186C482.621 269.253 483.482 268.973 484.145 268.406C484.808 267.839 485.218 267.032 485.287 266.163C485.356 265.293 485.076 264.432 484.511 263.769C483.945 263.105 483.139 262.693 482.27 262.623Z" fill="#013FF6"/>
<path d="M504.774 264.398L492.584 263.436C491.715 263.369 490.854 263.65 490.191 264.217C489.529 264.784 489.118 265.59 489.049 266.46C488.981 267.329 489.26 268.19 489.826 268.854C490.391 269.518 491.197 269.93 492.066 270L504.256 270.961C505.126 271.029 505.986 270.748 506.649 270.181C507.312 269.614 507.723 268.807 507.791 267.938C507.86 267.069 507.581 266.207 507.015 265.544C506.449 264.88 505.643 264.468 504.774 264.398Z" fill="#013FF6"/>
<path d="M482.934 254.183L470.744 253.222C469.875 253.155 469.014 253.435 468.352 254.002C467.689 254.569 467.278 255.376 467.209 256.245C467.141 257.115 467.42 257.976 467.986 258.64C468.551 259.303 469.357 259.715 470.227 259.786L482.416 260.747C483.286 260.814 484.146 260.532 484.808 259.966C485.47 259.399 485.881 258.592 485.949 257.723C486.018 256.854 485.739 255.994 485.174 255.33C484.608 254.666 483.803 254.254 482.934 254.183Z" fill="#013FF6"/>
<path d="M505.44 255.959L493.25 254.997C492.381 254.931 491.521 255.212 490.858 255.778C490.196 256.345 489.786 257.152 489.717 258.021C489.649 258.89 489.928 259.75 490.493 260.414C491.058 261.078 491.863 261.49 492.732 261.561L504.922 262.522C505.791 262.589 506.651 262.308 507.313 261.741C507.976 261.174 508.386 260.368 508.455 259.499C508.523 258.63 508.244 257.769 507.679 257.105C507.114 256.442 506.309 256.029 505.44 255.959Z" fill="#013FF6"/>
<path d="M285.856 203.625L285.699 205.62L532.552 225.011L532.709 223.017L285.856 203.625Z" fill="white"/>
<path d="M536.277 193.917L536.122 195.907L527.531 195.233L435.998 188.043L436.163 186.051L527.686 193.243L536.277 193.917Z" fill="#161A23"/>
<path d="M234.506 172.772C234.506 172.772 221.143 229.193 237.475 229.193C253.808 229.193 292.412 165.348 292.412 165.348L279.049 149.015L255.064 182.315L253.807 165.348L234.506 172.772Z" fill="#A0616A"/>
<path d="M288.85 167.801C296.029 167.801 301.85 161.98 301.85 154.801C301.85 147.621 296.029 141.801 288.85 141.801C281.67 141.801 275.85 147.621 275.85 154.801C275.85 161.98 281.67 167.801 288.85 167.801Z" fill="#A0616A"/>
<path d="M267.592 125.259L258.683 116.35C258.683 116.35 240.866 126.744 239.381 137.137C237.896 147.531 230.473 180.196 230.473 180.196L257.941 182.423L266.849 169.06L267.592 125.259Z" fill="#E6E6E6"/>
</g>
<defs>
<clipPath id="clip0_607_9822">
<rect width="904.362" height="586.406" fill="white"/>
</clipPath>
</defs>
</svg>
