<svg width="50" height="50" viewBox="0 0 50 50" fill="none" xmlns="http://www.w3.org/2000/svg">
<rect width="50" height="50" rx="12" fill="#FFC01D"/>
<path d="M28.22 19.5498H18.78C18.5 19.5498 18.24 19.5598 18 19.5698C15.63 19.7098 15 20.5798 15 23.2798V23.8598C15 24.4098 15.45 24.8598 16 24.8598H31C31.55 24.8598 32 24.4098 32 23.8598V23.2798C32 20.2998 31.24 19.5498 28.22 19.5498Z" fill="#161A23"/>
<path d="M16 26.3599C15.45 26.3599 15 26.8099 15 27.3599V30.2699C15 33.2499 15.76 33.9999 18.78 33.9999H28.22C31.19 33.9999 31.97 33.2799 32 30.4299V27.3599C32 26.8099 31.55 26.3599 31 26.3599H16ZM19.96 31.5599H18.25C17.84 31.5599 17.5 31.2199 17.5 30.8099C17.5 30.3999 17.84 30.0599 18.25 30.0599H19.97C20.38 30.0599 20.72 30.3999 20.72 30.8099C20.72 31.2199 20.38 31.5599 19.96 31.5599ZM25.55 31.5599H22.11C21.7 31.5599 21.36 31.2199 21.36 30.8099C21.36 30.3999 21.7 30.0599 22.11 30.0599H25.55C25.96 30.0599 26.3 30.3999 26.3 30.8099C26.3 31.2199 25.97 31.5599 25.55 31.5599Z" fill="#161A23"/>
<path d="M34.9996 26.3301V21.0901C34.9996 17.9601 33.2096 16.6001 30.5096 16.6001H21.5796C20.8196 16.6001 20.1396 16.7101 19.5396 16.9401C19.0696 17.1101 18.6496 17.3601 18.3096 17.6901C18.1296 17.8601 18.2696 18.1401 18.5296 18.1401H29.3996C31.6496 18.1401 33.4696 19.9601 33.4696 22.2101V29.3801C33.4696 29.6301 33.7396 29.7701 33.9196 29.5901C34.6096 28.8601 34.9996 27.7901 34.9996 26.3301Z" fill="#161A23"/>
</svg>
